<svg width="1280pt" height="640pt" viewBox="0 0 1280 640" version="1.2" xmlns="http://www.w3.org/2000/svg"><path style="stroke:none;fill-rule:nonzero;fill:#8242b5;fill-opacity:1" d="m436.027 269.844-1.597-.406 4.191-16.317 1.594.41Zm-1.75 6.308-2.933-.754 2.863-4.851 1.418.363Zm615.766 32.118s18.102-28.778-31.617-33.56c-1.227-.491 2.23-3.698 2.23-3.698v-.004c-17.129 1.976-16.476 15.129-16.136 17.933.277-.011.539-.058.82-.058 4.808 0 8.922 1.09 12.344 3.262a19.981 19.981 0 0 1 4.703 4.187c3.14 3.441 5.687 8.55 6.492 16.223 2.68 25.425 14.66 53.07 42.07 11.53 0 0-16.445 9.806-20.906-15.815m-647.32 50.214v-42.68c0-4.831-.727-8.304-2.176-10.417-1.453-2.11-3.805-3.168-7.063-3.168-2.8 0-4.988 1.09-6.566 3.281-1.578 2.191-2.367 4.988-2.367 8.398v44.586h-32.52V280.31h32.52v12.214h.308c2.594-4.48 6.079-7.949 10.457-10.418 4.38-2.468 9.137-3.71 14.278-3.71 17.101 0 25.652 10.796 25.652 32.37v47.72Zm47.183-78.175h32.524v78.175h-32.524Zm33.121-19.766s-.355 6.992-3.691 9.844c-3.332 2.847-7.723 4.273-13.172 4.273-5.289 0-9.629-1.476-13.012-4.43-3.39-2.949-3.547-9.46-3.547-9.46l18.223 8.859Zm99.496 94.965c-9.062 3.258-19.523 4.89-31.382 4.89-11.657 0-21.707-2.234-30.157-6.687-8.449-4.453-14.902-10.79-19.355-19.008-4.453-8.219-6.684-17.703-6.684-28.441 0-11.551 2.496-21.836 7.489-30.84 4.988-9.008 12.03-15.969 21.148-20.879 9.11-4.91 19.594-7.367 31.453-7.367 9.469 0 18.625 1.144 27.488 3.437v30.457c-3.058-1.828-6.695-3.257-10.921-4.273a54.672 54.672 0 0 0-12.825-1.527c-8.96 0-16.023 2.57-21.191 7.714-5.164 5.133-7.746 12.106-7.746 20.918 0 8.75 2.582 15.657 7.746 20.72 5.168 5.07 12.078 7.597 20.73 7.597 7.993 0 16.059-2.035 24.207-6.102Zm68.024-37.332c0-10.64-4.074-15.957-12.219-15.957-8.14 0-12.215 5.57-12.215 16.719 0 11.753 4.125 17.636 12.371 17.636 8.04 0 12.063-6.137 12.063-18.398m32.988-.156c0 13.183-3.988 23.543-11.953 31.074-7.965 7.539-19.102 11.3-33.406 11.3-14.2 0-25.258-3.68-33.172-11.03-7.914-7.36-11.871-17.5-11.871-30.426 0-8.293 1.86-15.497 5.574-21.61 3.711-6.101 9.008-10.785 15.883-14.043 6.867-3.258 14.781-4.89 23.738-4.89 9.266 0 17.293 1.707 24.086 5.12 6.805 3.415 12.02 8.137 15.656 14.2 3.64 6.055 5.465 12.824 5.465 20.305m61.91 40.464v-12.058h-.304c-2.7 3.707-5.13 6.433-7.293 8.164-2.157 1.73-4.602 3.133-7.325 4.2-2.726 1.073-5.89 1.605-9.507 1.605-8.551 0-15.063-2.77-19.543-8.325-4.477-5.547-6.72-13.742-6.72-24.586V280.31h32.52v44.738c0 7.687 2.88 11.527 8.63 11.527 3.16 0 5.538-1.043 7.136-3.133 1.61-2.086 2.406-5.039 2.406-8.851V280.31h32.524v78.175Zm106.895-50.308c-1.223-.559-2.88-1.078-4.961-1.528-2.094-.46-3.824-.687-5.195-.687-10.739 0-16.11 6.207-16.11 18.629v33.894h-32.527V280.31h32.527v13.738h.305c1.984-4.938 4.812-8.684 8.473-11.262 3.668-2.566 7.941-3.855 12.832-3.855 1.777 0 3.328.312 4.656.918Zm72.914 24.355c0 8.852-3.375 15.707-10.117 20.574-6.75 4.856-16.153 7.293-28.211 7.293-3.52 0-7.86-.363-13.02-1.078-5.168-.71-9.383-1.574-12.64-2.59v-22.832c9.625 4.278 17.664 6.418 24.125 6.418 6.367 0 9.55-1.66 9.55-4.964 0-1.38-.738-2.508-2.214-3.395-1.477-.894-5.348-2.379-11.61-4.473-6.922-2.18-11.96-5.086-15.117-8.703-3.152-3.61-4.734-8.316-4.734-14.117 0-8.098 3.222-14.496 9.664-19.203 6.437-4.711 15.488-7.066 27.136-7.066 6.825 0 14.051.996 21.692 2.98v21.91c-3.211-1.37-6.723-2.52-10.543-3.437-3.817-.91-7.024-1.371-9.613-1.371-2.141 0-3.848.355-5.122 1.066-1.27.715-1.91 1.707-1.91 2.98 0 1.477.688 2.672 2.067 3.582 1.37.922 4.117 2.02 8.246 3.293 7.988 2.336 13.715 5.34 17.176 9.004 3.46 3.668 5.195 8.375 5.195 14.13"/><path style="stroke:none;fill-rule:nonzero;fill:#8242b5;fill-opacity:1" d="M984.809 311.613c0-9.015-3.243-13.52-9.696-13.52-2.699 0-4.965 1.239-6.8 3.708-1.833 2.469-2.899 5.734-3.208 9.812Zm-19.551 17.02c.558 3.355 2.496 5.996 5.8 7.902 3.313 1.91 7.688 2.863 13.133 2.863 7.59 0 14.758-1.453 21.536-4.351v20.617c-7.891 3.149-17.465 4.734-28.711 4.734-13.645 0-24.25-3.488-31.836-10.46-7.582-6.973-11.38-16.57-11.38-28.786 0-8.402 1.673-15.808 5.005-22.214 3.328-6.415 8.27-11.446 14.812-15.079 6.54-3.64 13.75-5.46 21.64-5.46 8.098 0 15.013 1.581 20.774 4.73 5.75 3.16 10.114 7.59 13.09 13.281 2.98 5.703 4.465 12.371 4.465 20.008v12.215Zm-470.922-76.754-26.723 15.723-29-14.493 26.727-15.718Zm-192.852-2.871v62.062c0 6.98-1.289 12.246-3.855 15.809-2.57 3.558-6.324 5.34-11.266 5.34-4.883 0-8.636-1.895-11.258-5.688-2.62-3.789-3.933-9.195-3.933-16.222v-61.301h-.031c.738-4.39 1.55-8.848 2.261-11.93 1.926-8.32 5.52-30.812-6.168-46.394-.379-.336-.988-.805-1.707-1.305-.535-5.55-5.703-9.984-11.988-9.984h-.008l.008 6.914c-1.879.203-3.387.629-4.246.941-8.262-10.871-16.527-21.742-24.79-32.617l15.743 34.883s-10.875 5.797-14.95 14.406c-4.077 8.605-13.046 11.957-13.046 11.957s.906 7.34 10.598 12.504c0 0 3.355-3.805 11.87-4.348 4.106-.262 5.47-.039 5.47-.039.898.043 1.804.11 3.093.016a18.825 18.825 0 0 0 3.215-.524s-6.82 35.578-7.559 42.95c-.722 7.23-1.414 29.496-.898 42.648 0 17.152 4.031 30 12.102 38.523 8.066 8.524 19.886 12.79 35.46 12.79 16.696 0 29.051-4.266 37.067-12.79 8.02-8.523 12.027-21.57 12.027-39.132v-59.47Zm0 0"/><path style="stroke:none;fill-rule:nonzero;fill:#8242b5;fill-opacity:1" d="M276.398 231.895c-5.98 30.261.918 49.835.918 49.835s21.907-82.546-10.324-96.675l.903 3.746s14.578 12.347 8.503 43.094m172.149 178.933h-6.477v4.192h6.477Zm0-8.582h-6.477v4.102h6.477Zm-11.457 8.582h-6.414v4.192h6.414Zm0-8.582h-6.414v4.102h6.414Zm19.863 41.043-3.137 4.133c-5.562-5.078-9.48-10.04-11.746-14.883v16.2h-4.98v-15.997c-2.715 5.313-6.602 10.352-11.66 15.117l-2.93-4.277c5.566-5.43 9.305-10.3 11.219-14.617h-10.196v-4.922h13.567v-4.395h-11.485v-22.062h27.918v22.062H442.07v4.395h14.207v4.922h-11.043c2.461 4.746 6.368 9.52 11.72 14.324m-41.278-10.312h-5.07v6.886h5.07Zm5.152 14.328h-5.152v-2.52h-5.07v3.953h-5.098v-20.566h15.32Zm.059-23.38h-15.38v-4.687h15.38Zm0-8.82h-15.38v-4.628h15.38Zm1.73-8.64H404.07v-4.805h7.09c-.43-1.25-1.191-2.676-2.281-4.277l5.27-1.555c1.234 2.149 2.18 4.094 2.843 5.832h5.625Zm85.137-3.84h-15.645v8.203h15.645Zm5.476 13.066h-26.6v-17.93h26.601Zm3.047 32.344H482.5v-4.805h14.648v-7.5h-12.48v-4.863h12.48v-6.12c-4.765.35-8.449.554-11.046.612l-1.758-4.687c11.504-.274 21.191-1.336 29.062-3.192l2.024 4.512c-4.473 1.016-8.79 1.758-12.95 2.227v6.648h12.54v4.863h-12.54v7.5h13.797Zm-31.14-21.797-3.664 3.606a47.317 47.317 0 0 0-3.368-5.977v24.754h-5.156v-21.648c-1.465 3.007-3.547 6.27-6.238 9.785l-2.992-5.098c3.36-4.219 6.36-9.504 8.996-15.851h-8.582v-4.98h8.816v-7.5c-2.89.487-5.09.773-6.594.85l-2.109-4.628c7.094-.684 12.95-1.965 17.578-3.84l2.403 4.394c-1.856.801-3.895 1.477-6.122 2.024v8.7h6.504v4.98h-6.504v1.261c3.008 3.496 5.352 6.551 7.032 9.168m91.316 18.606-2.871 4.629c-5.23-1.68-11.094-2.903-17.574-3.664l2.754-4.512c6.328.547 12.222 1.73 17.691 3.547m-7.969-27.043c-4.023-1.309-7.925-3.23-11.714-5.77-2.504 2.266-5.754 4.188-9.758 5.77Zm7.266-13.738c-1.855 2.656-3.602 4.89-5.242 6.707l-4.54-2.696c.509-.586 1.583-1.922 3.22-4.012h-18.895c-1.836 2.11-3.594 3.868-5.273 5.274l-4.075-3.488c3.11-2.246 6.086-5.645 8.938-10.196l4.922 1.672c-.176.684-.559 1.387-1.145 2.11h22.09Zm-12.066 30.117h-26.75v2.343h26.75Zm0-6.125h-26.75v2.226h26.75Zm0-6.004h-26.75v2.11h26.75Zm-22.5-18.664h-16.145v-4.805h16.145Zm.523 9.55h-17.46v-4.921h17.46Zm35.102 1.672-2.524 4.805c-1.543-.312-3.277-.812-5.215-1.496v22.559h-25.308l2.578 2.988c-5.649 2.598-12.309 4.523-19.985 5.773l-2.578-4.804c5.703-.684 11.164-2.004 16.38-3.957h-8.817V417.8h11.336l-2.285-3.309c7.011-1.777 12.234-4.894 15.672-9.347l5.453 1.203c-.586 1.074-1.028 1.746-1.32 2.02 4.257 2.753 9.792 4.835 16.613 6.241m60.203 20.099c-.274 3.106-.817 5.953-1.625 8.54-.813 2.589-1.594 4.202-2.344 4.847-.754.644-1.617.969-2.594.969-1.191 0-2.222-.454-3.09-1.364-.87-.906-1.699-3.59-2.492-8.043-.789-4.453-1.187-8.457-1.187-12.011v-25.02h-8.114v16.172h6.446v5.187h-6.446v24.813h-5.156v-24.813h-5.566v-5.187h5.566v-16.172h-4.863v-5.04h23.289v31.263c0 4.648.648 9.14 1.937 13.476.739-2.734 1.22-6.25 1.434-10.547Zm-40.02-1.789h-6.3v6.77h6.3Zm5.274 14.387h-5.274v-2.696h-6.297v4.13h-5.187v-20.801h16.758Zm-.059-23.38h-16.7v-4.745h16.7Zm0-8.76h-16.7v-4.806h16.7Zm1.32-8.907h-19.453v-4.832h7.672c-.312-.918-.945-2.16-1.902-3.723l5.273-1.992a50.403 50.403 0 0 1 2.637 5.715h5.773Zm92.34 18.312-4.043 3.309c-3.98-5.254-9.16-10.594-15.523-16.024l4.011-3.253c6.778 5.742 11.961 11.066 15.555 15.968m.18-22.324-.063 5.04h-50.886v-5.04h23.293a20.478 20.478 0 0 0-2.461-4.863l5.562-1.672c1.309 2.285 2.23 4.465 2.754 6.535Zm-31.762 8.582c-4.336 6.524-9.773 12.043-16.316 16.555l-3.836-4.074c5.957-3.75 11.12-8.75 15.496-15Zm32.727 33.078-2.051 5.215c-10.078-1.894-18.32-5.117-24.727-9.668-6.64 4.473-14.902 7.527-24.785 9.168l-1.847-5.39c8.593-1.016 16.093-3.477 22.5-7.383-3.512-3.633-6.512-8.446-8.993-14.442l4.715-2.11c2.442 5.9 5.227 10.36 8.352 13.388 3.261-2.989 6.18-7.254 8.758-12.801l4.98 1.699c-2.637 5.918-5.898 10.75-9.781 14.5 6.383 4.121 14.012 6.73 22.879 7.824m59.148 4.422h-7.969c-1.382 0-2.472-.398-3.265-1.2-.79-.8-1.188-1.874-1.188-3.222v-20.422h5.215v18.547c0 .313.117.602.356.864.23.265.476.394.73.394h6.121Zm-17.984.559h-5.188v-25.344h5.188Zm18.219-28.508-4.918 2.52a38.362 38.362 0 0 0-2.524-3.602c-12.637 1.055-22.45 1.629-29.441 1.726l-.969-4.421c2.734-1.446 5.91-4.649 9.523-9.61h-9.636v-4.922h12.886c.801-1.386 1.848-3.41 3.137-6.066l5.625 1.144a41.306 41.306 0 0 1-2.46 4.922h18.25v4.922h-21.18c-2.012 3.067-4.61 6.004-7.793 8.817a173.773 173.773 0 0 0 18.34-1.141c-.919-1.133-2.176-2.453-3.782-3.957l4.98-2.402a69.78 69.78 0 0 1 9.962 12.07m-28.856 3.164c.04.898.059 1.797.059 2.695 0 6.29-.774 11.192-2.317 14.707-1.543 3.516-3.867 6.34-6.972 8.47l-3.836-3.782c5.156-2.969 7.734-9.188 7.734-18.66 0-1.036-.02-2.18-.059-3.43Zm-10.312-19.129-3.72 4.129c-1.937-2.598-4.972-5.496-9.112-8.7l3.78-4.132a51.706 51.706 0 0 1 9.052 8.703m-.442 23.934c-1.933 7.187-4.805 14.132-8.61 20.832l-4.573-3.196c4.12-7.636 6.945-14.394 8.468-20.273Zm.266-9.61-3.25 4.453c-2.66-2.656-6.078-5.293-10.258-7.91l3.223-4.453c4.457 2.715 7.882 5.352 10.285 7.91m95.39-10.195c-2.597 5.684-5.437 10.43-8.523 14.238l-4.922-2.46c2.809-3.4 5.652-8.145 8.524-14.239Zm-31.316 11.719-5.102 2.343c-1.734-4.375-4.312-9.082-7.73-14.12l5.039-2.52c2.945 4.277 5.547 9.043 7.793 14.297m35.04 9.902h-23.352v18.723h-5.45v-18.723h-23.406v-5.3h23.406v-21.536h-21.855v-5.273h49.394v5.273h-22.09v21.535h23.352Zm46.081-.204h-15.73c-1.465 1.212-3.528 2.353-6.184 3.427l20.89-.469c-.452-.45-1.077-.945-1.874-1.492Zm2.285-17.081h-28.39v2.344h28.39Zm5.215 5.566h-38.879v-8.816h38.88Zm5.39 10.989h-5.214v-5.157H830.75v5.332h-5.36v-8.879h49.747Zm.673-27.247h-23.055v2.227h20.332v3.191h-45.82v-3.19h20.156v-2.228h-22.793v-3.43h22.793v-2.37h5.332v2.37h23.055Zm.175 45.731H824.57v-3.543h22.97v-2.52h-19.25v-3.253h19.25v-2.137a262.52 262.52 0 0 1-9.876.176c-2.168 0-4.473-.02-6.914-.059l-.73-3.254c3.28-.644 6.203-1.765 8.757-3.367h-6.004v-3.34h34.98v3.34h-2.87c1.816 1.484 3.633 3.21 5.449 5.184l-4.016 2.578a83.141 83.141 0 0 0-1.785-1.993l-11.543.528v2.344h19.63v3.253h-19.63v2.52h22.996Zm0 0"/></svg>