<svg width="1280pt" height="640pt" viewBox="0 0 1280 640" version="1.2" xmlns:xlink="http://www.w3.org/1999/xlink" xmlns="http://www.w3.org/2000/svg"><defs><symbol overflow="visible" id="a"><path style="stroke:none" d="m16.844-42.313-3.578 3.672c-2.2-2.582-4.883-5.082-8.047-7.5l3.656-3.609c3.813 3.086 6.469 5.563 7.969 7.438Zm38.125 12.891H43.156c-1.562 0-2.726-.367-3.484-1.11-.762-.738-1.14-2.1-1.14-4.093v-14.156h14.765v11.047H43.39v3.109c0 .68.343 1.016 1.03 1.016h10.55Zm-6.547-12.39v-2.891H43.39v2.89Zm-12.656 11.14L20.39-27.656l-1.078-4.453c.757-.25 1.14-.844 1.14-1.782v-14.89h14.703v11.11H25.25v4.796c1.531-.207 5-.89 10.406-2.047Zm-5.47-11.14v-2.891H25.25v2.89Zm26.33 39.295-1.484 5.032c-3.868.101-8.086.156-12.657.156-4.96 0-9.011-.043-12.156-.125-3.148-.074-6.289-.61-9.422-1.61-3.136-1-5.808-2.55-8.015-4.656-2.368 3.617-4.141 6.07-5.329 7.375L3.484.172c4.77-5.563 7.614-11.156 8.532-16.781H4.625v-5.094c2.781-3.582 4.977-6.961 6.594-10.14H4.016v-5.079H17v5.078c-1.742 3.324-3.844 6.782-6.313 10.375h6.485c.094.782.14 1.59.14 2.422 0 3.555-.773 7.137-2.312 10.75a19.147 19.147 0 0 0 6.531 4.219c2.477.96 5.82 1.508 10.032 1.64 4.207.126 7.984.188 11.328.188 4.882 0 9.46-.086 13.734-.266Zm-.938-9.796h-37.14v-4.36h8.937v-3.547H19.86v-4.453h7.625v-2.922h5.094v2.922h8.875v-2.922h5.094v2.922h7.562v4.453h-7.562v3.547h9.14Zm-14.234-4.36v-3.547h-8.875v3.547ZM34.392-8.47c-2.637 1.656-6.336 3.14-11.094 4.453l-3.72-4.013c3.531-.781 7.203-2.04 11.016-3.781ZM55.25-7.438l-3.281 3.891a72.53 72.53 0 0 0-11.532-4.25l3.25-3.89c3.333.96 7.188 2.374 11.563 4.25Zm0 0"/></symbol><symbol overflow="visible" id="b"><path style="stroke:none" d="M22.625-39.234H4.078v-4.797h7.078c-.43-1.25-1.187-2.676-2.281-4.282l5.281-1.546c1.227 2.148 2.176 4.09 2.844 5.828h5.625ZM56.953-2.406l-3.14 4.14c-5.563-5.082-9.477-10.046-11.735-14.89V3.047h-4.984v-16C34.375-7.641 30.488-2.598 25.437 2.172L22.5-2.11c5.563-5.426 9.3-10.301 11.219-14.625H23.53v-4.922h13.563v-4.39H25.609V-48.11h27.922v22.062H42.078v4.39h14.203v4.923H45.234c2.457 4.75 6.364 9.527 11.72 14.328Zm-8.406-36.938v-4.11h-6.469v4.11Zm-11.453 0v-4.11h-6.422v4.11Zm11.453 8.672v-4.187h-6.469v4.187Zm-11.453 0v-4.187h-6.422v4.187Zm-16.203.078H5.516v-4.625H20.89Zm0 8.828H5.516v-4.687H20.89ZM20.828 1.61h-5.156V-.906h-5.063v3.953H5.516v-20.563h15.312Zm-5.156-7.437v-6.89h-5.063v6.89Zm0 0"/></symbol><symbol overflow="visible" id="c"><path style="stroke:none" d="M55.75-41.625c-1.855 2.656-3.602 4.89-5.234 6.703l-4.547-2.703c.508-.582 1.582-1.914 3.218-4h-18.89c-1.836 2.105-3.594 3.86-5.281 5.266l-4.063-3.485c3.102-2.25 6.082-5.648 8.938-10.203l4.922 1.672c-.18.688-.563 1.39-1.157 2.11H55.75Zm-34.563-.688H5.047v-4.796h16.14Zm35.626 11.235-2.532 4.797c-1.543-.313-3.277-.813-5.203-1.5V-5.22H23.766l2.578 2.985C20.695.367 14.035 2.296 6.359 3.546L3.781-1.265c5.696-.675 11.156-1.992 16.375-3.953h-8.812V-27.89h11.328l-2.281-3.312c7.007-1.781 12.234-4.895 15.672-9.344l5.453 1.203c-.586 1.074-1.024 1.746-1.313 2.016 4.25 2.762 9.785 4.844 16.61 6.25Zm-8.329 3.187c-4.023-1.312-7.93-3.234-11.718-5.765-2.5 2.261-5.75 4.183-9.75 5.765Zm-4.797 6.36v-2.11h-26.75v2.11Zm0 6.125v-2.235h-26.75v2.235Zm0 6.234v-2.344h-26.75v2.344ZM21.703-32.75H4.25v-4.922h17.453ZM56.453-.844l-2.875 4.625C48.348 2.101 42.488.883 36 .125l2.766-4.516c6.32.543 12.218 1.727 17.687 3.547Zm0 0"/></symbol><symbol overflow="visible" id="d"><path style="stroke:none" d="M23.531-39.438H4.078v-4.828h7.672c-.313-.914-.95-2.156-1.906-3.718l5.281-2a51.229 51.229 0 0 1 2.625 5.718h5.781Zm33.485 28.454c-.274 3.105-.813 5.953-1.625 8.546-.813 2.583-1.594 4.196-2.344 4.844a3.869 3.869 0 0 1-2.594.969c-1.2 0-2.23-.46-3.094-1.375-.867-.906-1.695-3.582-2.484-8.031-.793-4.457-1.188-8.461-1.188-12.016v-25.015h-8.124v16.171h6.453v5.188h-6.453V3.109h-5.157v-24.812h-5.562v-5.188h5.562v-16.172h-4.86v-5.046h23.298v31.265c0 4.649.64 9.137 1.922 13.469.75-2.727 1.226-6.242 1.437-10.547ZM22.203-30.531H5.516v-4.797h16.687Zm0 8.765H5.516v-4.75h16.687Zm.063 23.375H17v-2.687h-6.313v4.125H5.516V-17.75h16.75ZM17-6v-6.781h-6.313V-6Zm0 0"/></symbol><symbol overflow="visible" id="e"><path style="stroke:none" d="m56.047-43.453-.063 5.047H5.094v-5.047H28.39a20.119 20.119 0 0 0-2.47-4.86l5.579-1.671c1.3 2.293 2.219 4.468 2.75 6.53ZM24.28-34.86c-4.335 6.524-9.772 12.04-16.31 16.548l-3.844-4.079c5.957-3.75 11.125-8.75 15.5-15Zm31.594 13.734-4.047 3.313c-3.992-5.25-9.168-10.594-15.531-16.032l4.016-3.25c6.78 5.742 11.968 11.063 15.562 15.969Zm1.14 19.344L54.97 3.422C44.883 1.535 36.64-1.68 30.234-6.234c-6.636 4.468-14.898 7.523-24.78 9.171L3.608-2.468c8.594-1.008 16.094-3.469 22.5-7.375-3.523-3.633-6.523-8.445-9-14.437l4.72-2.11c2.437 5.899 5.218 10.356 8.343 13.375 3.258-2.976 6.18-7.242 8.765-12.796l4.985 1.703c-2.637 5.918-5.902 10.75-9.797 14.5 6.395 4.125 14.023 6.734 22.89 7.828Zm0 0"/></symbol><symbol overflow="visible" id="f"><path style="stroke:none" d="M17.234-41.281 13.5-37.156c-1.93-2.594-4.965-5.489-9.11-8.688l3.782-4.14a51.78 51.78 0 0 1 9.062 8.703Zm39.157 15.968-4.922 2.516a38.437 38.437 0 0 0-2.516-3.594c-12.637 1.055-22.45 1.625-29.437 1.72l-.97-4.423c2.727-1.445 5.9-4.648 9.517-9.61h-9.641v-4.921h12.89c.801-1.383 1.848-3.406 3.141-6.063l5.625 1.141a42.445 42.445 0 0 1-2.453 4.922h18.25v4.922H34.687c-2.011 3.062-4.609 6-7.796 8.812 6.156-.05 12.27-.43 18.343-1.14-.918-1.125-2.18-2.442-3.78-3.953l4.983-2.407a69.902 69.902 0 0 1 9.954 12.078Zm-39.344-1.64-3.25 4.453c-2.656-2.656-6.074-5.29-10.25-7.906l3.219-4.453c4.457 2.71 7.882 5.343 10.28 7.906ZM56.157 2.64h-7.97c-1.386 0-2.476-.403-3.265-1.204-.793-.804-1.188-1.875-1.188-3.218v-20.422h5.22v18.547c0 .312.112.601.343.86.238.26.488.39.75.39h6.11Zm-17.985.546h-5.188v-25.343h5.188ZM27.547-22.155c.031.906.047 1.808.047 2.703 0 6.293-.774 11.2-2.313 14.719-1.543 3.511-3.867 6.328-6.968 8.453L14.469-.062c5.156-2.97 7.734-9.188 7.734-18.657 0-1.039-.015-2.187-.047-3.437ZM16.78-17.344c-1.93 7.188-4.797 14.133-8.61 20.828L3.61.297c4.114-7.633 6.938-14.395 8.47-20.281Zm0 0"/></symbol><symbol overflow="visible" id="g"><path style="stroke:none" d="M56.156-15.531H32.813V3.187h-5.454V-15.53H3.953v-5.297H27.36V-42.36H5.516v-5.282h49.39v5.282H32.813v21.53h23.343Zm-35.031-9.906-5.094 2.343c-1.742-4.375-4.32-9.078-7.734-14.11l5.031-2.53c2.945 4.28 5.547 9.047 7.797 14.297Zm31.313-11.72c-2.594 5.688-5.434 10.438-8.516 14.25L39-25.374c2.813-3.395 5.648-8.14 8.516-14.234Zm0 0"/></symbol><symbol overflow="visible" id="h"><path style="stroke:none" d="m56.89-27.594-4.624 3.719a58.234 58.234 0 0 0-3.72-5.281c-15.429 1.824-29.726 2.918-42.89 3.281l-1.265-5.031c5.75-1.852 11.984-8.172 18.703-18.953l6.062 1.203c-3.992 6.437-8.73 12.18-14.218 17.218 7.832-.289 17.718-1.07 29.656-2.343-2.48-2.727-5.492-5.532-9.032-8.407l4.641-3.546c7.164 6.21 12.727 12.257 16.688 18.14ZM51.595 2.984H46.14V.297H14.594v2.687H9.109v-24.812h42.485ZM46.14-4.922v-11.687H14.594v11.687Zm0 0"/></symbol></defs><path style="stroke:none;fill-rule:nonzero;fill:#8242b5;fill-opacity:1" d="M1050.043 323.781s18.102-28.777-31.617-33.558c-1.227-.493 2.23-3.7 2.23-3.7v-.003c-17.129 1.972-16.476 15.128-16.136 17.93.277-.009.539-.055.82-.055 4.808 0 8.922 1.09 12.344 3.261a19.923 19.923 0 0 1 4.703 4.188c3.14 3.437 5.687 8.55 6.492 16.222 2.68 25.426 14.66 53.07 42.07 11.532 0 0-16.445 9.804-20.906-15.817m-647.32 50.215v-42.68c0-4.832-.727-8.304-2.176-10.418-1.453-2.109-3.805-3.168-7.063-3.168-2.8 0-4.988 1.09-6.566 3.282-1.578 2.191-2.367 4.988-2.367 8.398v44.586h-32.52V295.82h32.52v12.215h.308c2.594-4.48 6.079-7.95 10.457-10.418 4.38-2.469 9.137-3.71 14.278-3.71 17.101 0 25.652 10.796 25.652 32.37v47.72Zm47.183-78.176h32.524v78.176h-32.524Zm33.121-19.765s-.355 6.992-3.691 9.843c-3.332 2.848-7.723 4.274-13.172 4.274-5.289 0-9.629-1.477-13.012-4.43-3.39-2.949-3.547-9.46-3.547-9.46l18.223 8.859Zm99.496 94.965c-9.062 3.257-19.523 4.886-31.382 4.886-11.657 0-21.707-2.23-30.157-6.683-8.449-4.453-14.902-10.79-19.355-19.008-4.453-8.219-6.684-17.703-6.684-28.442 0-11.55 2.496-21.836 7.489-30.84 4.988-9.007 12.03-15.968 21.148-20.878 9.11-4.91 19.594-7.368 31.453-7.368 9.469 0 18.625 1.141 27.488 3.434v30.461c-3.058-1.828-6.695-3.258-10.921-4.273a54.466 54.466 0 0 0-12.825-1.528c-8.96 0-16.023 2.57-21.191 7.711-5.164 5.137-7.746 12.11-7.746 20.918 0 8.754 2.582 15.66 7.746 20.723 5.168 5.07 12.078 7.597 20.73 7.597 7.993 0 16.059-2.035 24.207-6.105Zm68.024-37.336c0-10.637-4.074-15.954-12.219-15.954-8.14 0-12.215 5.57-12.215 16.72 0 11.753 4.125 17.636 12.371 17.636 8.04 0 12.063-6.137 12.063-18.402m32.988-.153c0 13.18-3.988 23.543-11.953 31.07-7.965 7.54-19.102 11.305-33.406 11.305-14.2 0-25.258-3.683-33.172-11.031-7.914-7.36-11.871-17.5-11.871-30.426 0-8.293 1.86-15.496 5.574-21.61 3.711-6.1 9.008-10.784 15.883-14.042 6.867-3.258 14.781-4.89 23.738-4.89 9.266 0 17.293 1.706 24.086 5.12 6.805 3.414 12.02 8.137 15.656 14.2 3.64 6.054 5.465 12.82 5.465 20.304m61.91 40.465v-12.058h-.304c-2.7 3.707-5.13 6.433-7.293 8.16-2.157 1.734-4.602 3.136-7.325 4.203-2.726 1.074-5.89 1.605-9.507 1.605-8.551 0-15.063-2.77-19.543-8.324-4.477-5.547-6.72-13.742-6.72-24.586V295.82h32.52v44.739c0 7.687 2.88 11.527 8.63 11.527 3.16 0 5.538-1.043 7.136-3.133 1.61-2.086 2.406-5.039 2.406-8.851V295.82h32.524v78.176Zm106.895-50.308c-1.223-.56-2.88-1.079-4.961-1.528-2.094-.46-3.824-.691-5.195-.691-10.739 0-16.11 6.21-16.11 18.633v33.894h-32.527V295.82h32.527v13.739h.305c1.984-4.938 4.812-8.688 8.473-11.262 3.668-2.567 7.941-3.856 12.832-3.856 1.777 0 3.328.313 4.656.918Zm72.914 24.355c0 8.848-3.375 15.707-10.117 20.574-6.75 4.856-16.153 7.293-28.211 7.293-3.52 0-7.86-.363-13.02-1.078-5.168-.71-9.383-1.574-12.64-2.59V349.41c9.625 4.274 17.664 6.418 24.125 6.418 6.367 0 9.55-1.66 9.55-4.965 0-1.379-.738-2.511-2.214-3.394-1.477-.895-5.348-2.38-11.61-4.473-6.922-2.183-11.96-5.086-15.117-8.703-3.152-3.61-4.734-8.32-4.734-14.117 0-8.098 3.222-14.496 9.664-19.207 6.437-4.707 15.488-7.063 27.136-7.063 6.825 0 14.051.996 21.692 2.98v21.91c-3.211-1.37-6.723-2.519-10.543-3.437-3.817-.91-7.024-1.37-9.613-1.37-2.141 0-3.848.355-5.122 1.066-1.27.715-1.91 1.707-1.91 2.98 0 1.477.688 2.672 2.067 3.582 1.37.922 4.117 2.02 8.246 3.293 7.988 2.336 13.715 5.34 17.176 9.004 3.46 3.668 5.195 8.375 5.195 14.129"/><path style="stroke:none;fill-rule:nonzero;fill:#8242b5;fill-opacity:1" d="M984.809 327.121c0-9.012-3.243-13.516-9.696-13.516-2.699 0-4.965 1.239-6.8 3.707-1.833 2.47-2.899 5.735-3.208 9.81Zm-19.551 17.024c.558 3.355 2.496 5.996 5.8 7.898 3.313 1.914 7.688 2.863 13.133 2.863 7.59 0 14.758-1.449 21.536-4.347v20.617c-7.891 3.148-17.465 4.73-28.711 4.73-13.645 0-24.25-3.484-31.836-10.457-7.582-6.972-11.38-16.57-11.38-28.785 0-8.402 1.673-15.809 5.005-22.215 3.328-6.414 8.27-11.445 14.812-15.078 6.54-3.64 13.75-5.465 21.64-5.465 8.098 0 15.013 1.586 20.774 4.735 5.75 3.16 10.114 7.59 13.09 13.28 2.98 5.704 4.465 12.372 4.465 20.009v12.215Zm-529.231-58.79-1.597-.41 4.191-16.312 1.594.41Zm-1.75 6.309-2.933-.754 2.863-4.855 1.418.367Zm0 0"/><path style="stroke:none;fill-rule:nonzero;fill:#8242b5;fill-opacity:1" d="m494.336 267.39-26.723 15.723-29-14.492 26.727-15.719Zm-192.852-2.87v62.062c0 6.98-1.289 12.246-3.855 15.809-2.57 3.558-6.324 5.34-11.266 5.34-4.883 0-8.636-1.895-11.258-5.688-2.62-3.79-3.933-9.195-3.933-16.227V264.52h-.031c.738-4.391 1.55-8.848 2.261-11.93 1.926-8.32 5.52-30.813-6.168-46.395-.379-.336-.988-.804-1.707-1.308-.535-5.547-5.703-9.98-11.988-9.98h-.008l.008 6.913c-1.879.203-3.387.63-4.246.942l-24.79-32.617 15.743 34.882s-10.875 5.797-14.95 14.407c-4.077 8.605-13.046 11.957-13.046 11.957s.906 7.34 10.598 12.504c0 0 3.355-3.805 11.87-4.348 4.106-.262 5.47-.04 5.47-.04.898.044 1.804.11 3.093.013a18.504 18.504 0 0 0 3.215-.52s-6.82 35.578-7.559 42.95c-.722 7.23-1.414 29.495-.898 42.648 0 17.152 4.031 29.996 12.102 38.523 8.066 8.52 19.886 12.79 35.46 12.79 16.696 0 29.051-4.27 37.067-12.79 8.02-8.527 12.027-21.57 12.027-39.133V264.52Zm0 0"/><path style="stroke:none;fill-rule:nonzero;fill:#8242b5;fill-opacity:1" d="M276.398 247.406c-5.98 30.262.918 49.832.918 49.832s21.907-82.543-10.324-96.672l.903 3.746s14.578 12.348 8.503 43.094"/><g style="fill:#8242b5;fill-opacity:1"><use xlink:href="#a" x="400" y="453.042"/><use xlink:href="#b" x="460" y="453.042"/><use xlink:href="#c" x="520" y="453.042"/><use xlink:href="#d" x="580" y="453.042"/><use xlink:href="#e" x="640" y="453.042"/><use xlink:href="#f" x="700" y="453.042"/><use xlink:href="#g" x="760" y="453.042"/><use xlink:href="#h" x="820" y="453.042"/></g></svg>