<svg width="1706.667" height="640pt" viewBox="0 0 1280 640" version="1.2" xmlns="http://www.w3.org/2000/svg"><path style="stroke:none;fill-rule:nonzero;fill:#8242b5;fill-opacity:1" d="M1050.043 338.781s18.102-28.777-31.617-33.558c-1.227-.493 2.23-3.7 2.23-3.7v-.003c-17.129 1.972-16.476 15.128-16.136 17.93.277-.009.539-.055.82-.055 4.808 0 8.922 1.09 12.344 3.261a19.923 19.923 0 0 1 4.703 4.188c3.14 3.437 5.687 8.55 6.492 16.222 2.68 25.426 14.66 53.07 42.07 11.532 0 0-16.445 9.804-20.906-15.817m-647.32 50.215v-42.68c0-4.832-.727-8.304-2.176-10.418-1.453-2.109-3.805-3.168-7.063-3.168-2.8 0-4.988 1.09-6.566 3.282-1.578 2.191-2.367 4.988-2.367 8.398v44.586h-32.524V310.82h32.524v12.215h.308c2.594-4.48 6.079-7.95 10.457-10.418 4.38-2.469 9.137-3.71 14.278-3.71 17.101 0 25.652 10.796 25.652 32.37v47.72Zm47.183-78.176h32.524v78.176h-32.524Zm33.121-19.765s-.355 6.992-3.691 9.843c-3.332 2.848-7.723 4.274-13.172 4.274-5.289 0-9.629-1.477-13.012-4.43-3.39-2.949-3.547-9.46-3.547-9.46l18.223 8.859Zm99.496 94.965c-9.062 3.257-19.523 4.886-31.382 4.886-11.657 0-21.707-2.23-30.157-6.683-8.449-4.453-14.902-10.79-19.355-19.008-4.453-8.219-6.684-17.703-6.684-28.442 0-11.55 2.496-21.836 7.489-30.84 4.988-9.007 12.03-15.968 21.148-20.878 9.11-4.91 19.594-7.368 31.453-7.368 9.469 0 18.625 1.141 27.488 3.434v30.461c-3.058-1.828-6.695-3.258-10.921-4.273a54.466 54.466 0 0 0-12.825-1.528c-8.96 0-16.023 2.57-21.191 7.711-5.164 5.137-7.746 12.11-7.746 20.918 0 8.754 2.582 15.66 7.746 20.723 5.168 5.07 12.078 7.597 20.73 7.597 7.993 0 16.059-2.035 24.207-6.105Zm68.024-37.336c0-10.637-4.074-15.954-12.219-15.954-8.14 0-12.215 5.57-12.215 16.72 0 11.753 4.125 17.636 12.371 17.636 8.04 0 12.063-6.137 12.063-18.402m32.988-.153c0 13.18-3.988 23.543-11.953 31.07-7.965 7.54-19.102 11.305-33.406 11.305-14.2 0-25.258-3.683-33.172-11.031-7.914-7.36-11.871-17.5-11.871-30.426 0-8.293 1.86-15.496 5.574-21.61 3.711-6.1 9.008-10.784 15.883-14.042 6.867-3.258 14.781-4.89 23.738-4.89 9.266 0 17.293 1.706 24.086 5.12 6.805 3.414 12.02 8.137 15.656 14.2 3.64 6.054 5.465 12.82 5.465 20.304m61.91 40.465v-12.058h-.304c-2.7 3.707-5.13 6.433-7.293 8.16-2.157 1.734-4.602 3.136-7.328 4.203-2.723 1.074-5.887 1.605-9.504 1.605-8.551 0-15.063-2.77-19.543-8.324-4.477-5.547-6.72-13.742-6.72-24.586V310.82h32.52v44.739c0 7.687 2.88 11.527 8.63 11.527 3.16 0 5.538-1.043 7.136-3.133 1.61-2.086 2.406-5.039 2.406-8.851V310.82h32.524v78.176Zm106.895-50.308c-1.223-.56-2.88-1.079-4.961-1.528-2.094-.46-3.824-.687-5.195-.687-10.739 0-16.11 6.207-16.11 18.629v33.894h-32.527V310.82h32.527v13.739h.305c1.984-4.938 4.812-8.688 8.473-11.262 3.668-2.567 7.941-3.856 12.832-3.856 1.777 0 3.328.313 4.656.918Zm72.914 24.355c0 8.848-3.375 15.707-10.117 20.574-6.75 4.856-16.153 7.293-28.211 7.293-3.52 0-7.86-.363-13.02-1.078-5.168-.71-9.383-1.574-12.64-2.59V364.41c9.625 4.274 17.664 6.418 24.125 6.418 6.367 0 9.55-1.66 9.55-4.965 0-1.379-.738-2.511-2.214-3.394-1.477-.895-5.348-2.38-11.61-4.473-6.922-2.183-11.96-5.086-15.117-8.703-3.152-3.61-4.734-8.32-4.734-14.117 0-8.098 3.222-14.496 9.664-19.207 6.437-4.707 15.488-7.063 27.136-7.063 6.825 0 14.051.996 21.692 2.98v21.91c-3.211-1.37-6.723-2.519-10.543-3.437-3.817-.91-7.024-1.37-9.613-1.37-2.145 0-3.848.355-5.122 1.066-1.27.715-1.91 1.707-1.91 2.98 0 1.477.688 2.672 2.067 3.582 1.37.922 4.117 2.02 8.246 3.293 7.988 2.336 13.715 5.34 17.176 9.004 3.46 3.668 5.195 8.375 5.195 14.129"/><path style="stroke:none;fill-rule:nonzero;fill:#8242b5;fill-opacity:1" d="M984.809 342.121c0-9.012-3.243-13.516-9.696-13.516-2.699 0-4.965 1.239-6.8 3.707-1.833 2.47-2.899 5.735-3.208 9.81Zm-19.551 17.024c.558 3.355 2.496 5.996 5.8 7.898 3.313 1.914 7.688 2.863 13.133 2.863 7.59 0 14.758-1.449 21.536-4.347v20.617c-7.891 3.148-17.465 4.73-28.711 4.73-13.645 0-24.25-3.484-31.836-10.457-7.582-6.972-11.38-16.57-11.38-28.785 0-8.402 1.673-15.809 5.005-22.215 3.328-6.414 8.27-11.445 14.812-15.078 6.54-3.64 13.75-5.465 21.64-5.465 8.098 0 15.013 1.586 20.774 4.735 5.75 3.16 10.114 7.59 13.09 13.28 2.98 5.704 4.465 12.372 4.465 20.009v12.215Zm-529.231-58.79-1.597-.41 4.191-16.312 1.594.41Zm-1.75 6.309-2.933-.754 2.863-4.855 1.418.367Zm0 0"/><path style="stroke:none;fill-rule:nonzero;fill:#8242b5;fill-opacity:1" d="m494.336 282.39-26.723 15.723-29-14.492 26.727-15.719Zm-192.852-2.87v62.062c0 6.98-1.289 12.246-3.855 15.809-2.57 3.558-6.324 5.34-11.266 5.34-4.883 0-8.636-1.895-11.258-5.688-2.62-3.79-3.933-9.195-3.933-16.227V279.52h-.031c.738-4.391 1.55-8.848 2.261-11.93 1.926-8.32 5.52-30.813-6.168-46.395-.379-.336-.988-.804-1.707-1.308-.535-5.547-5.703-9.98-11.988-9.98h-.008l.008 6.913c-1.879.203-3.387.63-4.246.942l-24.79-32.617 15.743 34.882s-10.875 5.797-14.95 14.407c-4.077 8.605-13.046 11.957-13.046 11.957s.906 7.34 10.598 12.504c0 0 3.355-3.805 11.87-4.348 4.106-.262 5.47-.04 5.47-.04.898.044 1.804.11 3.093.013a18.504 18.504 0 0 0 3.215-.52s-6.82 35.578-7.559 42.95c-.722 7.23-1.414 29.495-.898 42.648 0 17.152 4.031 29.996 12.102 38.523 8.066 8.52 19.886 12.79 35.46 12.79 16.696 0 29.051-4.27 37.067-12.79 8.02-8.527 12.027-21.57 12.027-39.133V279.52Zm0 0"/><path style="stroke:none;fill-rule:nonzero;fill:#8242b5;fill-opacity:1" d="M276.398 262.406c-5.98 30.262.918 49.832.918 49.832s21.907-82.543-10.324-96.672l.903 3.746s14.578 12.348 8.503 43.094"/></svg>