<svg xml:space="preserve" width="1706.667" height="853.333" xmlns="http://www.w3.org/2000/svg"><defs><clipPath clipPathUnits="userSpaceOnUse" id="a"><path d="M0 0h1281v640H0Z"/></clipPath></defs><g clip-path="url(#a)" transform="scale(1.33333)"><path d="M1050.043 338.781s18.102-28.777-31.617-33.558c-1.227-.493 2.23-3.7 2.23-3.7v-.003c-17.129 1.972-16.476 15.128-16.136 17.929.277-.008.539-.054.82-.054 4.808 0 8.922 1.089 12.344 3.261a19.923 19.923 0 0 1 4.703 4.188c3.14 3.437 5.687 8.551 6.492 16.222 2.68 25.426 14.66 53.071 42.07 11.532 0 0-16.445 9.804-20.906-15.817m-647.32 50.215v-42.68c0-4.832-.727-8.304-2.176-10.418-1.453-2.109-3.805-3.168-7.063-3.168-2.8 0-4.988 1.09-6.566 3.282-1.578 2.191-2.367 4.988-2.367 8.398v44.586h-32.524V310.82h32.524v12.215h.308c2.594-4.48 6.079-7.949 10.457-10.418 4.379-2.469 9.137-3.711 14.278-3.711 17.101 0 25.652 10.797 25.652 32.371v47.719zm47.183-78.176h32.524v78.176h-32.524zm33.121-19.765s-.355 6.992-3.691 9.843c-3.332 2.848-7.723 4.274-13.172 4.274-5.289 0-9.629-1.477-13.012-4.43-3.39-2.949-3.547-9.461-3.547-9.461l18.223 8.86zm99.496 94.965c-9.062 3.257-19.523 4.886-31.382 4.886-11.657 0-21.707-2.23-30.157-6.683-8.449-4.453-14.902-10.789-19.355-19.008-4.453-8.219-6.684-17.703-6.684-28.442 0-11.55 2.496-21.835 7.489-30.839 4.988-9.008 12.031-15.969 21.148-20.879 9.109-4.91 19.594-7.367 31.453-7.367 9.469 0 18.625 1.14 27.488 3.433v30.461c-3.058-1.828-6.695-3.258-10.921-4.273a54.446 54.446 0 0 0-12.825-1.528c-8.961 0-16.023 2.571-21.191 7.711-5.164 5.137-7.746 12.11-7.746 20.918 0 8.754 2.582 15.66 7.746 20.723 5.168 5.07 12.078 7.597 20.73 7.597 7.993 0 16.059-2.035 24.207-6.105zm68.024-37.336c0-10.637-4.074-15.954-12.219-15.954-8.14 0-12.215 5.571-12.215 16.719 0 11.754 4.125 17.637 12.371 17.637 8.039 0 12.063-6.137 12.063-18.402m32.988-.153c0 13.18-3.988 23.543-11.953 31.071-7.965 7.539-19.102 11.304-33.406 11.304-14.199 0-25.258-3.683-33.172-11.031-7.914-7.359-11.871-17.5-11.871-30.426 0-8.293 1.859-15.496 5.574-21.609 3.711-6.102 9.008-10.785 15.883-14.043 6.867-3.258 14.781-4.891 23.738-4.891 9.266 0 17.293 1.707 24.086 5.121 6.805 3.414 12.02 8.137 15.656 14.2 3.641 6.054 5.465 12.82 5.465 20.304m61.91 40.465v-12.058h-.304c-2.7 3.707-5.129 6.433-7.293 8.16-2.157 1.734-4.602 3.136-7.328 4.203-2.723 1.074-5.887 1.605-9.504 1.605-8.551 0-15.063-2.769-19.543-8.324-4.477-5.547-6.719-13.742-6.719-24.586V310.82h32.519v44.739c0 7.687 2.879 11.527 8.629 11.527 3.16 0 5.539-1.043 7.137-3.133 1.609-2.086 2.406-5.039 2.406-8.851V310.82h32.524v78.176zm106.895-50.308c-1.223-.559-2.879-1.079-4.961-1.528-2.094-.461-3.824-.687-5.195-.687-10.739 0-16.11 6.207-16.11 18.629v33.894h-32.527V310.82h32.527v13.739h.305c1.984-4.938 4.812-8.688 8.473-11.262 3.668-2.567 7.941-3.856 12.832-3.856 1.777 0 3.328.313 4.656.918zm72.914 24.355c0 8.848-3.375 15.707-10.117 20.574-6.75 4.856-16.153 7.293-28.211 7.293-3.52 0-7.86-.363-13.02-1.078-5.168-.711-9.383-1.574-12.64-2.59V364.41c9.625 4.274 17.664 6.418 24.125 6.418 6.367 0 9.55-1.66 9.55-4.965 0-1.379-.738-2.511-2.214-3.394-1.477-.895-5.348-2.379-11.61-4.473-6.922-2.184-11.961-5.086-15.117-8.703-3.152-3.609-4.734-8.32-4.734-14.117 0-8.098 3.222-14.496 9.664-19.207 6.437-4.707 15.488-7.063 27.136-7.063 6.825 0 14.051.996 21.692 2.981v21.91c-3.211-1.371-6.723-2.52-10.543-3.438-3.817-.91-7.024-1.371-9.613-1.371-2.145 0-3.848.356-5.122 1.067-1.269.715-1.91 1.707-1.91 2.98 0 1.477.688 2.672 2.067 3.582 1.371.922 4.117 2.02 8.246 3.293 7.988 2.336 13.715 5.34 17.176 9.004 3.461 3.668 5.195 8.375 5.195 14.129" style="fill:#8242b5;fill-opacity:1;fill-rule:nonzero;stroke:none"/><path d="M984.809 342.121c0-9.012-3.243-13.516-9.696-13.516-2.699 0-4.965 1.239-6.801 3.707-1.832 2.469-2.898 5.735-3.207 9.809zm-19.551 17.024c.558 3.355 2.496 5.996 5.801 7.898 3.312 1.914 7.687 2.863 13.132 2.863 7.59 0 14.758-1.449 21.536-4.347v20.617c-7.891 3.148-17.465 4.73-28.711 4.73-13.645 0-24.25-3.484-31.836-10.457-7.582-6.972-11.379-16.57-11.379-28.785 0-8.402 1.672-15.809 5.004-22.215 3.328-6.414 8.269-11.445 14.812-15.078 6.539-3.641 13.75-5.465 21.641-5.465 8.097 0 15.012 1.586 20.773 4.735 5.75 3.16 10.114 7.589 13.09 13.281 2.981 5.703 4.465 12.371 4.465 20.008v12.215zm-529.231-58.79-1.597-.41 4.191-16.312 1.594.41zm-1.75 6.309-2.933-.754 2.863-4.855 1.418.367z" style="fill:#8242b5;fill-opacity:1;fill-rule:nonzero;stroke:none"/><path d="m494.336 282.391-26.723 15.722-29-14.492 26.727-15.719zm-192.852-2.871v62.062c0 6.98-1.289 12.246-3.855 15.809-2.57 3.558-6.324 5.339-11.266 5.339-4.883 0-8.636-1.894-11.258-5.687-2.621-3.789-3.933-9.195-3.933-16.227V279.52h-.031c.738-4.391 1.55-8.848 2.261-11.93 1.926-8.32 5.52-30.813-6.168-46.395-.379-.336-.988-.804-1.707-1.308-.535-5.547-5.703-9.981-11.988-9.981h-.008l.008 6.914c-1.879.203-3.387.629-4.246.942l-24.789-32.617 15.742 34.882s-10.875 5.797-14.949 14.407c-4.078 8.605-13.047 11.957-13.047 11.957s.906 7.339 10.598 12.504c0 0 3.355-3.805 11.871-4.348 4.105-.262 5.469-.039 5.469-.039.898.043 1.804.109 3.093.012a18.469 18.469 0 0 0 3.215-.52s-6.82 35.578-7.558 42.949c-.723 7.231-1.415 29.496-.899 42.649 0 17.152 4.031 29.996 12.102 38.523 8.066 8.52 19.886 12.789 35.461 12.789 16.695 0 29.05-4.269 37.066-12.789 8.02-8.527 12.027-21.57 12.027-39.133V279.52Z" style="fill:#8242b5;fill-opacity:1;fill-rule:nonzero;stroke:none"/><path d="M276.398 262.406c-5.98 30.262.918 49.832.918 49.832s21.907-82.543-10.324-96.672l.903 3.746s14.578 12.348 8.503 43.094" style="fill:#8242b5;fill-opacity:1;fill-rule:nonzero;stroke:none"/></g></svg>