<?xml version="1.0" encoding="UTF-8" standalone="no"?>
<!-- Created with Inkscape (http://www.inkscape.org/) -->

<svg
   version="1.1"
   id="svg2"
   xml:space="preserve"
   width="272.12534"
   height="272.12534"
   viewBox="0 0 272.12534 272.12534"
   sodipodi:docname="UniCourse_icon.ai"
   xmlns:inkscape="http://www.inkscape.org/namespaces/inkscape"
   xmlns:sodipodi="http://sodipodi.sourceforge.net/DTD/sodipodi-0.dtd"
   xmlns="http://www.w3.org/2000/svg"
   xmlns:svg="http://www.w3.org/2000/svg"><defs
     id="defs6"><clipPath
       clipPathUnits="userSpaceOnUse"
       id="clipPath18"><path
         d="M 0,204.094 H 204.094 V 0 H 0 Z"
         id="path16" /></clipPath></defs><sodipodi:namedview
     id="namedview4"
     pagecolor="#ffffff"
     bordercolor="#666666"
     borderopacity="1.0"
     inkscape:pageshadow="2"
     inkscape:pageopacity="0.0"
     inkscape:pagecheckerboard="0" /><g
     id="g8"
     inkscape:groupmode="layer"
     inkscape:label="UniCourse_icon"
     transform="matrix(1.3333333,0,0,-1.3333333,0,272.12533)"><path
       d="M 0,0 H 204.095 V 203.737 H 0 Z"
       style="fill:#8141b3;fill-opacity:1;fill-rule:nonzero;stroke:none"
       id="path10" /><g
       id="g12"><g
         id="g14"
         clip-path="url(#clipPath18)"><g
           id="g20"
           transform="translate(102.194,144.4052)"><path
             d="m 0,0 c 0.41,-0.53 0.85,-0.79 1.54,-0.79 3.28,0 3.28,-0.02 3.28,3.25 0,0.24 -0.01,0.48 0.01,0.72 0.1,0.97 0.75,1.47 1.69,1.26 4.92,-1.13 8.24,-3.98 9.52,-8.97 0.11,-0.41 0.28,-0.74 0.53,-1.08 3.69,-4.82 5.77,-10.29 6.5,-16.28 0.93,-7.62 -0.22,-14.98 -2.69,-22.2 -2.51,-7.37 -3.48,-14.98 -2.81,-22.75 0.55,-6.39 2.57,-12.29 6.27,-17.57 0.12,-0.16 0.22,-0.34 0.34,-0.54 -5.4,-1.91 -10.32,-4.63 -14.91,-7.94 -3.4,-2.45 -6.57,-5.16 -9.36,-8.29 -0.34,-0.38 -0.54,-0.6 -1,-0.09 -7.44,8.12 -16.7,13.39 -26.92,17.13 -0.87,0.32 -1.04,0.68 -0.82,1.53 2.69,10.75 7.63,20.28 15.03,28.58 5.2,5.83 9.19,12.42 11.27,20.04 0.57,2.09 0.56,2.06 -1.6,1.82 -1.7,-0.19 -3.42,-0.15 -5.13,-0.12 -3.37,0.06 -6.71,-0.07 -9.83,-1.58 -0.68,-0.33 -1.36,-0.67 -1.91,-1.19 -0.49,-0.46 -0.97,-0.54 -1.58,-0.26 -4.08,1.84 -6.97,4.86 -8.84,8.9 -0.35,0.75 -0.08,1.18 0.65,1.39 4.08,1.2 6.89,3.99 9.04,7.48 3.46,5.62 8.03,10.11 13.59,13.61 0.89,0.56 0.95,0.97 0.51,1.9 -4.04,8.49 -12.19,26.7 -12.19,26.7 0,0 15.87,-19.58 19.82,-24.66"
             style="fill:#fefefe;fill-opacity:1;fill-rule:nonzero;stroke:none"
             id="path22" /></g><g
           id="g24"
           transform="translate(57.094,60.1751)"><path
             d="m 0,0 c 13.61,-0.11 25.48,-4.92 36.03,-13.32 2.87,-2.29 5.55,-4.78 7.91,-7.6 0.44,-0.52 0.61,-0.4 0.97,0.01 5.43,6.16 11.83,11.08 19.17,14.74 14.16,7.06 28.72,7.68 43.61,2.58 2.01,-0.69 3.97,-1.48 5.91,-2.34 0.64,-0.29 0.89,-0.54 0.53,-1.28 -0.67,-1.35 -1.24,-2.74 -1.81,-4.13 -0.27,-0.67 -0.6,-0.7 -1.24,-0.44 -5.54,2.27 -11.28,3.8 -17.24,4.33 -8.66,0.77 -17.07,-0.4 -25.13,-3.71 -9.15,-3.75 -16.98,-9.38 -23.5,-16.81 -0.58,-0.66 -0.85,-0.8 -1.52,-0.05 -8.95,10.15 -19.87,17.09 -33.19,19.9 -10.23,2.16 -20.25,1.04 -30.05,-2.45 -0.9,-0.32 -1.83,-0.59 -2.67,-1.04 -0.81,-0.43 -1.14,-0.14 -1.43,0.57 -0.57,1.39 -1.15,2.78 -1.78,4.14 -0.32,0.68 -0.18,0.98 0.52,1.28 3.65,1.57 7.36,2.93 11.22,3.88 C -9.2,-0.62 -4.64,0.02 0,0"
             style="fill:#fefefe;fill-opacity:1;fill-rule:nonzero;stroke:none"
             id="path26" /></g><g
           id="g28"
           transform="translate(125.534,64.8451)"><path
             d="m 0,0 c -2.28,4.66 -3.41,9.31 -3.75,14.16 -0.57,8.17 0.86,16.04 3.42,23.79 2.91,8.83 3.5,17.81 0.69,26.83 -1.04,3.32 -2.6,6.39 -4.69,9.18 -0.68,0.91 -0.64,2.14 -1.2,3.13 -0.21,0.37 0.16,0.45 0.46,0.38 0.71,-0.17 1.34,-0.5 1.91,-0.95 3.1,-2.39 4.85,-5.7 6.19,-9.26 C 4.72,62.81 5.48,58.17 5.9,53.45 6.51,46.61 6.27,39.77 5.64,32.95 4.7,22.79 2.89,12.77 0.64,2.83 0.46,1.99 0.27,1.14 0,0"
             style="fill:#fefefe;fill-opacity:1;fill-rule:nonzero;stroke:none"
             id="path30" /></g></g></g></g></svg>
