<svg xml:space="preserve" width="272.125" height="272.125" xmlns="http://www.w3.org/2000/svg"><defs><clipPath clipPathUnits="userSpaceOnUse" id="a"><path d="M0 204.094h204.094V0H0Z"/></clipPath></defs><path d="M0 0h204.095v203.737H0Z" style="fill:#8141b3;fill-opacity:1;fill-rule:nonzero;stroke:none" transform="matrix(1.33333 0 0 -1.33333 0 272.125)"/><g clip-path="url(#a)" transform="matrix(1.33333 0 0 -1.33333 0 272.125)"><path d="M0 0c.41-.53.85-.79 1.54-.79 3.28 0 3.28-.02 3.28 3.25 0 .24-.01.48.01.72.1.97.75 1.47 1.69 1.26 4.92-1.13 8.24-3.98 9.52-8.97.11-.41.28-.74.53-1.08 3.69-4.82 5.77-10.29 6.5-16.28.93-7.62-.22-14.98-2.69-22.2-2.51-7.37-3.48-14.98-2.81-22.75.55-6.39 2.57-12.29 6.27-17.57.12-.16.22-.34.34-.54-5.4-1.91-10.32-4.63-14.91-7.94-3.4-2.45-6.57-5.16-9.36-8.29-.34-.38-.54-.6-1-.09-7.44 8.12-16.7 13.39-26.92 17.13-.87.32-1.04.68-.82 1.53 2.69 10.75 7.63 20.28 15.03 28.58 5.2 5.83 9.19 12.42 11.27 20.04.57 2.09.56 2.06-1.6 1.82-1.7-.19-3.42-.15-5.13-.12-3.37.06-6.71-.07-9.83-1.58-.68-.33-1.36-.67-1.91-1.19-.49-.46-.97-.54-1.58-.26-4.08 1.84-6.97 4.86-8.84 8.9-.35.75-.08 1.18.65 1.39 4.08 1.2 6.89 3.99 9.04 7.48 3.46 5.62 8.03 10.11 13.59 13.61.89.56.95.97.51 1.9-4.04 8.49-12.19 26.7-12.19 26.7S-3.95 5.08 0 0" style="fill:#fefefe;fill-opacity:1;fill-rule:nonzero;stroke:none" transform="translate(102.194 144.405)"/><path d="M0 0c13.61-.11 25.48-4.92 36.03-13.32 2.87-2.29 5.55-4.78 7.91-7.6.44-.52.61-.4.97.01A62.545 62.545 0 0 0 64.08-6.17C78.24.89 92.8 1.51 107.69-3.59c2.01-.69 3.97-1.48 5.91-2.34.64-.29.89-.54.53-1.28-.67-1.35-1.24-2.74-1.81-4.13-.27-.67-.6-.7-1.24-.44-5.54 2.27-11.28 3.8-17.24 4.33-8.66.77-17.07-.4-25.13-3.71-9.15-3.75-16.98-9.38-23.5-16.81-.58-.66-.85-.8-1.52-.05-8.95 10.15-19.87 17.09-33.19 19.9C.27-5.96-9.75-7.08-19.55-10.57c-.9-.32-1.83-.59-2.67-1.04-.81-.43-1.14-.14-1.43.57-.57 1.39-1.15 2.78-1.78 4.14-.32.68-.18.98.52 1.28 3.65 1.57 7.36 2.93 11.22 3.88C-9.2-.62-4.64.02 0 0" style="fill:#fefefe;fill-opacity:1;fill-rule:nonzero;stroke:none" transform="translate(57.094 60.175)"/><path d="M0 0c-2.28 4.66-3.41 9.31-3.75 14.16-.57 8.17.86 16.04 3.42 23.79 2.91 8.83 3.5 17.81.69 26.83-1.04 3.32-2.6 6.39-4.69 9.18-.68.91-.64 2.14-1.2 3.13-.21.37.16.45.46.38.71-.17 1.34-.5 1.91-.95 3.1-2.39 4.85-5.7 6.19-9.26 1.69-4.45 2.45-9.09 2.87-13.81.61-6.84.37-13.68-.26-20.5-.94-10.16-2.75-20.18-5-30.12C.46 1.99.27 1.14 0 0" style="fill:#fefefe;fill-opacity:1;fill-rule:nonzero;stroke:none" transform="translate(125.534 64.845)"/></g></svg>