<svg width="272.125" height="272.125" viewBox="0 0 204.094 204.094" version="1.2" xmlns="http://www.w3.org/2000/svg"><defs><clipPath id="a"><path d="M0 0h204.094v204.094H0Zm0 0"/></clipPath></defs><g clip-path="url(#a)"><path style="stroke:none;fill-rule:nonzero;fill:#ff8c00;fill-opacity:1" d="M0 204.07h204.047V0H0Zm0 0"/></g><path style="stroke:none;fill-rule:nonzero;fill:#fff;fill-opacity:1" d="M115.68 80.574c.636 0 .636-.992 0-.992-.64 0-.64.992 0 .992"/><path style="stroke:none;fill-rule:nonzero;fill:#000;fill-opacity:1" d="M102.195 59.688c.41.53.848.792 1.54.792 3.28 0 3.28.02 3.28-3.25 0-.242-.011-.48.008-.722.102-.969.75-1.469 1.692-1.258 4.918 1.129 8.238 3.98 9.52 8.969.109.41.28.738.53 1.078 3.688 4.82 5.77 10.293 6.5 16.281.93 7.621-.222 14.98-2.69 22.2-2.513 7.37-3.481 14.98-2.81 22.75.547 6.39 2.57 12.292 6.27 17.57.117.16.219.34.34.543-5.402 1.906-10.32 4.629-14.91 7.937-3.403 2.45-6.57 5.16-9.36 8.29-.34.382-.543.6-1 .089-7.44-8.117-16.703-13.387-26.921-17.129-.871-.32-1.04-.68-.82-1.531 2.69-10.75 7.628-20.277 15.03-28.578 5.2-5.828 9.192-12.422 11.27-20.04.57-2.09.559-2.062-1.602-1.82-1.699.188-3.417.149-5.128.121-3.371-.062-6.711.067-9.829 1.579-.68.332-1.363.671-1.91 1.191-.492.457-.972.54-1.582.258-4.078-1.84-6.968-4.86-8.84-8.899-.347-.75-.078-1.18.653-1.39 4.078-1.2 6.886-3.989 9.039-7.48 3.46-5.622 8.027-10.11 13.59-13.61.89-.559.949-.969.507-1.899-4.039-8.492-12.187-26.703-12.187-26.703s15.867 19.582 19.82 24.66"/><path style="stroke:none;fill-rule:nonzero;fill:#000;fill-opacity:1" d="M57.094 143.918c13.61.11 25.48 4.922 36.031 13.32 2.867 2.29 5.55 4.782 7.91 7.602.438.52.61.398.969-.012a62.546 62.546 0 0 1 19.172-14.738c14.16-7.063 28.719-7.68 43.61-2.582a74.601 74.601 0 0 1 5.91 2.34c.64.293.89.543.527 1.28-.668 1.352-1.239 2.74-1.809 4.13-.27.672-.601.699-1.238.441-5.543-2.27-11.281-3.8-17.242-4.332-8.66-.77-17.07.403-25.13 3.711-9.152 3.75-16.98 9.379-23.5 16.813-.581.66-.85.797-1.519.047-8.95-10.149-19.87-17.09-33.191-19.899-10.23-2.16-20.25-1.039-30.051 2.45-.898.32-1.828.59-2.668 1.038-.813.43-1.14.141-1.43-.57a104.632 104.632 0 0 0-1.78-4.137c-.321-.68-.18-.98.519-1.28 3.652-1.571 7.359-2.93 11.218-3.88 4.493-1.12 9.051-1.762 13.692-1.742m68.441-4.668c-2.281-4.66-3.41-9.313-3.75-14.16-.57-8.172.86-16.04 3.418-23.79 2.91-8.831 3.5-17.812.692-26.831a30.308 30.308 0 0 0-4.692-9.18c-.68-.91-.64-2.14-1.2-3.129-.21-.37.161-.453.462-.383.71.172 1.34.5 1.91.953 3.098 2.387 4.848 5.7 6.188 9.258 1.69 4.45 2.453 9.09 2.87 13.813.61 6.84.372 13.68-.257 20.5-.942 10.156-2.75 20.18-5 30.117-.184.84-.371 1.691-.64 2.832"/><path style="stroke:none;fill-rule:nonzero;fill:#fff;fill-opacity:1" d="M94.91 66.852s-5.48 3.468-8.566 7.109c-1.766 2.078-3.219 4.402-4.95 6.508-1.734 2.105-3.812 4.035-6.37 4.976.437.09.874.184 1.312.274a37.095 37.095 0 0 0-1.242 2.066c-.102.18-.2.371-.196.574.008.446.543.73.985.66.441-.074.8-.386 1.137-.68 2.046-1.769 4.316-3.378 6.914-4.136 1.59-.46 3.257-.594 4.902-.789 3.535-.426 7.172-1.242 9.965-3.45 3.484-2.75 5.156-7.706 3.761-11.921-.269-.82-.667-1.633-1.347-2.164-.899-.7-2.153-.79-3.25-.512-1.102.281-2.086.887-3.055 1.485"/><path style="stroke:none;fill-rule:nonzero;fill:#fff;fill-opacity:1" d="M94.824 66.703c-2.101 1.293-4.094 2.813-5.941 4.442a29.135 29.135 0 0 0-3.98 4.316c-1.391 1.832-2.66 3.762-4.176 5.496-1.594 1.82-3.47 3.434-5.754 4.297-.168.062-.207.336 0 .379.437.094.87.183 1.308.277l-.117-.289c-.281.442-.547.89-.805 1.344-.218.387-.613.879-.629 1.347-.015.47.387.81.829.88.734.117 1.324-.5 1.828-.938a26.69 26.69 0 0 1 2.43-1.863c1.73-1.16 3.605-1.993 5.66-2.364 2.007-.363 4.058-.46 6.066-.843 3.469-.664 6.95-2.032 9.2-4.88 1.964-2.48 2.905-5.777 2.382-8.91-.285-1.69-.977-3.632-2.758-4.21-1.988-.649-3.93.46-5.562 1.488-.23.14-.02.504.21.363 1.477-.894 3.16-1.926 4.962-1.492 1.734.418 2.39 2.215 2.695 3.789.547 2.871-.25 5.922-1.926 8.285-1.871 2.64-4.816 4.113-7.89 4.895-3.34.847-6.958.64-10.176 1.941-1.618.652-3.09 1.606-4.457 2.676-.34.266-.672.535-1 .808-.391.333-.817.817-1.348.891-.27.035-.59.004-.746-.285-.188-.336.3-1.008.473-1.297.289-.484.597-.953.902-1.426.066-.101.004-.261-.117-.289-.438-.094-.875-.183-1.313-.277v.379c3.98-1.504 6.543-5.008 8.95-8.328 1.273-1.758 2.566-3.477 4.14-4.977 1.363-1.305 2.84-2.488 4.363-3.601A63.456 63.456 0 0 1 94.997 67c.187-.117.019-.414-.173-.297"/><path style="stroke:none;fill-rule:nonzero;fill:#fff;fill-opacity:1" d="M77.145 91.102c.855.78 2.222.812 3.43.691 3.62-.367 7.058-1.664 10.655-2.184 2.973-.43 6.024-.328 8.965-.914 2.938-.59 5.907-2.07 7.055-4.61.7-1.542.129-3.25.176-4.917.066-2.356-.922-3.64-2.117-4.613-1.246 1.125-1.297 2.937-2.106 4.355-1.05 1.852-3.262 2.86-5.332 3.746-5.058 2.164-10.16 4.324-15.558 5.625-.95.23-1.91.434-2.817.77-.71.265-1.387.61-2 1.027-.2.129-.394.281-.476.488-.082.211.007.489.242.555"/><path style="stroke:none;fill-rule:nonzero;fill:#fff;fill-opacity:1" d="M77.055 91.191c.949.813 2.23.864 3.422.758 1.585-.136 3.144-.472 4.687-.844 1.578-.378 3.145-.8 4.738-1.109 1.692-.324 3.399-.46 5.114-.574 2.964-.195 6.015-.387 8.718-1.746 2.243-1.121 4.106-3.04 4.043-5.68-.02-.871-.168-1.738-.168-2.61-.004-.741-.015-1.468-.222-2.187-.332-1.129-1.047-2.039-1.946-2.773-.078-.063-.183-.078-.261 0-1.496 1.453-1.395 3.777-2.805 5.304-1.54 1.66-3.871 2.45-5.906 3.313-4.848 2.059-9.735 3.98-14.867 5.203-1.34.317-2.645.703-3.829 1.422-.476.289-1.562 1.144-.605 1.613.215.102.402-.215.187-.324-.636-.324 1.133-1.246 1.305-1.332a10.61 10.61 0 0 1 1.848-.691c1.148-.32 2.316-.559 3.469-.875 2.32-.637 4.601-1.422 6.847-2.286 2.223-.855 4.414-1.78 6.602-2.718 1.758-.75 3.644-1.489 5.023-2.868.68-.68 1.117-1.492 1.438-2.394.39-1.113.66-2.266 1.554-3.106h-.261c.797.668 1.46 1.446 1.797 2.45.418 1.258.27 2.687.382 3.996.125 1.445 0 2.73-.89 3.93-.746 1.007-1.793 1.761-2.906 2.32-2.536 1.281-5.403 1.5-8.192 1.687-2.898.192-5.672.586-8.492 1.282-1.57.386-3.145.793-4.742 1.07-1.532.27-3.59.68-4.903-.41-.125-.102-.304.074-.18.18"/><path style="stroke:none;fill-rule:nonzero;fill:#000;fill-opacity:1" d="M95.52 77.77c0-2.079-1.06-3.766-2.364-3.766-1.3 0-2.36 1.687-2.36 3.766 0 .332.036.644.083.949h4.555c.05-.305.086-.617.086-.95"/><path style="stroke:none;fill-rule:nonzero;fill:#fff;fill-opacity:1" d="M105.102 67.48a5.122 5.122 0 0 0 3.68.266 9.949 9.949 0 0 1-1.544 5.844c-1.254.137-2.36-1.004-2.644-2.23-.285-1.231.035-2.508.351-3.731"/><path style="stroke:none;fill-rule:nonzero;fill:#fff;fill-opacity:1" d="M105.035 67.594c1.172.547 2.54.672 3.785.297-.062-.047-.125-.098-.191-.145.098 2.027-.422 4.059-1.531 5.762.047-.024.093-.051.14-.078-1.133.078-2.05-.805-2.402-1.825-.215-.617-.23-1.296-.16-1.945.074-.683.285-1.347.37-2.031.016-.125-.163-.125-.202-.027-.387.964-.594 2.156-.496 3.195.074.836.394 1.621.996 2.215.27.27.594.484.949.617.25.094.797.254 1.043.09.14-.094.254-.403.336-.551.125-.23.246-.469.355-.707.192-.434.36-.875.493-1.328.328-1.094.464-2.242.414-3.387-.008-.094-.094-.172-.192-.144-1.195.355-2.437.293-3.574-.235-.152-.07-.285.156-.133.227m.774 61.129c-.602.695-1.68.945-2.57.601-.895-.347-1.313-1.5-1.555-2.203.418 1.348-.25 2.727-.91 3.93-.66 1.203-1.356 2.554-.997 3.914.184.691.621 1.297 1.047 1.879.426.578.953 1.215 1.66 1.242.48.023.91-.254 1.274-.55.363-.294.719-.626 1.176-.755.457-.129 1.058.031 1.238.477-.176-1.567-.344-3.176.05-4.68.173-.664.454-1.3.508-1.988.055-.688-.19-1.473-.808-1.824m-.004 10.902c-.176-.45-1.008-.566-1.426-.328-.418.242-.707.656-1.105.93-.785.539-1.899.43-2.684-.106-.785-.539-1.273-1.43-1.516-2.351a23.735 23.735 0 0 0-2.011 5.394c-.145.61-.266 1.262-.07 1.86.199.593.68 1.046 1.183 1.413.563.41 1.262.766 1.934.575.89-.258 1.254-1.32 1.976-1.907.813-.656 2.121-.582 2.856.165-.668-1.833.101-3.848.863-5.645m-.52 8.129c-.457.414-1.043-.254-1.648-.145-.453.082-.77.477-1.074.82-.371.423-.781.813-1.266 1.09-.976.56-2.23.59-3.234.086A3.485 3.485 0 0 1 96.32 147c-.941.895-1.324 2.297-1.101 3.574.226 1.278 1.023 2.418 2.07 3.184.52.375 1.113.672 1.746.781 1.336.234 2.66-.363 3.914-.879 1.254-.52 2.684-.969 3.938-.453a8.259 8.259 0 0 1-1.434-5.371Zm5.012-81.551a11.733 11.733 0 0 1 6.371 3.809c-1.594.945-3.187 1.89-4.777 2.836-.125.074-.258.148-.402.144-.172-.008-.313-.129-.442-.242l-1.02-.918c-.124-.113-.253-.227-.324-.379-.183-.39.067-.836.25-1.223a4.256 4.256 0 0 0-.039-3.664c.145-.16.336-.273.547-.328m2.168 7.934c.278.394.875.433 1.32.246.45-.191.793-.55 1.168-.86a5.86 5.86 0 0 1 2.32-1.148c.524-.125 1.079-.172 1.587-.012.957.297 1.57 1.29 1.71 2.286.145.992-.097 1.996-.347 2.968-.055.215-.152.473-.375.504-.2.028-.355-.148-.5-.289-.75-.715-2.094-.656-2.777.125-.344.399-.543.945-1 1.203-.637.352-1.418-.031-2.043-.406.484-1.578.047-3.402-1.098-4.59m1.973 13.071c1.16 1.398 3.402 1.933 4.93.953a9.729 9.729 0 0 1-1.618 6.582c.38-.63-.426-1.403-1.16-1.383-.738.02-1.383.469-2.09.676-.707.207-1.672.015-1.836-.7-.117-.488.203-.96.469-1.386a8.648 8.648 0 0 0 1.309-4.743m-11.512 32.633c.004 0 .004-.007 0-.007s-.004.007 0 .007"/><path style="stroke:none;fill-rule:nonzero;fill:#fff;fill-opacity:1" d="M103.438 119.395c.277.832 1.433 1.07 2.28.851.852-.215 1.86-.508 2.516.07-.035 2.422-1.015 7.348-1.078 7.157-.062-.188-.097-.707-.445-.735-.352-.023-.664.207-.926.438-.262.234-.535.492-.883.547-.425.062-.828-.203-1.172-.47a16.453 16.453 0 0 1-1.69-1.523 4.78 4.78 0 0 0 1.292-3.609c-.074-.93-.398-1.945.106-2.726m4.003-9.657c0 .086.395 1.219 1.032 1.278.636.054 1.254-.223 1.89-.297.637-.07 1.422.18 1.547.808.078.383-.12.766-.308 1.11a29.617 29.617 0 0 0-2.415 5.941c.106-.5-.457-.926-.964-.918-.512.008-.97.29-1.434.496-.465.207-1.035.34-1.465.067-.531-.336-.566-1.121-.316-1.696.254-.574.715-1.027 1.039-1.562.469-.785.625-1.711.77-2.613.136-.844.624-2.614.624-2.614m2.559-8.367c-.195.723.477.973 1.203.813.73-.157 1.32-.692 2.027-.93.707-.238 1.72.027 1.782.773.02.223-.055.446-.13.657l-2.417 6.945c.129-.387.262-.79.215-1.195-.047-.407-.325-.817-.73-.871-.716-.106-1.102.824-1.735 1.18a1.247 1.247 0 0 1-1.371-.13c-.43-.367-.555-1-.465-1.558.086-.563.348-1.078.574-1.598.563-1.289 1.02-4.062 1.031-4.074m2.368-6.289c.054.18.89 1.074 1.652 1.008.766-.067 1.504-.395 2.266-.313.332.031.703.195.75.488.023.137-.032.274-.09.407a847.88 847.88 0 0 1-1.403 3.324c-.414-.414-1.129-.582-1.726-.399-.473.145-.852.48-1.328.625-.782.239-1.746-.175-2.012-.863 1.078-1.164 1.746-2.617 1.894-4.113m1.708-14.59c.378.695 1.3 1.125 2 .762.71-.364.914-1.309 1.55-1.79.551-.417 1.367-.386 1.942 0 .574.387.906 1.075.941 1.766.027.52-.094 1.031-.14 1.551-.075.895.078 1.79.14 2.684.02.265.027.543-.078.785-.121.281-.379.48-.64.64-.7.426-1.602.653-2.333.286-.75-.372-1.226-1.301-2.062-1.36-.192-.012-.41.016-.555-.113-.133-.125-.129-.332-.121-.512.086-1.562.094-3.21-.672-4.574"/><path style="stroke:none;fill-rule:nonzero;fill:#9400d3;fill-opacity:1" d="M101.172 54.46 81.594 33.04l3.023 28.858c2.32-1.441 5.051-2.894 8.043-4.238 2.992-1.347 5.895-2.422 8.512-3.2m0 0 1.402 1.536-17.742 7.973-.215-2.07c-5.273 3.277-8.426 6.492-7.648 8.218 1.113 2.48 9.949.93 19.73-3.469 9.785-4.394 16.813-9.972 15.696-12.457-.778-1.722-5.274-1.5-11.223.27"/><path style="stroke:none;fill-rule:nonzero;fill:#ff8c00;fill-opacity:1" d="m102.574 55.996-1.402-1.535c-2.617.777-5.52 1.852-8.512 3.2-2.992 1.343-5.722 2.796-8.043 4.237l.215 2.07Zm0 0"/></svg>