<svg width="272.125" height="272.125" viewBox="0 0 204.094 204.094" version="1.2" xmlns="http://www.w3.org/2000/svg"><path style="stroke:none;fill-rule:nonzero;fill:#fefefe;fill-opacity:1" d="M102.195 59.688c.41.53.848.792 1.54.792 3.28 0 3.28.02 3.28-3.25 0-.242-.011-.48.008-.722.102-.969.75-1.469 1.692-1.258 4.918 1.129 8.238 3.98 9.52 8.969.109.41.28.738.53 1.078 3.688 4.82 5.77 10.293 6.5 16.281.93 7.621-.222 14.98-2.69 22.2-2.513 7.37-3.481 14.98-2.81 22.75.547 6.39 2.57 12.292 6.27 17.57.117.16.219.34.34.543-5.402 1.906-10.32 4.629-14.91 7.937-3.403 2.45-6.57 5.16-9.36 8.29-.34.382-.543.6-1 .089-7.44-8.117-16.703-13.387-26.921-17.129-.871-.32-1.04-.68-.82-1.531 2.69-10.75 7.628-20.277 15.03-28.578 5.2-5.828 9.192-12.422 11.27-20.04.57-2.09.559-2.062-1.602-1.82-1.699.188-3.417.149-5.128.121-3.371-.062-6.711.067-9.829 1.579-.68.332-1.363.671-1.91 1.191-.492.457-.972.54-1.582.258-4.078-1.84-6.968-4.86-8.84-8.899-.347-.75-.078-1.18.653-1.39 4.078-1.2 6.886-3.989 9.039-7.48 3.46-5.622 8.027-10.11 13.59-13.61.89-.559.949-.969.507-1.899-4.039-8.492-12.187-26.703-12.187-26.703s15.867 19.582 19.82 24.66"/><path style="stroke:none;fill-rule:nonzero;fill:#fefefe;fill-opacity:1" d="M57.094 143.918c13.61.11 25.48 4.922 36.031 13.32 2.867 2.29 5.55 4.782 7.91 7.602.438.52.61.398.969-.012a62.546 62.546 0 0 1 19.172-14.738c14.16-7.063 28.719-7.68 43.61-2.582a74.601 74.601 0 0 1 5.91 2.34c.64.293.89.543.527 1.28-.668 1.352-1.239 2.74-1.809 4.13-.27.672-.601.699-1.238.441-5.543-2.27-11.281-3.8-17.242-4.332-8.66-.77-17.07.403-25.13 3.711-9.152 3.75-16.98 9.379-23.5 16.813-.581.66-.85.797-1.519.047-8.95-10.149-19.87-17.09-33.191-19.899-10.23-2.16-20.25-1.039-30.051 2.45-.898.32-1.828.59-2.668 1.038-.813.43-1.14.141-1.43-.57a104.632 104.632 0 0 0-1.78-4.137c-.321-.68-.18-.98.519-1.28 3.652-1.571 7.359-2.93 11.218-3.88 4.493-1.12 9.051-1.762 13.692-1.742m68.441-4.668c-2.281-4.66-3.41-9.313-3.75-14.16-.57-8.172.86-16.04 3.418-23.79 2.91-8.831 3.5-17.812.692-26.831a30.308 30.308 0 0 0-4.692-9.18c-.68-.91-.64-2.14-1.2-3.129-.21-.37.161-.453.462-.383.71.172 1.34.5 1.91.953 3.098 2.387 4.848 5.7 6.188 9.258 1.69 4.45 2.453 9.09 2.87 13.813.61 6.84.372 13.68-.257 20.5-.942 10.156-2.75 20.18-5 30.117-.184.84-.371 1.691-.64 2.832"/></svg>