<svg xml:space="preserve" width="853.333" height="640" xmlns="http://www.w3.org/2000/svg"><defs><clipPath clipPathUnits="userSpaceOnUse" id="a"><path d="M0 480h640V0H0Z"/></clipPath></defs><g clip-path="url(#a)" transform="matrix(1.33333 0 0 -1.33333 0 640)"><path d="M0 0a382.923 382.923 0 0 1-85.184 11.485c-41.287.884-76.053-5.068-101.595-11.485v213.791a416.768 416.768 0 0 0 93.644 10.602A416.719 416.719 0 0 0 0 213.791z" style="fill:none;stroke:#ba9bc9;stroke-width:3;stroke-linecap:butt;stroke-linejoin:miter;stroke-miterlimit:10;stroke-dasharray:none;stroke-opacity:1" transform="translate(320 60.845)"/><path d="M0 0a382.923 382.923 0 0 1-85.184 11.485c-41.287.884-76.053-5.068-101.595-11.485v213.791a416.768 416.768 0 0 0 93.644 10.602A416.719 416.719 0 0 0 0 213.791z" style="fill:none;stroke:#ba9bc9;stroke-width:3;stroke-linecap:butt;stroke-linejoin:miter;stroke-miterlimit:10;stroke-dasharray:none;stroke-opacity:1" transform="translate(506.78 60.845)"/><path d="M0 0a417.034 417.034 0 0 1-44.172-6.026v-45.276A417.555 417.555 0 0 0 0-45.276z" style="fill:#ba9bc9;fill-opacity:1;fill-rule:nonzero;stroke:none" transform="translate(192.411 273.072)"/><path d="M0 0a415.86 415.86 0 0 1-26.503-.832v-9.953c8.484.536 17.325.837 26.503.832a416.592 416.592 0 0 0 77.742-7.371v9.953A416.507 416.507 0 0 1 0 0" style="fill:#ba9bc9;fill-opacity:1;fill-rule:nonzero;stroke:none" transform="translate(227.936 274.699)"/><path d="M0 0a415.86 415.86 0 0 1-26.503-.832v-9.953c8.484.536 17.325.837 26.503.832a416.676 416.676 0 0 0 77.742-7.371v9.953A416.507 416.507 0 0 1 0 0" style="fill:#ba9bc9;fill-opacity:1;fill-rule:nonzero;stroke:none" transform="translate(227.936 256.473)"/><path d="M0 0a415.86 415.86 0 0 1-26.503-.832v-9.953c8.484.536 17.325.837 26.503.832a416.592 416.592 0 0 0 77.742-7.371v9.953A416.507 416.507 0 0 1 0 0" style="fill:#ba9bc9;fill-opacity:1;fill-rule:nonzero;stroke:none" transform="translate(227.936 238.247)"/><path d="M0 0c-.531 0-1.007.289-1.298.733a11.632 11.632 0 0 1-9.754 5.285A11.633 11.633 0 0 1-20.807.733C-21.098.289-21.574 0-22.105 0c-1.19 0-1.938 1.321-1.292 2.321 2.614 4.051 7.165 6.734 12.345 6.734 5.179 0 9.73-2.683 12.344-6.734C1.938 1.321 1.19 0 0 0m-20.715 19.877a2.209 2.209 0 1 0 0-4.418 2.209 2.209 0 0 0 0 4.418m19.325 0a2.209 2.209 0 1 0 0-4.418 2.209 2.209 0 0 0 0 4.418m-9.662 17.235c-13.793 0-24.974-11.181-24.974-24.974 0-13.792 11.181-24.973 24.974-24.973 13.792 0 24.973 11.181 24.973 24.973 0 13.793-11.181 24.974-24.973 24.974" style="fill:#ba9bc9;fill-opacity:1;fill-rule:nonzero;stroke:none" transform="translate(205.672 166.537)"/><path d="m0 0-3.523-3.399-3.4 3.523C-12.395 5.796-21.429 5.957-27.1.485c-5.672-5.472-5.834-14.505-.362-20.177l3.4-3.524 9.908-10.269 9.908-10.269 10.269 9.908 10.27 9.908 3.523 3.399c5.672 5.472 5.833 14.506.361 20.178C14.705 5.31 5.672 5.472 0 0" style="fill:#ba9bc9;fill-opacity:1;fill-rule:nonzero;stroke:none" transform="translate(268.607 149.313)"/><path d="m0 0-28.437 14.144.282-28.364c.036-2.741 3.157-4.293 5.365-2.668z" style="fill:#ba9bc9;fill-opacity:1;fill-rule:nonzero;stroke:none" transform="translate(499.156 119.952)"/><path d="m0 0-21.993 10.939a3.598 3.598 0 0 1-4.824-1.619l-21.52-43.264-17.549-35.283-1.743-3.505 28.436-14.144 1.744 3.505L-19.9-48.089 1.619-4.824A3.598 3.598 0 0 1 0 0" style="fill:#ba9bc9;fill-opacity:1;fill-rule:nonzero;stroke:none" transform="translate(540.842 211.843)"/><path d="M0 0a416.03 416.03 0 0 1-42.405 2.201A416.724 416.724 0 0 1-136.049-8.4v-8.662A416.724 416.724 0 0 0-42.405-6.461 416.03 416.03 0 0 0 0-8.662Z" style="fill:#ba9bc9;fill-opacity:1;fill-rule:nonzero;stroke:none" transform="translate(466.865 113.842)"/><path d="M0 0a416.472 416.472 0 0 1-168.34-3.798v-8.663A416.659 416.659 0 0 0-74.696-1.859 416.564 416.564 0 0 0 0-8.662Z" style="fill:#ba9bc9;fill-opacity:1;fill-rule:nonzero;stroke:none" transform="translate(499.156 93.29)"/><path d="M0 0c-15.024-6.703-28.349-19.452-38.78-36.393a495.064 495.064 0 0 0 63.143-10.273 495.078 495.078 0 0 0 63.144 10.271C77.077-19.452 63.751-6.704 48.727 0c15.026 8.507 25.174 24.627 25.174 43.127 0 27.359-22.179 49.538-49.538 49.538-27.359 0-49.538-22.179-49.538-49.538C-25.175 24.627-15.026 8.507 0 0" style="fill:#ba9bc9;fill-opacity:1;fill-rule:nonzero;stroke:none" transform="translate(295.636 328.05)"/></g></svg>