<svg width="640pt" height="640" viewBox="0 0 640 480" version="1.2" xmlns="http://www.w3.org/2000/svg"><path style="stroke:none;fill-rule:nonzero;fill:#ba9bc9;fill-opacity:1" d="M427.168 316.715c-27.984 0-50.668 22.683-50.668 50.668 0 15.844 7.273 29.984 18.656 39.273 4.547-12.96 12.383-22.84 21.809-27.047-6.293-3.562-10.543-10.312-10.543-18.062 0-11.457 9.289-20.746 20.746-20.746 11.46 0 20.75 9.289 20.75 20.746 0 7.75-4.25 14.5-10.547 18.062 9.426 4.207 17.262 14.086 21.809 27.047 11.382-9.289 18.656-23.43 18.656-39.273 0-27.985-22.684-50.668-50.668-50.668M224.902 111.074c5.668-3.21 9.493-9.293 9.493-16.27 0-10.32-8.364-18.687-18.684-18.687s-18.688 8.367-18.688 18.688c0 6.976 3.829 13.058 9.497 16.27-8.973 4.003-16.344 13.718-20.31 26.39 8.602 5.222 18.7 8.23 29.5 8.23 10.798 0 20.895-3.007 29.5-8.23-3.964-12.672-11.335-22.387-20.308-26.39m-43.23 271.437c4.144-2.348 6.945-6.793 6.945-11.899 0-7.547-6.117-13.668-13.668-13.668-7.547 0-13.668 6.121-13.668 13.668 0 5.106 2.801 9.551 6.946 11.899-6.563 2.93-11.954 10.035-14.856 19.304a41.449 41.449 0 0 0 21.578 6.02 41.45 41.45 0 0 0 21.578-6.02c-2.902-9.27-8.293-16.375-14.855-19.304M138.86 142.484c-20.696 0-37.477 16.778-37.477 37.477 0 11.715 5.379 22.176 13.8 29.047 3.364-9.586 9.16-16.895 16.13-20.004-4.657-2.637-7.797-7.629-7.797-13.36 0-8.476 6.87-15.347 15.343-15.347 8.477 0 15.348 6.871 15.348 15.348 0 5.73-3.144 10.722-7.797 13.359 6.969 3.11 12.766 10.418 16.13 20.004 8.417-6.871 13.796-17.332 13.796-29.047 0-20.7-16.777-37.477-37.477-37.477m314.629-33.89c4.149-2.348 6.946-6.793 6.946-11.899 0-7.547-6.118-13.668-13.668-13.668-7.547 0-13.668 6.121-13.668 13.668 0 5.106 2.8 9.551 6.949 11.899-6.567 2.93-11.957 10.035-14.856 19.304a41.435 41.435 0 0 0 21.575 6.02c7.898 0 15.285-2.2 21.578-6.02-2.899-9.27-8.29-16.375-14.856-19.304M124.004 283.117c4.148-2.347 6.95-6.797 6.95-11.898 0-7.551-6.122-13.668-13.669-13.668-7.55 0-13.668 6.117-13.668 13.668 0 5.101 2.797 9.55 6.945 11.898-6.566 2.93-11.957 10.035-14.855 19.301a41.449 41.449 0 0 0 21.578 6.02c7.899 0 15.281-2.2 21.574-6.02-2.898-9.266-8.289-16.371-14.855-19.3m129.184 19.202c-20.7 0-37.477 16.778-37.477 37.477 0 11.715 5.379 22.176 13.797 29.047 3.363-9.586 9.16-16.895 16.129-20.004-4.653-2.637-7.797-7.63-7.797-13.363 0-8.473 6.87-15.344 15.347-15.344s15.348 6.87 15.348 15.344c0 5.734-3.144 10.726-7.8 13.363 6.972 3.11 12.765 10.418 16.128 20.004 8.422-6.871 13.801-17.332 13.801-29.047 0-20.7-16.781-37.477-37.476-37.477M328.14 94.922c-20.699 0-37.476 16.781-37.476 37.48 0 11.715 5.379 22.176 13.8 29.047 3.36-9.586 9.157-16.894 16.13-20.004-4.656-2.636-7.801-7.629-7.801-13.363 0-8.473 6.871-15.344 15.348-15.344 8.476 0 15.347 6.871 15.347 15.344 0 5.734-3.144 10.727-7.8 13.363 6.972 3.11 12.765 10.418 16.128 20.004 8.422-6.87 13.801-17.332 13.801-29.047 0-20.699-16.777-37.48-37.476-37.48m194.472 114.254c5.668-3.207 9.496-9.29 9.496-16.27 0-10.32-8.367-18.683-18.687-18.683s-18.688 8.363-18.688 18.683c0 6.98 3.829 13.063 9.496 16.27-8.972 4.004-16.343 13.722-20.308 26.394 8.605 5.22 18.7 8.227 29.5 8.227s20.898-3.008 29.5-8.227c-3.965-12.672-11.336-22.39-20.309-26.394m-308.566 33.543c4.144-2.348 6.945-6.793 6.945-11.899 0-7.547-6.12-13.668-13.668-13.668-7.55 0-13.668 6.121-13.668 13.668 0 5.106 2.801 9.551 6.946 11.899-6.567 2.93-11.957 10.035-14.856 19.304a41.449 41.449 0 0 0 21.578 6.02c7.899 0 15.281-2.2 21.574-6.02-2.898-9.27-8.289-16.375-14.851-19.304M522.61 302.32c-14.622 0-26.473 11.848-26.473 26.47 0 8.276 3.8 15.663 9.75 20.519 2.375-6.774 6.468-11.934 11.39-14.133a10.824 10.824 0 0 1-5.507-9.434c0-5.988 4.851-10.84 10.84-10.84 5.984 0 10.84 4.852 10.84 10.84 0 4.047-2.223 7.574-5.509 9.434 4.922 2.199 9.016 7.36 11.391 14.133 5.95-4.856 9.746-12.243 9.746-20.52 0-14.621-11.851-26.469-26.469-26.469m-85.902-61.101c-15.43 0-27.937 12.508-27.937 27.937 0 8.735 4.011 16.531 10.289 21.656 2.507-7.148 6.824-12.593 12.023-14.914a11.427 11.427 0 0 1-5.812-9.957c0-6.32 5.12-11.441 11.437-11.441 6.32 0 11.441 5.121 11.441 11.441 0 4.27-2.343 7.993-5.816 9.957 5.2 2.32 9.52 7.766 12.027 14.914 6.278-5.125 10.286-12.921 10.286-21.656 0-15.43-12.508-27.937-27.938-27.937"/><path style="fill:none;stroke-width:1;stroke-linecap:butt;stroke-linejoin:miter;stroke:#ba9bc9;stroke-opacity:1;stroke-miterlimit:10" d="m0 0 61.792-65.72" transform="matrix(1 0 0 -1 236.422 148.07)"/><path style="fill:none;stroke-width:1;stroke-linecap:butt;stroke-linejoin:miter;stroke:#ba9bc9;stroke-opacity:1;stroke-miterlimit:10" d="m-.002-.001-17.742-10.282" transform="matrix(1 0 0 -1 192.693 145.694)"/><path style="fill:none;stroke-width:1;stroke-linecap:butt;stroke-linejoin:miter;stroke:#ba9bc9;stroke-opacity:1;stroke-miterlimit:10" d="M-.001.001 22.37-123.366" transform="matrix(1 0 0 -1 148.634 221.728)"/><path style="fill:none;stroke-width:1;stroke-linecap:butt;stroke-linejoin:miter;stroke:#ba9bc9;stroke-opacity:1;stroke-miterlimit:10" d="M-.001.002 36.94-35.924" transform="matrix(1 0 0 -1 122.876 317.303)"/><path style="fill:none;stroke-width:1;stroke-linecap:butt;stroke-linejoin:miter;stroke:#ba9bc9;stroke-opacity:1;stroke-miterlimit:10" d="m.001.001 13.188-27.718" transform="matrix(1 0 0 -1 215.71 274.599)"/><path style="fill:none;stroke-width:1;stroke-linecap:butt;stroke-linejoin:miter;stroke:#ba9bc9;stroke-opacity:1;stroke-miterlimit:10" d="M-.002.001 58.69 10.556" transform="matrix(1 0 0 -1 228.9 247.486)"/><path style="fill:none;stroke-width:1;stroke-linecap:butt;stroke-linejoin:miter;stroke:#ba9bc9;stroke-opacity:1;stroke-miterlimit:10" d="m.002.001 18.582-9.973" transform="matrix(1 0 0 -1 171.002 213.79)"/><path style="fill:none;stroke-width:1;stroke-linecap:butt;stroke-linejoin:miter;stroke:#ba9bc9;stroke-opacity:1;stroke-miterlimit:10" d="m-.001 0-43.945-25.418" transform="matrix(1 0 0 -1 148.634 393.05)"/><path style="fill:none;stroke-width:1;stroke-linecap:butt;stroke-linejoin:miter;stroke:#ba9bc9;stroke-opacity:1;stroke-miterlimit:10" d="m0 .001-20.843 13.492" transform="matrix(1 0 0 -1 95.707 155.978)"/><path style="fill:none;stroke-width:1;stroke-linecap:butt;stroke-linejoin:miter;stroke:#ba9bc9;stroke-opacity:1;stroke-miterlimit:10" d="m-.002 0-21.687 19.83" transform="matrix(1 0 0 -1 192.693 80.399)"/><path style="fill:none;stroke-width:1;stroke-linecap:butt;stroke-linejoin:miter;stroke:#ba9bc9;stroke-opacity:1;stroke-miterlimit:10" d="m0 0 46.15-5.08" transform="matrix(1 0 0 -1 241.44 110.906)"/><path style="fill:none;stroke-width:1;stroke-linecap:butt;stroke-linejoin:miter;stroke:#ba9bc9;stroke-opacity:1;stroke-miterlimit:10" d="M-.001.001v27.45" transform="matrix(1 0 0 -1 328.505 88.025)"/><path style="fill:none;stroke-width:1;stroke-linecap:butt;stroke-linejoin:miter;stroke:#ba9bc9;stroke-opacity:1;stroke-miterlimit:10" d="m0 .002 53.602 13.214" transform="matrix(1 0 0 -1 371.585 120.052)"/><path style="fill:none;stroke-width:1;stroke-linecap:butt;stroke-linejoin:miter;stroke:#ba9bc9;stroke-opacity:1;stroke-miterlimit:10" d="m0 .001 78.517 82.864" transform="matrix(1 0 0 -1 346.675 221.728)"/><path style="fill:none;stroke-width:1;stroke-linecap:butt;stroke-linejoin:miter;stroke:#ba9bc9;stroke-opacity:1;stroke-miterlimit:10" d="M.002 0v-95.575" transform="matrix(1 0 0 -1 444.283 138.862)"/><path style="fill:none;stroke-width:1;stroke-linecap:butt;stroke-linejoin:miter;stroke:#ba9bc9;stroke-opacity:1;stroke-miterlimit:10" d="M-.002 0 37.96-33.213" transform="matrix(1 0 0 -1 468.345 135.644)"/><path style="fill:none;stroke-width:1;stroke-linecap:butt;stroke-linejoin:miter;stroke:#ba9bc9;stroke-opacity:1;stroke-miterlimit:10" d="m0 0 39.996 17.625" transform="matrix(1 0 0 -1 468.344 91.922)"/><path style="stroke:none;fill-rule:nonzero;fill:#ba9bc9;fill-opacity:1" d="M446.867 236.156a2.583 2.583 0 1 1-2.582-2.586 2.583 2.583 0 0 1 2.582 2.586"/><path style="fill:none;stroke-width:1;stroke-linecap:butt;stroke-linejoin:miter;stroke:#ba9bc9;stroke-opacity:1;stroke-miterlimit:10" d="M.001.001V28.47" transform="matrix(1 0 0 -1 333.44 200.376)"/><path style="stroke:none;fill-rule:nonzero;fill:#ba9bc9;fill-opacity:1" d="M336.023 171.906a2.586 2.586 0 0 1-2.582 2.586 2.583 2.583 0 1 1 2.582-2.586m0 28.469a2.583 2.583 0 1 1-5.168 0 2.583 2.583 0 0 1 5.168 0"/><path style="fill:none;stroke-width:1;stroke-linecap:butt;stroke-linejoin:miter;stroke:#ba9bc9;stroke-opacity:1;stroke-miterlimit:10" d="M-.002.002-61.048 18.58" transform="matrix(1 0 0 -1 405.138 260.619)"/><path style="stroke:none;fill-rule:nonzero;fill:#ba9bc9;fill-opacity:1" d="M344.848 239.57a2.585 2.585 0 0 1 1.714 3.227 2.586 2.586 0 0 1-4.945-1.516 2.586 2.586 0 0 1 3.23-1.71m61.048 18.577a2.584 2.584 0 1 1-1.512 4.943 2.584 2.584 0 0 1 1.512-4.943m-56.637-36.421a2.583 2.583 0 1 1-5.168 0 2.586 2.586 0 0 1 2.586-2.582 2.582 2.582 0 0 1 2.582 2.582m78.515-82.864a2.583 2.583 0 1 1-2.582-2.586 2.583 2.583 0 0 1 2.582 2.586m81.117 29.992a2.584 2.584 0 1 1-5.167.004 2.584 2.584 0 0 1 5.168-.004m-62.024-27.41a2.583 2.583 0 1 1-5.168 0 2.583 2.583 0 0 1 5.168 0m24.063-5.8a2.583 2.583 0 0 1-5.168 0 2.586 2.586 0 0 1 2.582-2.586c1.43 0 2.586 1.16 2.586 2.586m0-43.723a2.589 2.589 0 0 1-2.586 2.586 2.586 2.586 0 0 1-2.582-2.586 2.582 2.582 0 0 1 2.582-2.582 2.586 2.586 0 0 1 2.586 2.582m39.992-17.625a2.583 2.583 0 1 1-5.168 0 2.583 2.583 0 0 1 5.168 0m-83.149 32.539a2.583 2.583 0 1 1-2.582-2.586 2.583 2.583 0 0 1 2.582 2.586m-53.605 13.214a2.583 2.583 0 1 1-5.168 0 2.583 2.583 0 0 1 5.168 0M331.09 88.023a2.584 2.584 0 1 1-5.168.004 2.584 2.584 0 0 1 5.168-.004m-.367-27.449a2.582 2.582 0 0 1-2.582 2.582 2.586 2.586 0 0 1-2.586-2.582 2.583 2.583 0 1 1 5.168 0m-86.7 50.332a2.582 2.582 0 0 1-2.582 2.582 2.586 2.586 0 0 1-2.586-2.582 2.589 2.589 0 0 1 2.586-2.586 2.586 2.586 0 0 1 2.582 2.586m46.153 5.078a2.586 2.586 0 0 1-5.172 0 2.586 2.586 0 0 1 5.172 0m-94.899-35.586a2.586 2.586 0 0 1-2.582 2.586 2.583 2.583 0 1 1 2.582-2.586m-21.691-19.824a2.583 2.583 0 1 1-2.582-2.586 2.583 2.583 0 0 1 2.582 2.586m21.691 85.121a2.583 2.583 0 1 1-2.582-2.586 2.583 2.583 0 0 1 2.582 2.586M300.8 213.79a2.583 2.583 0 1 1-2.586-2.582 2.586 2.586 0 0 1 2.587 2.581m-61.793-65.719a2.586 2.586 0 0 1-5.172 0 2.586 2.586 0 0 1 5.172 0m-61.473 7.907a2.586 2.586 0 0 1-5.172 0 2.586 2.586 0 0 1 5.172 0m-26.316 65.75a2.584 2.584 0 1 1-5.168.003 2.584 2.584 0 0 1 5.168-.003m138.957 15.203a2.586 2.586 0 0 1-5.172 0 2.586 2.586 0 0 1 5.172 0m-58.692 10.554a2.583 2.583 0 1 1-5.168 0 2.583 2.583 0 0 1 5.168 0m-39.312-23.722a2.586 2.586 0 0 1-5.172 0 2.587 2.587 0 0 1 5.172 0m-18.586-9.972a2.583 2.583 0 1 1-5.168 0 2.583 2.583 0 0 1 5.168 0M98.29 155.977a2.583 2.583 0 1 1-5.169 0 2.586 2.586 0 0 1 2.586-2.582 2.582 2.582 0 0 1 2.582 2.582m-20.844-13.493a2.582 2.582 0 0 1-2.582 2.582 2.586 2.586 0 0 1-2.586-2.582 2.583 2.583 0 1 1 5.168 0m140.848 132.114a2.583 2.583 0 1 1-5.168 0 2.583 2.583 0 0 1 5.168 0m13.191 27.722a2.583 2.583 0 1 1-2.582-2.586 2.583 2.583 0 0 1 2.582 2.586m-57.898 42.774a2.586 2.586 0 0 1-2.582 2.586 2.583 2.583 0 1 1 2.582-2.586m-22.367 47.956a2.587 2.587 0 0 1-2.586 2.587 2.586 2.586 0 0 1-2.582-2.586 2.583 2.583 0 0 1 5.168 0m-43.946 25.418a2.587 2.587 0 0 1-5.171 0 2.586 2.586 0 0 1 5.171 0M125.46 317.3a2.584 2.584 0 1 1-5.167.005 2.584 2.584 0 0 1 5.168-.004m36.941 35.926a2.583 2.583 0 1 1-5.168 0 2.583 2.583 0 0 1 5.168 0m90.774 23.046a2.583 2.583 0 1 1-5.168 0 2.583 2.583 0 0 1 5.168 0m-50.328 16.777a2.587 2.587 0 0 1-5.172 0 2.586 2.586 0 0 1 5.172 0"/><path style="fill:none;stroke-width:1;stroke-linecap:butt;stroke-linejoin:miter;stroke:#ba9bc9;stroke-opacity:1;stroke-miterlimit:10" d="m0 0-39.654-18.4" transform="matrix(1 0 0 -1 513.423 250.07)"/><path style="fill:none;stroke-width:1;stroke-linecap:butt;stroke-linejoin:miter;stroke:#ba9bc9;stroke-opacity:1;stroke-miterlimit:10" d="M0 .001v-48.465" transform="matrix(1 0 0 -1 522.609 247.486)"/><path style="fill:none;stroke-width:1;stroke-linecap:butt;stroke-linejoin:miter;stroke:#ba9bc9;stroke-opacity:1;stroke-miterlimit:10" d="m0 .002 13.21 21.156" transform="matrix(1 0 0 -1 287.59 311.97)"/><path style="fill:none;stroke-width:1;stroke-linecap:butt;stroke-linejoin:miter;stroke:#ba9bc9;stroke-opacity:1;stroke-miterlimit:10" d="M-.002 0 73.37-7.635" transform="matrix(1 0 0 -1 295.63 349.308)"/><path style="fill:none;stroke-width:1;stroke-linecap:butt;stroke-linejoin:miter;stroke:#ba9bc9;stroke-opacity:1;stroke-miterlimit:10" d="m0 .002-2.254-13.899" transform="matrix(1 0 0 -1 436.708 295.95)"/><path style="fill:none;stroke-width:1;stroke-linecap:butt;stroke-linejoin:miter;stroke:#ba9bc9;stroke-opacity:1;stroke-miterlimit:10" d="m0 0 17.625 6.418" transform="matrix(1 0 0 -1 473.77 335.582)"/><path style="fill:none;stroke-width:1;stroke-linecap:butt;stroke-linejoin:miter;stroke:#ba9bc9;stroke-opacity:1;stroke-miterlimit:10" d="m0 0 50.328 16.777" transform="matrix(1 0 0 -1 200.262 393.05)"/><path style="fill:none;stroke-width:1;stroke-linecap:butt;stroke-linejoin:miter;stroke:#ba9bc9;stroke-opacity:1;stroke-miterlimit:10" d="m.002.001 20.27-42.195" transform="matrix(1 0 0 -1 267.319 376.274)"/><path style="stroke:none;fill-rule:nonzero;fill:#ba9bc9;fill-opacity:1" d="M303.383 290.813a2.586 2.586 0 0 1-2.582 2.585 2.583 2.583 0 1 1 2.582-2.586m-13.207 127.657a2.586 2.586 0 0 1-5.172 0 2.586 2.586 0 0 1 5.172 0m-20.274-42.196a2.583 2.583 0 1 1-5.168 0 2.583 2.583 0 0 1 5.168 0m20.274-64.394a2.586 2.586 0 0 1-5.172 0 2.586 2.586 0 0 1 5.172 0m8.039 37.43a2.583 2.583 0 0 1-5.168 0 2.583 2.583 0 1 1 5.168 0m73.371 7.632a2.586 2.586 0 0 1-2.586 2.586 2.586 2.586 0 0 1-2.582-2.586 2.583 2.583 0 0 1 5.168 0m153.605-60.991a2.583 2.583 0 1 1-5.168 0 2.586 2.586 0 0 1 2.586-2.583 2.582 2.582 0 0 1 2.582 2.582m0-48.465a2.583 2.583 0 1 1-5.168 0 2.586 2.586 0 0 1 2.586-2.582 2.582 2.582 0 0 1 2.582 2.582m-31.831 81.68a2.583 2.583 0 1 1-5.169 0 2.583 2.583 0 0 1 5.168 0m-17.007 6.418a2.582 2.582 0 0 1-2.582 2.582 2.586 2.586 0 0 1-2.586-2.582 2.589 2.589 0 0 1 2.586-2.586 2.586 2.586 0 0 1 2.582 2.586m39.656-85.512a2.586 2.586 0 0 1-5.172 0 2.586 2.586 0 0 1 5.172 0m-39.656 18.399a2.582 2.582 0 0 1-2.582 2.582 2.586 2.586 0 0 1-2.586-2.582 2.583 2.583 0 1 1 5.168 0m-39.312 41.379a2.583 2.583 0 0 1-5.169 0 2.583 2.583 0 1 1 5.168 0m2.254-13.898a2.586 2.586 0 0 1-5.172 0 2.586 2.586 0 0 1 5.172 0m-124.406-88.528c.316.41.652.61 1.183.61 2.516 0 2.516.015 2.516-2.497 0-.183-.008-.367.008-.55.078-.747.574-1.13 1.297-.97 3.773.868 6.32 3.055 7.304 6.883.082.317.215.57.407.829 2.832 3.699 4.425 7.898 4.988 12.492.71 5.847-.172 11.492-2.067 17.035-1.925 5.652-2.668 11.492-2.156 17.453.422 4.902 1.973 9.43 4.813 13.48.093.125.168.262.261.415-4.144 1.468-7.918 3.554-11.441 6.093-2.61 1.88-5.04 3.961-7.18 6.36-.261.293-.414.46-.77.07-5.706-6.23-12.812-10.273-20.652-13.145-.671-.242-.8-.52-.632-1.171 2.066-8.25 5.855-15.563 11.535-21.93 3.988-4.473 7.05-9.531 8.644-15.375.438-1.606.43-1.582-1.226-1.399-1.305.149-2.625.118-3.938.094-2.582-.047-5.148.055-7.539 1.211-.523.254-1.047.516-1.469.914-.375.352-.742.414-1.21.2-3.13-1.41-5.348-3.731-6.782-6.829-.27-.574-.062-.906.496-1.066 3.133-.922 5.29-3.063 6.938-5.738 2.656-4.313 6.16-7.758 10.426-10.446.683-.43.73-.742.394-1.457-3.101-6.515-9.355-20.484-9.355-20.484s12.175 15.023 15.207 18.918"/><path style="stroke:none;fill-rule:nonzero;fill:#ba9bc9;fill-opacity:1" d="M280.285 272.05c10.442.087 19.547 3.774 27.645 10.22 2.199 1.757 4.257 3.668 6.066 5.832.34.398.469.308.746-.008a47.99 47.99 0 0 1 14.707-11.309c10.867-5.418 22.04-5.894 33.461-1.98a56.69 56.69 0 0 1 4.535 1.797c.493.222.684.414.407.98-.512 1.035-.95 2.102-1.387 3.168-.207.516-.461.54-.953.34-4.25-1.742-8.653-2.914-13.227-3.324-6.644-.59-13.098.308-19.281 2.847-7.02 2.88-13.031 7.2-18.031 12.899-.446.508-.653.613-1.168.039-6.868-7.79-15.246-13.113-25.465-15.27-7.848-1.656-15.54-.797-23.055 1.88-.691.245-1.406.452-2.05.796-.622.332-.876.11-1.098-.434a81.886 81.886 0 0 0-1.364-3.18c-.246-.519-.14-.75.399-.98 2.8-1.207 5.644-2.25 8.61-2.976 3.44-.86 6.94-1.352 10.503-1.336m52.512-3.582c-1.75-3.574-2.617-7.145-2.879-10.867-.438-6.266.66-12.305 2.625-18.25 2.234-6.778 2.684-13.668.527-20.586a23.185 23.185 0 0 0-3.597-7.047c-.52-.696-.489-1.64-.922-2.399-.16-.285.125-.347.355-.293a3.769 3.769 0 0 1 1.465.727c2.379 1.836 3.723 4.375 4.75 7.105 1.297 3.418 1.879 6.977 2.203 10.598.465 5.246.281 10.496-.203 15.73-.719 7.793-2.11 15.481-3.836 23.11a90.925 90.925 0 0 1-.488 2.172"/></svg>