<svg width="640pt" height="640" viewBox="0 0 640 480" version="1.2" xmlns="http://www.w3.org/2000/svg"><path style="stroke:none;fill-rule:nonzero;fill:#ba9bc9;fill-opacity:1" d="M32.871 106.504h69.137V36.55H32.87Zm0 13.519h118.676v-7.078H32.87Zm0 15.383h118.676v-7.078H32.87Zm0 15.384h118.676v-7.08H32.87Zm76.215-75.993h42.46v-7.078h-42.46Zm0 15.582h42.46V83.3h-42.46Zm0 15.581h42.46v-7.073h-42.46Zm0-62.331h42.46V36.55h-42.46Zm0 15.581h42.46v-7.077h-42.46Zm151.656 15.587h42.461v-7.078h-42.46Zm0 15.582h42.461V83.3h-42.46Zm0-46.75h42.461V36.55h-42.46Zm0 15.581h42.461v-7.077h-42.46Zm75.449 47.294h69.133V36.55h-69.133Zm0 13.519h118.672v-7.078H336.191Zm0 15.383h118.672v-7.078H336.191Zm0 15.384h118.672v-7.08H336.191Zm76.211-75.993h42.461v-7.078h-42.46Zm0 15.582h42.461V83.3h-42.46Zm0 15.581h42.461v-7.073h-42.46Zm0-62.331h42.461V36.55h-42.46Zm0 15.581h42.461v-7.077h-42.46Zm75.446 47.294h69.136V36.55h-69.136Zm0 13.519h118.675v-7.078H487.848Zm0 15.383h118.675v-7.078H487.848Zm0 15.384h118.675v-7.08H487.848Zm76.215-75.993h42.46v-7.078h-42.46Zm0 15.582h42.46V83.3h-42.46Zm0 15.581h42.46v-7.073h-42.46Zm0-62.331h42.46V36.55h-42.46Zm0 15.581h42.46v-7.077h-42.46ZM33.477 252.832h69.136v-69.95H33.477Zm0 13.523h118.675v-7.078H33.477Zm0 15.379h118.675v-7.074H33.477Zm0 15.383h118.675v-7.074H33.477Zm303.32-30.762h118.672v-7.078H336.797Zm0 15.379h118.672v-7.074H336.797Zm0 15.383h118.672v-7.074H336.797Zm76.211-75.992h42.46v-7.074h-42.46Zm0 15.585h42.46v-7.077h-42.46Zm0 15.583h42.46v-7.078h-42.46Zm0-62.336h42.46v-7.074h-42.46Zm0 15.586h42.46v-7.078h-42.46Zm75.445 47.289h69.137v-69.95h-69.137Zm0 13.523H607.13v-7.078H488.453Zm0 15.379H607.13v-7.074H488.453Zm0 15.383H607.13v-7.074H488.453Zm76.215-75.992h42.46v-7.074h-42.46Zm0 15.585h42.46v-7.077h-42.46Zm0 15.583h42.46v-7.078h-42.46Zm0-62.336h42.46v-7.074h-42.46Zm0 15.586h42.46v-7.078h-42.46ZM33.477 399.164h69.136v-69.953H33.477Zm0 13.52h118.675v-7.075H33.477Zm0 15.382h118.675v-7.078H33.477Zm0 15.384h118.675v-7.079H33.477Zm76.214-75.993h42.461v-7.078h-42.46Zm0 15.583h42.461v-7.075h-42.46Zm0 15.581h42.461v-7.074h-42.46Zm0-62.331h42.461v-7.08h-42.46Zm0 15.581h42.461v-7.074h-42.46Zm75.446 47.293h69.136v-69.953h-69.136Zm0 13.52h118.672v-7.075H185.137Zm0 15.382h118.672v-7.078H185.137Zm0 15.384h118.672v-7.079H185.137Zm76.211-75.993h42.46v-7.078h-42.46Zm0 15.583h42.46v-7.075h-42.46Zm0 15.581h42.46v-7.074h-42.46Zm0-62.331h42.46v-7.08h-42.46Zm0 15.581h42.46v-7.074h-42.46Zm75.449 47.293h69.133v-69.953h-69.133Zm0 13.52h118.672v-7.075H336.797Zm0 15.382h118.672v-7.078H336.797Zm0 15.384h118.672v-7.079H336.797Zm76.211-75.993h42.46v-7.078h-42.46Zm0 15.583h42.46v-7.075h-42.46Zm0 15.581h42.46v-7.074h-42.46Zm0-62.331h42.46v-7.08h-42.46Zm0 15.581h42.46v-7.074h-42.46Zm75.445 47.293h69.137v-69.953h-69.137Zm0 13.52H607.13v-7.075H488.453Zm0 15.382H607.13v-7.078H488.453Zm0 15.384H607.13v-7.079H488.453Zm76.215-75.993h42.46v-7.078h-42.46Zm0 15.583h42.46v-7.075h-42.46Zm0 15.581h42.46v-7.074h-42.46Zm0-62.331h42.46v-7.08h-42.46Zm0 15.581h42.46v-7.074h-42.46Zm0 0"/><path style="stroke:none;fill-rule:nonzero;fill:#fff;fill-opacity:1" d="M349.18 238.129c.02 0 .02-.027 0-.027s-.02.027 0 .027"/><path style="stroke:none;fill-rule:nonzero;fill:#ba9bc9;fill-opacity:1" d="M191.773 290.043h-6.636v7.074h21.484a101.292 101.292 0 0 1-14.848-7.074m87.187 7.074h24.849v-7.074h-9.997a101.336 101.336 0 0 1-14.851 7.074m63.769-114.234a102.044 102.044 0 0 1 1.801 19.12c0 13.806-2.754 26.966-7.734 38.97v11.859h69.133v-69.95Zm-66.304-76.923h26.777v-7.073h-42.46v2.957a100.992 100.992 0 0 1 15.683 4.117m-33.633-5.699c3.672 0 7.3.199 10.875.582V36.55h-69.137v69.953h23.106c10.957-4.035 22.797-6.242 35.156-6.242m60.254 19.762h.156v-7.078h-11.191a102.243 102.243 0 0 1 11.035 7.078m-109.473-7.078h-9.043v5.649a101.53 101.53 0 0 1 9.043-5.649m-50.719 69.938h-33.164v7.074h32.075c.28-2.383.644-4.742 1.09-7.074m-1.806 19.121c0-1.184.028-2.363.071-3.54h-31.43v7.079h31.43a96.878 96.878 0 0 1-.07-3.54m.715 12.044H109.69v7.078h33.164a100.315 100.315 0 0 1-1.09-7.078m3.088 15.586h-35.16v7.078h37.437a101.608 101.608 0 0 1-2.277-7.078m5.812 15.582h-40.973v7.078h42.461v-4.035a95.243 95.243 0 0 1-1.488-3.043"/><path style="stroke:none;fill-rule:nonzero;fill:#8242b5;fill-opacity:1" d="m540.254 384.39-20.73 30.145c-4.782 6.953-14.294 8.711-21.247 3.93L369.684 330.02c-6.954-4.782-8.715-14.293-3.93-21.247l20.73-30.14c4.782-6.953 14.293-8.715 21.246-3.934l128.594 88.446c6.953 4.78 8.715 14.293 3.93 21.246m-297.461-80.649c-56.191 0-101.742-45.55-101.742-101.738 0-56.191 45.55-101.742 101.742-101.742 56.187 0 101.738 45.55 101.738 101.742 0 56.187-45.55 101.738-101.738 101.738m82.367-221.32c-66.074-45.445-156.476-28.719-201.922 37.355C77.793 185.852 94.516 276.254 160.59 321.7c66.078 45.446 156.48 28.723 201.926-37.351 45.445-66.075 28.718-156.48-37.356-201.926"/><path style="stroke:none;fill-rule:nonzero;fill:#8242b5;fill-opacity:1" d="M270.05 250.41a1401.5 1401.5 0 0 1-38.87.508c-6.223-.008-12.973.617-19.106-.621-6.61-1.336-9.746-6.348-10.691-12.649-.781-5.218-.352-10.546-.336-15.8.02-6.633-.738-13.54 2.398-19.653 6.164-12.007 20.207-14.41 32.313-16.039 1.41-.191 1.976-1.902 1.746-3.074-2.117-10.969-4.512-22.812-1.356-33.828 2.426-8.457 9.227-17.274 18.829-16.672a754.2 754.2 0 0 0-2.5-2.5c-.254 10.148-.297 20.356 1.28 30.414 1.5 9.59 4.9 17.262 10.044 25.352 2.34 3.683.664 9.898.504 14.293a274.194 274.194 0 0 0-.028 18.882c.383 11.582 1.563 23.11 3.364 34.551.5 3.172 5.316 1.824 4.82-1.328-1.781-11.328-2.871-22.746-3.211-34.21a270.305 270.305 0 0 1 .453-25.72c.125-1.886.914-4.91.223-6.742-.672-1.781-2.633-3.254-3.7-4.84a40.878 40.878 0 0 1-3.163-5.672c-2.094-4.542-3.383-9.46-4.235-14.375-1.738-10.085-1.605-20.414-1.351-30.605.039-1.414-1.176-2.422-2.5-2.5-10.266-.64-18.293 7.277-22.125 16.172-5.54 12.844-2.72 27.453-.168 40.656.582-1.027 1.164-2.05 1.746-3.074-13.301 1.789-27.875 4.95-34.965 17.691-3.328 5.98-3.531 12.528-3.457 19.207.074 6.668-.535 13.47.437 20.094.77 5.246 2.754 10.434 7.14 13.7 4.962 3.69 11.34 3.769 17.263 3.843 16.398.2 32.808-.027 49.203-.46 3.21-.087 3.226-5.087 0-5m7.562-30.88a270.84 270.84 0 0 0 3.274 33.89l29.285-.058c10.89-14.246 17.375-32.043 17.375-51.36 0-5.105-.477-10.1-1.344-14.956h-47.726a270.796 270.796 0 0 0-.864 32.484"/><path style="fill:none;stroke-width:.5;stroke-linecap:butt;stroke-linejoin:miter;stroke:#8242b5;stroke-opacity:1;stroke-miterlimit:10" d="M0 .002a270.84 270.84 0 0 1 3.273-33.89l29.285.058C43.45-19.584 49.933-1.787 49.933 17.53c0 5.105-.476 10.1-1.343 14.956H.863A270.796 270.796 0 0 1 0 .002Zm0 0" transform="matrix(1 0 0 -1 277.613 219.533)"/></svg>