<svg width="640pt" height="640" viewBox="0 0 640 480" version="1.2" xmlns="http://www.w3.org/2000/svg"><path style="stroke:none;fill-rule:nonzero;fill:#ba9bc9;fill-opacity:1" d="M472.086 338.395c-36.473 0-66.035 29.566-66.035 66.035 0 20.648 9.476 39.078 24.316 51.187 5.926-16.894 16.137-29.77 28.422-35.25-8.203-4.644-13.746-13.445-13.746-23.543 0-14.933 12.11-27.043 27.043-27.043 14.934 0 27.043 12.11 27.043 27.043 0 10.098-5.54 18.899-13.742 23.543 12.281 5.48 22.496 18.356 28.418 35.25 14.84-12.11 24.316-30.539 24.316-51.187 0-36.47-29.562-66.035-66.035-66.035M208.469 70.375c7.386-4.18 12.375-12.105 12.375-21.2 0-13.452-10.903-24.355-24.356-24.355-13.449 0-24.355 10.903-24.355 24.356 0 9.094 4.992 17.02 12.379 21.199-11.696 5.223-21.305 17.883-26.469 34.398 11.21 6.805 24.371 10.727 38.445 10.727 14.075 0 27.235-3.922 38.45-10.727-5.168-16.515-14.774-29.175-26.47-34.398m-56.343 353.773c5.402-3.058 9.055-8.855 9.055-15.507 0-9.84-7.977-17.813-17.817-17.813-9.836 0-17.812 7.973-17.812 17.813 0 6.652 3.648 12.449 9.054 15.507-8.554 3.817-15.582 13.079-19.363 25.157 8.203 4.98 17.828 7.847 28.121 7.847 10.297 0 19.922-2.867 28.125-7.847-3.781-12.078-10.808-21.34-19.363-25.157M96.332 111.316c-26.977 0-48.848 21.868-48.848 48.844 0 15.27 7.012 28.903 17.989 37.86 4.382-12.497 11.933-22.02 21.02-26.075-6.067-3.433-10.165-9.941-10.165-17.414 0-11.043 8.953-20 20.004-20 11.047 0 20 8.957 20 20 0 7.473-4.098 13.98-10.164 17.414 9.086 4.055 16.637 13.578 21.02 26.075 10.976-8.958 17.988-22.59 17.988-37.86 0-26.976-21.871-48.844-48.844-48.844M506.39 67.148c5.403-3.062 9.055-8.859 9.055-15.507 0-9.84-7.976-17.817-17.816-17.817-9.836 0-17.813 7.977-17.813 17.817 0 6.648 3.649 12.445 9.051 15.507-8.555 3.817-15.578 13.079-19.36 25.157a54.053 54.053 0 0 0 28.122 7.843c10.297 0 19.922-2.867 28.121-7.843-3.777-12.078-10.805-21.34-19.36-25.157M76.969 294.605c5.402-3.058 9.054-8.855 9.054-15.507 0-9.84-7.976-17.817-17.816-17.817-9.836 0-17.812 7.977-17.812 17.817 0 6.652 3.648 12.449 9.054 15.507-8.558 3.817-15.582 13.079-19.363 25.157 8.203 4.98 17.828 7.843 28.121 7.843 10.297 0 19.922-2.863 28.125-7.843-3.781-12.078-10.809-21.34-19.363-25.157m168.363 25.024c-26.977 0-48.844 21.871-48.844 48.844 0 15.273 7.012 28.906 17.989 37.863 4.378-12.496 11.933-22.02 21.02-26.074-6.067-3.434-10.165-9.942-10.165-17.414 0-11.047 8.953-20 20-20s20.004 8.953 20.004 20c0 7.472-4.098 13.98-10.164 17.414 9.086 4.054 16.637 13.578 21.02 26.074 10.976-8.957 17.984-22.59 17.984-37.863 0-26.973-21.867-48.844-48.844-48.844M343.02 49.328c-26.973 0-48.844 21.867-48.844 48.844 0 15.273 7.012 28.906 17.988 37.863 4.383-12.5 11.934-22.02 21.02-26.074-6.067-3.434-10.164-9.945-10.164-17.414 0-11.047 8.953-20 20-20 11.046 0 20.003 8.953 20.003 20 0 7.469-4.097 13.98-10.164 17.414 9.086 4.055 16.637 13.574 21.02 26.074 10.976-8.957 17.984-22.59 17.984-37.863 0-26.977-21.867-48.844-48.843-48.844m253.46 148.91c7.387-4.183 12.38-12.11 12.38-21.203 0-13.453-10.907-24.355-24.356-24.355-13.453 0-24.356 10.902-24.356 24.355 0 9.094 4.989 17.02 12.375 21.203-11.695 5.219-21.3 17.883-26.468 34.395 11.215 6.804 24.375 10.726 38.449 10.726 14.074 0 27.234-3.922 38.445-10.726-5.168-16.512-14.773-29.176-26.469-34.395m-402.16 43.715c5.403-3.058 9.051-8.855 9.051-15.508 0-9.84-7.976-17.812-17.812-17.812-9.84 0-17.813 7.972-17.813 17.812 0 6.653 3.649 12.45 9.05 15.508-8.554 3.817-15.581 13.078-19.358 25.16 8.199 4.977 17.824 7.844 28.12 7.844 10.294 0 19.919-2.867 28.122-7.844-3.782-12.082-10.805-21.343-19.36-25.16m402.157 77.676c-19.055 0-34.5 15.45-34.5 34.5 0 10.789 4.949 20.418 12.703 26.742 3.093-8.824 8.43-15.55 14.847-18.414-4.285-2.426-7.18-7.023-7.18-12.3 0-7.802 6.325-14.126 14.13-14.126 7.8 0 14.125 6.324 14.125 14.125 0 5.278-2.891 9.875-7.18 12.301 6.418 2.863 11.754 9.59 14.848 18.414 7.753-6.324 12.707-15.953 12.707-26.742 0-19.05-15.446-34.5-34.5-34.5M484.52 240c-20.11 0-36.41 16.3-36.41 36.41 0 11.387 5.222 21.547 13.406 28.227 3.265-9.317 8.898-16.418 15.671-19.438-4.523-2.562-7.578-7.414-7.578-12.98 0-8.235 6.676-14.91 14.91-14.91 8.235 0 14.91 6.675 14.91 14.91 0 5.566-3.054 10.418-7.577 12.98 6.773 3.02 12.402 10.121 15.671 19.438 8.18-6.68 13.407-16.84 13.407-28.227 0-20.11-16.301-36.41-36.41-36.41"/><path style="fill:none;stroke-width:1;stroke-linecap:butt;stroke-linejoin:miter;stroke:#ba9bc9;stroke-opacity:1;stroke-miterlimit:10" d="m0 .001 80.536-85.656" transform="matrix(1 0 0 -1 223.484 118.595)"/><path style="fill:none;stroke-width:1;stroke-linecap:butt;stroke-linejoin:miter;stroke:#ba9bc9;stroke-opacity:1;stroke-miterlimit:10" d="m.001-.001-23.129-13.403" transform="matrix(1 0 0 -1 166.49 115.499)"/><path style="fill:none;stroke-width:1;stroke-linecap:butt;stroke-linejoin:miter;stroke:#ba9bc9;stroke-opacity:1;stroke-miterlimit:10" d="M-.001.001 29.15-160.784" transform="matrix(1 0 0 -1 109.067 214.595)"/><path style="fill:none;stroke-width:1;stroke-linecap:butt;stroke-linejoin:miter;stroke:#ba9bc9;stroke-opacity:1;stroke-miterlimit:10" d="m0 0 48.148-46.821" transform="matrix(1 0 0 -1 75.497 339.16)"/><path style="fill:none;stroke-width:1;stroke-linecap:butt;stroke-linejoin:miter;stroke:#ba9bc9;stroke-opacity:1;stroke-miterlimit:10" d="m0 0 17.19-36.126" transform="matrix(1 0 0 -1 196.489 283.503)"/><path style="fill:none;stroke-width:1;stroke-linecap:butt;stroke-linejoin:miter;stroke:#ba9bc9;stroke-opacity:1;stroke-miterlimit:10" d="m0 .002 76.492 13.757" transform="matrix(1 0 0 -1 213.68 248.166)"/><path style="fill:none;stroke-width:1;stroke-linecap:butt;stroke-linejoin:miter;stroke:#ba9bc9;stroke-opacity:1;stroke-miterlimit:10" d="M.002 0 24.22-12.996" transform="matrix(1 0 0 -1 138.22 204.25)"/><path style="fill:none;stroke-width:1;stroke-linecap:butt;stroke-linejoin:miter;stroke:#ba9bc9;stroke-opacity:1;stroke-miterlimit:10" d="m-.001 0-57.274-33.128" transform="matrix(1 0 0 -1 109.067 437.883)"/><path style="fill:none;stroke-width:1;stroke-linecap:butt;stroke-linejoin:miter;stroke:#ba9bc9;stroke-opacity:1;stroke-miterlimit:10" d="m0 0-27.165 17.585" transform="matrix(1 0 0 -1 40.087 128.902)"/><path style="fill:none;stroke-width:1;stroke-linecap:butt;stroke-linejoin:miter;stroke:#ba9bc9;stroke-opacity:1;stroke-miterlimit:10" d="m.001 0-28.27 25.84" transform="matrix(1 0 0 -1 166.49 30.399)"/><path style="fill:none;stroke-width:1;stroke-linecap:butt;stroke-linejoin:miter;stroke:#ba9bc9;stroke-opacity:1;stroke-miterlimit:10" d="M-.001-.001 60.147-6.62" transform="matrix(1 0 0 -1 230.024 70.159)"/><path style="fill:none;stroke-width:1;stroke-linecap:butt;stroke-linejoin:miter;stroke:#ba9bc9;stroke-opacity:1;stroke-miterlimit:10" d="M-.001.001V35.78" transform="matrix(1 0 0 -1 343.497 40.337)"/><path style="fill:none;stroke-width:1;stroke-linecap:butt;stroke-linejoin:miter;stroke:#ba9bc9;stroke-opacity:1;stroke-miterlimit:10" d="m0 .002 69.864 17.226" transform="matrix(1 0 0 -1 399.644 82.08)"/><path style="fill:none;stroke-width:1;stroke-linecap:butt;stroke-linejoin:miter;stroke:#ba9bc9;stroke-opacity:1;stroke-miterlimit:10" d="m.002.001 102.328 108" transform="matrix(1 0 0 -1 367.178 214.595)"/><path style="fill:none;stroke-width:1;stroke-linecap:butt;stroke-linejoin:miter;stroke:#ba9bc9;stroke-opacity:1;stroke-miterlimit:10" d="M.002.001v-124.566" transform="matrix(1 0 0 -1 494.393 106.595)"/><path style="fill:none;stroke-width:1;stroke-linecap:butt;stroke-linejoin:miter;stroke:#ba9bc9;stroke-opacity:1;stroke-miterlimit:10" d="m0 .002 49.473-43.29" transform="matrix(1 0 0 -1 525.753 102.4)"/><path style="fill:none;stroke-width:1;stroke-linecap:butt;stroke-linejoin:miter;stroke:#ba9bc9;stroke-opacity:1;stroke-miterlimit:10" d="m-.002 0 52.13 22.968" transform="matrix(1 0 0 -1 525.751 45.417)"/><path style="stroke:none;fill-rule:nonzero;fill:#ba9bc9;fill-opacity:1" d="M497.762 233.398a3.368 3.368 0 0 1-3.367 3.368 3.368 3.368 0 1 1 3.367-3.368"/><path style="fill:none;stroke-width:1;stroke-linecap:butt;stroke-linejoin:miter;stroke:#ba9bc9;stroke-opacity:1;stroke-miterlimit:10" d="M0 .001v37.102" transform="matrix(1 0 0 -1 349.929 186.767)"/><path style="stroke:none;fill-rule:nonzero;fill:#ba9bc9;fill-opacity:1" d="M353.297 149.664a3.368 3.368 0 0 1-6.735 0 3.368 3.368 0 1 1 6.735 0m0 37.102a3.37 3.37 0 0 1-3.367 3.37 3.37 3.37 0 0 1-3.368-3.37 3.368 3.368 0 0 1 6.735 0"/><path style="fill:none;stroke-width:1;stroke-linecap:butt;stroke-linejoin:miter;stroke:#ba9bc9;stroke-opacity:1;stroke-miterlimit:10" d="m0 0-79.566 24.216" transform="matrix(1 0 0 -1 443.374 265.282)"/><path style="stroke:none;fill-rule:nonzero;fill:#ba9bc9;fill-opacity:1" d="M364.797 237.848a3.367 3.367 0 1 1-1.977 6.437 3.367 3.367 0 0 1 1.977-6.437m79.566 24.215a3.367 3.367 0 0 1 2.23 4.207 3.37 3.37 0 0 1-4.206 2.234 3.377 3.377 0 0 1-2.235-4.211 3.371 3.371 0 0 1 4.211-2.23m-73.816-47.469a3.368 3.368 0 1 1-6.738 0 3.368 3.368 0 0 1 3.37-3.367 3.368 3.368 0 0 1 3.368 3.367m102.328-108a3.368 3.368 0 1 1-3.367-3.367 3.368 3.368 0 0 1 3.367 3.367m105.719 39.094a3.368 3.368 0 1 1-6.735-.001 3.368 3.368 0 0 1 6.735 0m-80.832-35.722a3.368 3.368 0 0 1-3.367 3.367 3.368 3.368 0 1 1 0-6.738 3.368 3.368 0 0 1 3.367 3.37m31.359-7.566a3.368 3.368 0 1 1-3.367-3.367 3.368 3.368 0 0 1 3.367 3.367m0-56.98a3.368 3.368 0 0 1-3.371 3.367 3.368 3.368 0 0 1 0-6.734 3.368 3.368 0 0 1 3.371 3.367m52.125-22.968a3.368 3.368 0 0 1-3.367 3.366 3.368 3.368 0 1 1 0-6.738 3.368 3.368 0 0 1 3.367 3.371M472.875 64.852a3.37 3.37 0 0 1-3.367 3.37 3.37 3.37 0 0 1-3.367-3.37 3.368 3.368 0 0 1 6.734 0m-69.863 17.226a3.368 3.368 0 1 1-3.367-3.367 3.368 3.368 0 0 1 3.367 3.367m-56.149-41.742a3.368 3.368 0 1 1-3.367-3.367 3.368 3.368 0 0 1 3.367 3.367m-.473-35.777a3.368 3.368 0 0 1-3.37 3.367 3.368 3.368 0 0 1 0-6.735 3.368 3.368 0 0 1 3.37 3.368M233.395 70.16a3.37 3.37 0 0 1-3.372 3.367 3.368 3.368 0 0 1-3.367-3.367 3.368 3.368 0 1 1 6.739 0m60.145 6.617a3.368 3.368 0 1 1-3.368-3.367 3.368 3.368 0 0 1 3.367 3.367M169.86 30.398a3.368 3.368 0 0 1-3.368 3.368 3.37 3.37 0 0 1-3.37-3.368 3.37 3.37 0 0 1 3.37-3.367 3.368 3.368 0 0 1 3.367 3.367M141.59 4.559a3.368 3.368 0 0 1-3.367 3.367 3.368 3.368 0 1 1 3.367-3.367M169.86 115.5a3.368 3.368 0 0 1-3.368 3.367 3.37 3.37 0 0 1-3.37-3.367 3.374 3.374 0 0 1 3.37-3.371 3.37 3.37 0 0 1 3.367 3.371m137.528 88.75a3.368 3.368 0 1 1-6.735 0 3.368 3.368 0 0 1 6.735 0m-80.535-85.656a3.368 3.368 0 1 1-3.368-3.367 3.368 3.368 0 0 1 3.368 3.367m-80.118 10.308a3.368 3.368 0 0 1-3.37 3.368 3.368 3.368 0 0 1 0-6.735 3.368 3.368 0 0 1 3.37 3.367m-34.296 85.692a3.368 3.368 0 1 1-6.738 0 3.368 3.368 0 0 1 3.366-3.367 3.37 3.37 0 0 1 3.371 3.367m181.103 19.812a3.368 3.368 0 1 1-6.736 0 3.368 3.368 0 0 1 6.735 0m-76.492 13.758a3.368 3.368 0 1 1-3.367-3.367 3.368 3.368 0 0 1 3.367 3.367m-51.238-30.918a3.368 3.368 0 1 1-6.735 0 3.368 3.368 0 0 1 6.735 0M141.59 204.25a3.368 3.368 0 0 1-3.367 3.367 3.368 3.368 0 1 1 3.367-3.367m-98.137-75.348a3.368 3.368 0 1 1-6.735 0 3.368 3.368 0 0 1 6.735 0M16.29 111.316a3.368 3.368 0 0 1-3.368 3.368 3.368 3.368 0 1 1 0-6.739 3.368 3.368 0 0 1 3.367 3.371m183.566 172.188a3.368 3.368 0 1 1-6.735 0 3.368 3.368 0 0 1 6.735 0m17.192 36.125a3.368 3.368 0 1 1-3.367-3.367 3.368 3.368 0 0 1 3.367 3.367m-75.457 55.75a3.368 3.368 0 1 1-6.738 0 3.368 3.368 0 0 1 3.37-3.367 3.368 3.368 0 0 1 3.368 3.367m-29.152 62.504a3.37 3.37 0 0 1-3.372 3.367 3.368 3.368 0 0 1 0-6.734 3.37 3.37 0 0 1 3.371 3.367M55.16 471.012a3.368 3.368 0 0 1-3.367 3.367 3.368 3.368 0 1 1 3.367-3.367M78.863 339.16a3.368 3.368 0 1 1-6.735 0 3.368 3.368 0 0 1 6.735 0m48.149 46.82a3.368 3.368 0 1 1-6.735 0 3.368 3.368 0 0 1 6.735 0m118.308 30.04a3.368 3.368 0 0 1-3.37 3.367 3.368 3.368 0 0 1 0-6.735 3.368 3.368 0 0 1 3.37 3.368m-65.597 21.863a3.368 3.368 0 1 1-6.735 0 3.368 3.368 0 0 1 6.735 0"/><path style="fill:none;stroke-width:1;stroke-linecap:butt;stroke-linejoin:miter;stroke:#ba9bc9;stroke-opacity:1;stroke-miterlimit:10" d="m0-.001-51.683-23.977" transform="matrix(1 0 0 -1 584.503 251.534)"/><path style="fill:none;stroke-width:1;stroke-linecap:butt;stroke-linejoin:miter;stroke:#ba9bc9;stroke-opacity:1;stroke-miterlimit:10" d="M.001.002v-63.168" transform="matrix(1 0 0 -1 596.475 248.166)"/><path style="fill:none;stroke-width:1;stroke-linecap:butt;stroke-linejoin:miter;stroke:#ba9bc9;stroke-opacity:1;stroke-miterlimit:10" d="m0-.001 17.215 27.574" transform="matrix(1 0 0 -1 290.172 332.21)"/><path style="fill:none;stroke-width:1;stroke-linecap:butt;stroke-linejoin:miter;stroke:#ba9bc9;stroke-opacity:1;stroke-miterlimit:10" d="m.001.001 95.625-9.95" transform="matrix(1 0 0 -1 300.65 380.872)"/><path style="fill:none;stroke-width:1;stroke-linecap:butt;stroke-linejoin:miter;stroke:#ba9bc9;stroke-opacity:1;stroke-miterlimit:10" d="m0 0-2.937-18.11" transform="matrix(1 0 0 -1 484.52 311.331)"/><path style="fill:none;stroke-width:1;stroke-linecap:butt;stroke-linejoin:miter;stroke:#ba9bc9;stroke-opacity:1;stroke-miterlimit:10" d="m-.002-.002 22.973 8.364" transform="matrix(1 0 0 -1 532.822 362.983)"/><path style="fill:none;stroke-width:1;stroke-linecap:butt;stroke-linejoin:miter;stroke:#ba9bc9;stroke-opacity:1;stroke-miterlimit:10" d="m0 0 65.593 21.864" transform="matrix(1 0 0 -1 176.356 437.883)"/><path style="fill:none;stroke-width:1;stroke-linecap:butt;stroke-linejoin:miter;stroke:#ba9bc9;stroke-opacity:1;stroke-miterlimit:10" d="M-.002-.001 26.42-54.993" transform="matrix(1 0 0 -1 263.752 416.018)"/><path style="stroke:none;fill-rule:nonzero;fill:#ba9bc9;fill-opacity:1" d="M310.754 304.633a3.368 3.368 0 1 1-3.367-3.367 3.368 3.368 0 0 1 3.367 3.367M293.54 471.012a3.368 3.368 0 1 1-6.736-.001 3.368 3.368 0 0 1 6.735 0m-26.418-54.991a3.368 3.368 0 0 1-3.371 3.367 3.368 3.368 0 0 1 0-6.735 3.368 3.368 0 0 1 3.371 3.368m26.419-83.926a3.368 3.368 0 0 1-6.735 0 3.368 3.368 0 1 1 6.734 0m10.481 48.777a3.368 3.368 0 0 1-3.368 3.367 3.368 3.368 0 1 1 3.368-3.367m95.625 9.949a3.37 3.37 0 0 1-3.368 3.371 3.374 3.374 0 0 1-3.37-3.37 3.37 3.37 0 0 1 3.37-3.368 3.368 3.368 0 0 1 3.368 3.367m200.199-79.488a3.368 3.368 0 0 1-3.367 3.367 3.37 3.37 0 0 1-3.372-3.367 3.37 3.37 0 0 1 3.372-3.367 3.368 3.368 0 0 1 3.367 3.367m0-63.168a3.368 3.368 0 1 1-6.739 0 3.37 3.37 0 0 1 3.372-3.367 3.368 3.368 0 0 1 3.367 3.367m-41.489 106.457a3.368 3.368 0 0 1-6.734 0 3.368 3.368 0 1 1 6.734 0m-22.164 8.363a3.368 3.368 0 0 1-3.37 3.368 3.368 3.368 0 0 1-3.368-3.368 3.368 3.368 0 1 1 6.738 0m51.68-111.449a3.368 3.368 0 0 1-6.734 0 3.368 3.368 0 1 1 6.734 0m-51.68 23.977a3.368 3.368 0 0 1-3.37 3.367 3.368 3.368 0 0 1 0-6.734 3.368 3.368 0 0 1 3.37 3.367m-51.241 53.929a3.368 3.368 0 1 1-6.736 0 3.368 3.368 0 0 1 6.735 0m2.938-18.109a3.368 3.368 0 1 1-6.735 0 3.368 3.368 0 0 1 6.735 0M325.75 195.953c.41.527.848.79 1.54.79 3.28 0 3.28.019 3.28-3.25 0-.243-.011-.481.008-.72.102-.972.75-1.472 1.692-1.261 4.918 1.129 8.238 3.98 9.52 8.968.108.41.28.743.53 1.083 3.688 4.82 5.77 10.289 6.5 16.28.93 7.618-.222 14.977-2.691 22.2-2.512 7.367-3.48 14.98-2.809 22.75.547 6.39 2.57 12.289 6.27 17.57.117.16.219.34.34.54-5.403 1.91-10.32 4.628-14.91 7.94-3.403 2.45-6.57 5.157-9.36 8.29-.34.379-.543.597-1 .09-7.441-8.121-16.703-13.391-26.922-17.13-.87-.32-1.039-.683-.82-1.53 2.691-10.75 7.629-20.282 15.031-28.583 5.2-5.828 9.192-12.417 11.27-20.039.57-2.09.558-2.058-1.602-1.82-1.699.191-3.418.152-5.129.121-3.37-.058-6.71.07-9.828 1.578-.68.332-1.363.672-1.91 1.192-.492.46-.973.539-1.582.261-4.078-1.84-6.969-4.863-8.84-8.902-.348-.75-.078-1.18.652-1.39 4.079-1.2 6.887-3.989 9.04-7.481 3.46-5.617 8.027-10.11 13.59-13.61.89-.558.949-.968.507-1.898-4.039-8.492-12.187-26.699-12.187-26.699s15.867 19.578 19.82 24.66"/><path style="stroke:none;fill-rule:nonzero;fill:#ba9bc9;fill-opacity:1" d="M280.648 280.184c13.61.109 25.48 4.918 36.032 13.32 2.867 2.289 5.55 4.777 7.91 7.598.437.52.61.402.969-.008a62.558 62.558 0 0 1 19.171-14.742c14.16-7.059 28.72-7.68 43.61-2.579a73.132 73.132 0 0 1 5.91 2.34c.64.29.89.54.527 1.278-.668 1.351-1.238 2.742-1.808 4.132-.27.668-.602.7-1.239.438-5.543-2.27-11.28-3.8-17.242-4.328-8.66-.77-17.07.398-25.129 3.71-9.152 3.75-16.98 9.38-23.5 16.81-.582.66-.851.8-1.52.05-8.948-10.152-19.87-17.09-33.19-19.902-10.231-2.16-20.25-1.04-30.051 2.453-.899.316-1.828.59-2.668 1.039-.813.43-1.14.14-1.43-.57a101.344 101.344 0 0 0-1.781-4.141c-.32-.68-.18-.98.52-1.281 3.652-1.57 7.359-2.93 11.218-3.88 4.492-1.12 9.05-1.76 13.691-1.737m68.442-4.672c-2.281-4.66-3.41-9.309-3.75-14.16-.57-8.168.86-16.04 3.418-23.79 2.91-8.832 3.5-17.808.691-26.832a30.353 30.353 0 0 0-4.691-9.18c-.68-.91-.64-2.14-1.2-3.128-.21-.371.16-.45.462-.379.71.168 1.34.5 1.91.95 3.097 2.39 4.847 5.698 6.187 9.26 1.692 4.45 2.453 9.09 2.871 13.81.61 6.84.371 13.68-.258 20.5-.94 10.16-2.75 20.18-5 30.12-.183.84-.37 1.688-.64 2.829"/></svg>