<svg width="640pt" height="640" viewBox="0 0 640 480" version="1.2" xmlns:xlink="http://www.w3.org/1999/xlink" xmlns="http://www.w3.org/2000/svg"><defs><clipPath id="b"><path d="M.531.191h40.887v35.45H.531Zm0 0"/></clipPath><clipPath id="c"><path d="M.082.445h40.883v35.446H.082Zm0 0"/></clipPath><clipPath id="d"><path d="M.313 0h35.425v35.02H.313Zm0 0"/></clipPath><clipPath id="e"><path d="M.766.535h35.422v35.02H.766Zm0 0"/></clipPath><mask id="g"><g filter="url(#a)"><path style="fill:#000;fill-opacity:.699997;stroke:none" d="M0 0h640v480H0z"/></g></mask><mask id="i"><g filter="url(#a)"><path style="fill:#000;fill-opacity:.399994;stroke:none" d="M0 0h640v480H0z"/></g></mask><mask id="k"><g filter="url(#a)"><path style="fill:#000;fill-opacity:.699997;stroke:none" d="M0 0h640v480H0z"/></g></mask><mask id="m"><g filter="url(#a)"><path style="fill:#000;fill-opacity:.399994;stroke:none" d="M0 0h640v480H0z"/></g></mask><g clip-path="url(#b)" id="f"><path style="stroke:none;fill-rule:nonzero;fill:#ba9bc9;fill-opacity:1" d="m23.652 3.488-2.59 2.5-2.5-2.59C14.543-.77 7.906-.887 3.739 3.133-.43 7.153-.547 13.793 3.473 17.96l2.496 2.586L20.53 35.64l7.547-7.282 7.543-7.28 2.59-2.497c4.168-4.02 4.285-10.66.266-14.828-4.02-4.168-10.66-4.285-14.825-.266"/></g><g clip-path="url(#c)" id="h"><path style="stroke:none;fill-rule:nonzero;fill:#ba9bc9;fill-opacity:1" d="m23.2 3.742-2.59 2.496-2.497-2.59C14.09-.52 7.453-.637 3.285 3.383-.883 7.406-1 14.043 3.02 18.21l2.5 2.59 7.28 7.543 7.278 7.547 7.547-7.282 7.547-7.277 2.59-2.5c4.164-4.02 4.285-10.66.265-14.824v-.004C34.004-.16 27.367-.281 23.2 3.742"/></g><g clip-path="url(#d)" id="j"><path style="stroke:none;fill-rule:nonzero;fill:#ba9bc9;fill-opacity:1" d="M25.867 26.336c-.375 0-.715-.203-.918-.52a8.258 8.258 0 0 0-6.926-3.75 8.261 8.261 0 0 0-6.921 3.75c-.207.317-.543.52-.922.52-.844 0-1.375-.938-.914-1.645a10.402 10.402 0 0 1 8.757-4.78c3.676 0 6.907 1.905 8.762 4.78.457.707-.07 1.645-.918 1.645M11.168 12.23c.867 0 1.566.704 1.566 1.567a1.567 1.567 0 1 1-3.132 0c0-.863.699-1.567 1.566-1.567m13.715 0a1.569 1.569 0 0 1 0 3.137 1.567 1.567 0 0 1-1.567-1.57c0-.863.7-1.567 1.567-1.567M18.023 0C8.31 0 .43 7.82.313 17.508.43 27.199 8.309 35.02 18.023 35.02c9.72 0 17.598-7.82 17.715-17.512C35.621 7.82 27.742 0 18.023 0"/></g><g clip-path="url(#e)" id="l"><path style="stroke:none;fill-rule:nonzero;fill:#ba9bc9;fill-opacity:1" d="M26.32 26.875c-.379 0-.715-.207-.922-.523a8.256 8.256 0 0 0-6.921-3.75 8.256 8.256 0 0 0-6.922 3.75c-.207.316-.543.523-.922.523-.844 0-1.375-.941-.918-1.648a10.414 10.414 0 0 1 8.762-4.782c3.675 0 6.906 1.907 8.761 4.782.457.707-.074 1.648-.918 1.648m-14.699-14.11a1.57 1.57 0 0 1 0 3.137 1.57 1.57 0 1 1 0-3.136m13.715 0a1.57 1.57 0 0 1 0 3.136 1.57 1.57 0 1 1 0-3.136M18.476.536C8.763.535.88 8.355.767 18.045c.113 9.688 7.996 17.509 17.71 17.509 9.715 0 17.598-7.82 17.712-17.508C36.074 8.355 28.19.535 18.477.535"/></g><filter id="a" filterUnits="objectBoundingBox" x="0" y="0" width="1" height="1"><feColorMatrix in="SourceGraphic" values="0 0 0 0 1 0 0 0 0 1 0 0 0 0 1 0 0 0 1 0"/></filter></defs><path style="stroke:none;fill-rule:nonzero;fill:#ba9bc9;fill-opacity:1" d="m503.164 197.43-3.52 3.398-3.402-3.523c-5.472-5.672-14.504-5.832-20.176-.364-5.671 5.473-5.836 14.508-.363 20.18l3.402 3.524 19.813 20.539 10.27-9.91 10.269-9.907 3.523-3.398c5.672-5.473 5.836-14.508.364-20.18-5.473-5.672-14.508-5.832-20.18-.36"/><use xlink:href="#f" transform="translate(510 133)" mask="url(#g)"/><use xlink:href="#h" transform="translate(479 73)" mask="url(#i)"/><path style="stroke:none;fill-rule:nonzero;fill:#8242b5;fill-opacity:1" d="m280.531 347.332-63.527-46.328-11.09 69.34c-1.05 6.707 5.922 11.793 11.984 8.742Zm139.895-206.953-49.133-35.832a8.906 8.906 0 0 0-12.445 1.95l-70.485 96.651-57.48 78.825-5.711 7.828 63.527 46.328 5.711-7.828 57.48-78.824 70.485-96.653a8.906 8.906 0 0 0-1.95-12.445"/><path style="stroke:none;fill-rule:nonzero;fill:#ba9bc9;fill-opacity:1" d="M151.527 275.29c-.53 0-1.004-.29-1.297-.735a11.634 11.634 0 0 0-9.753-5.285 11.634 11.634 0 0 0-9.754 5.285c-.293.445-.77.734-1.297.734-1.192 0-1.942-1.32-1.293-2.32 2.613-4.051 7.164-6.735 12.344-6.735s9.73 2.684 12.343 6.735c.649 1-.101 2.32-1.293 2.32m-20.714-19.875a2.208 2.208 0 1 1-2.208 2.207c0-1.219.989-2.207 2.208-2.207m19.328 0a2.207 2.207 0 0 1 0 4.414 2.208 2.208 0 1 1 0-4.414m-9.664-17.238c-13.793 0-24.973 11.183-24.973 24.976 0 13.79 11.18 24.973 24.973 24.973s24.972-11.184 24.972-24.973c0-13.793-11.18-24.976-24.972-24.976"/><use xlink:href="#j" transform="translate(91 312)" mask="url(#k)"/><use xlink:href="#l" transform="translate(122 371)" mask="url(#m)"/><path style="stroke:none;fill-rule:nonzero;fill:#ba9bc9;fill-opacity:1" d="M415.918 368.91H256.672l-32.223 16.336h191.469a8.17 8.17 0 0 0 8.168-8.168 8.167 8.167 0 0 0-8.168-8.168m107.598 32.375c-14.93.395-29.868.594-44.805.57-6.637-.015-13.8.614-20.344-.707-7.59-1.539-11.191-7.296-12.246-14.593-.887-6.13-.344-12.38-.363-18.543-.024-7.508-.688-15.219 3.125-22.02 7.289-12.996 22.578-15.613 36.066-17.426 1.406-.191 1.973-1.902 1.746-3.074-2.382-12.316-5.05-25.566-1.574-37.945 2.707-9.649 10.488-19.867 21.48-19.121l-2.5-2.5c-.292 11.398-.328 22.855 1.442 34.152 1.719 10.969 5.652 19.606 11.621 28.793 1.524 2.344.793 4.754.613 7.586a304.078 304.078 0 0 0-.445 9.25c-.215 6.68-.215 13.367.012 20.043.437 12.969 1.738 25.883 3.761 38.7.5 3.167 5.32 1.823 4.82-1.329a305.054 305.054 0 0 1-3.612-38.32c-.192-6.363-.188-12.73.019-19.094.106-3.086.25-6.172.445-9.25.141-2.203 1.114-5.715.45-7.832-.598-1.89-2.735-3.477-3.852-5.086a45.721 45.721 0 0 1-3.91-6.855c-2.305-4.957-3.75-10.305-4.723-15.672-2.094-11.543-1.941-23.403-1.64-35.086.035-1.418-1.18-2.414-2.5-2.5-11.66-.79-20.704 8.527-24.848 18.629-5.82 14.195-2.688 30.257.117 44.765.582-1.027 1.164-2.05 1.746-3.074-14.687 1.973-30.504 5.344-38.695 19.09-4.121 6.914-4.281 14.601-4.195 22.434.082 7.3-.575 14.71.46 21.964.82 5.774 2.95 11.48 7.704 15.145 5.523 4.258 12.742 4.344 19.402 4.422 18.406.207 36.824-.028 55.223-.516 3.21-.086 3.226-5.086 0-5"/><path style="fill-rule:nonzero;fill:#ba9bc9;fill-opacity:1;stroke-width:.5;stroke-linecap:butt;stroke-linejoin:miter;stroke:#ba9bc9;stroke-opacity:1;stroke-miterlimit:10" d="M0 0a4.75 4.75 0 0 1-4.75 4.75h-100.73c-2.317 0-4.243-2.222-4.395-5.097a415.693 415.693 0 0 1-.473-33.195 415.157 415.157 0 0 1 2.399-35.215c.3-2.715 2.168-4.723 4.37-4.719l20.298.051h.008l2.164.086H-4.75A4.748 4.748 0 0 1 0-68.589Zm0 0" transform="matrix(1 0 0 -1 640 332.954)"/><path style="stroke:none;fill-rule:nonzero;fill:#ba9bc9;fill-opacity:1" d="M116.484 79.887a1567.26 1567.26 0 0 1 44.805-.57c6.637.011 13.8-.618 20.344.706 7.59 1.536 11.191 7.293 12.246 14.59.887 6.13.344 12.383.363 18.547.024 7.504.688 15.219-3.125 22.02-7.289 12.996-22.578 15.613-36.066 17.425-1.406.188-1.973 1.899-1.746 3.075 2.382 12.312 5.05 25.566 1.574 37.945-2.707 9.648-10.488 19.863-21.477 19.121l2.5 2.5c.29-11.402.325-22.855-1.445-34.152-1.719-10.973-5.652-19.61-11.621-28.793-1.523-2.348-.793-4.754-.613-7.586.195-3.082.343-6.164.445-9.25.215-6.68.215-13.367-.012-20.047-.437-12.969-1.738-25.883-3.761-38.7-.5-3.167-5.32-1.82-4.82 1.333a304.992 304.992 0 0 1 3.612 38.316c.192 6.363.188 12.735-.019 19.098-.106 3.086-.25 6.168-.445 9.25-.141 2.203-1.114 5.715-.446 7.828.594 1.894 2.73 3.48 3.848 5.086a45.955 45.955 0 0 1 3.91 6.86c2.305 4.956 3.75 10.304 4.723 15.667 2.094 11.547 1.941 23.406 1.644 35.09-.039 1.414 1.176 2.41 2.5 2.5 11.657.79 20.7-8.531 24.844-18.633 5.824-14.195 2.688-30.258-.117-44.761-.582 1.023-1.164 2.046-1.746 3.074 14.687-1.977 30.504-5.348 38.695-19.094 4.121-6.91 4.281-14.598 4.195-22.434-.082-7.3.575-14.707-.46-21.96-.82-5.778-2.95-11.485-7.704-15.149-5.523-4.258-12.742-4.344-19.402-4.418-18.406-.21-36.824.027-55.223.516-3.21.082-3.226 5.082 0 5"/><path style="fill-rule:nonzero;fill:#ba9bc9;fill-opacity:1;stroke-width:.5;stroke-linecap:butt;stroke-linejoin:miter;stroke:#ba9bc9;stroke-opacity:1;stroke-miterlimit:10" d="M0 .001a4.748 4.748 0 0 1 4.75-4.75h100.73c2.317 0 4.243 2.223 4.395 5.098.547 10.082.781 21.203.473 33.195a415.058 415.058 0 0 1-2.399 35.21c-.3 2.716-2.168 4.727-4.37 4.72l-20.298-.047h-.008l-2.164-.086H4.75A4.75 4.75 0 0 1 0 68.59Zm0 0" transform="matrix(1 0 0 -1 0 148.216)"/></svg>