<svg xml:space="preserve" width="853.333" height="640" xmlns="http://www.w3.org/2000/svg"><defs><clipPath clipPathUnits="userSpaceOnUse" id="a"><path d="M0 480h640V0H0Z"/></clipPath><clipPath clipPathUnits="userSpaceOnUse" id="b"><path d="M0 480h640V0H0Z"/></clipPath></defs><g clip-path="url(#a)" transform="matrix(1.33333 0 0 -1.33333 0 640)"><path d="M0 0c-36.471 0-66.036-29.566-66.036-66.036 0-20.647 9.477-39.078 24.316-51.187 5.925 16.895 16.137 29.769 28.421 35.25-8.203 4.644-13.743 13.444-13.743 23.542 0 14.935 12.107 27.042 27.042 27.042 14.935 0 27.042-12.107 27.042-27.042 0-10.098-5.54-18.898-13.742-23.542 12.283-5.481 22.495-18.355 28.42-35.25 14.839 12.109 24.316 30.54 24.316 51.187C66.036-29.566 36.471 0 0 0" style="fill:#ba9bc9;fill-opacity:1;fill-rule:nonzero;stroke:none" transform="translate(472.086 141.606)"/><path d="M0 0c7.388 4.182 12.377 12.108 12.377 21.203 0 13.451-10.904 24.355-24.355 24.355s-24.355-10.904-24.355-24.355c0-9.095 4.989-17.021 12.377-21.203-11.696-5.219-21.303-17.882-26.47-34.397 11.213-6.805 24.373-10.725 38.448-10.725s27.235 3.92 38.448 10.725C21.302-17.882 11.696-5.219 0 0" style="fill:#ba9bc9;fill-opacity:1;fill-rule:nonzero;stroke:none" transform="translate(208.467 409.623)"/><path d="M0 0c5.403 3.059 9.053 8.856 9.053 15.508 0 9.839-7.976 17.814-17.814 17.814-9.838 0-17.814-7.975-17.814-17.814 0-6.652 3.65-12.449 9.053-15.508-8.555-3.817-15.581-13.079-19.361-25.158 8.202-4.978 17.827-7.845 28.122-7.845 10.295 0 19.92 2.867 28.122 7.845C15.581-13.079 8.555-3.817 0 0" style="fill:#ba9bc9;fill-opacity:1;fill-rule:nonzero;stroke:none" transform="translate(152.126 55.851)"/><path d="M0 0c-26.976 0-48.844-21.868-48.844-48.844 0-15.271 7.01-28.904 17.986-37.861 4.382 12.497 11.935 22.019 21.021 26.073-6.067 3.435-10.165 9.944-10.165 17.414 0 11.046 8.955 20.001 20.002 20.001 11.047 0 20.002-8.955 20.002-20.001 0-7.47-4.098-13.979-10.165-17.414 9.086-4.054 16.639-13.576 21.021-26.073 10.976 8.957 17.986 22.59 17.986 37.861C48.844-21.868 26.976 0 0 0" style="fill:#ba9bc9;fill-opacity:1;fill-rule:nonzero;stroke:none" transform="translate(96.33 368.685)"/><path d="M0 0c5.403 3.059 9.053 8.856 9.053 15.508 0 9.839-7.976 17.814-17.814 17.814-9.838 0-17.814-7.975-17.814-17.814 0-6.652 3.65-12.449 9.053-15.508-8.555-3.817-15.581-13.079-19.361-25.158 8.202-4.978 17.827-7.845 28.122-7.845 10.295 0 19.92 2.867 28.122 7.845C15.581-13.079 8.555-3.817 0 0" style="fill:#ba9bc9;fill-opacity:1;fill-rule:nonzero;stroke:none" transform="translate(506.39 412.853)"/><path d="M0 0c5.403 3.059 9.053 8.856 9.053 15.508 0 9.839-7.976 17.814-17.814 17.814-9.838 0-17.814-7.975-17.814-17.814 0-6.652 3.65-12.449 9.053-15.508-8.555-3.817-15.581-13.079-19.361-25.158 8.202-4.978 17.827-7.845 28.122-7.845 10.295 0 19.92 2.867 28.122 7.845C15.581-13.079 8.555-3.817 0 0" style="fill:#ba9bc9;fill-opacity:1;fill-rule:nonzero;stroke:none" transform="translate(76.97 185.396)"/><path d="M0 0c-26.976 0-48.844-21.868-48.844-48.844 0-15.271 7.01-28.904 17.986-37.861 4.382 12.497 11.935 22.019 21.021 26.073-6.067 3.435-10.165 9.944-10.165 17.414 0 11.046 8.955 20.001 20.002 20.001 11.047 0 20.002-8.955 20.002-20.001 0-7.47-4.098-13.979-10.165-17.414 9.086-4.054 16.639-13.576 21.021-26.073 10.976 8.957 17.986 22.59 17.986 37.861C48.844-21.868 26.976 0 0 0" style="fill:#ba9bc9;fill-opacity:1;fill-rule:nonzero;stroke:none" transform="translate(245.333 160.37)"/><path d="M0 0c-26.976 0-48.844-21.868-48.844-48.844 0-15.271 7.01-28.904 17.986-37.861 4.382 12.497 11.935 22.02 21.021 26.073-6.067 3.435-10.165 9.944-10.165 17.414 0 11.046 8.955 20.001 20.002 20.001 11.047 0 20.002-8.955 20.002-20.001 0-7.47-4.098-13.979-10.165-17.414 9.086-4.053 16.639-13.576 21.021-26.073 10.976 8.957 17.986 22.59 17.986 37.861C48.844-21.868 26.976 0 0 0" style="fill:#ba9bc9;fill-opacity:1;fill-rule:nonzero;stroke:none" transform="translate(343.021 430.671)"/><path d="M0 0c7.388 4.182 12.377 12.108 12.377 21.203 0 13.451-10.904 24.355-24.355 24.355s-24.355-10.904-24.355-24.355c0-9.095 4.989-17.021 12.377-21.203-11.696-5.219-21.303-17.882-26.47-34.397 11.213-6.805 24.373-10.725 38.448-10.725s27.235 3.92 38.448 10.725C21.302-17.882 11.696-5.219 0 0" style="fill:#ba9bc9;fill-opacity:1;fill-rule:nonzero;stroke:none" transform="translate(596.481 281.763)"/><path d="M0 0c5.403 3.059 9.053 8.856 9.053 15.508 0 9.839-7.976 17.814-17.814 17.814-9.838 0-17.814-7.975-17.814-17.814 0-6.652 3.65-12.449 9.053-15.508-8.555-3.817-15.581-13.079-19.361-25.158 8.202-4.978 17.827-7.845 28.122-7.845 10.295 0 19.92 2.867 28.122 7.845C15.581-13.079 8.555-3.817 0 0" style="fill:#ba9bc9;fill-opacity:1;fill-rule:nonzero;stroke:none" transform="translate(194.32 238.046)"/><path d="M0 0c-19.054 0-34.5-15.446-34.5-34.5 0-10.786 4.951-20.415 12.704-26.742 3.096 8.827 8.43 15.553 14.848 18.416-4.285 2.426-7.18 7.024-7.18 12.3 0 7.802 6.326 14.127 14.128 14.127 7.803 0 14.128-6.325 14.128-14.127 0-5.276-2.894-9.874-7.18-12.3 6.418-2.863 11.752-9.589 14.848-18.416C29.549-54.916 34.5-45.286 34.5-34.5 34.5-15.446 19.054 0 0 0" style="fill:#ba9bc9;fill-opacity:1;fill-rule:nonzero;stroke:none" transform="translate(596.475 160.37)"/><path d="M0 0c-20.109 0-36.411-16.302-36.411-36.411 0-11.384 5.225-21.547 13.408-28.224 3.267 9.316 8.897 16.415 15.67 19.437-4.523 2.56-7.577 7.412-7.577 12.981 0 8.234 6.675 14.91 14.91 14.91s14.91-6.676 14.91-14.91c0-5.569-3.054-10.421-7.577-12.981 6.773-3.022 12.403-10.121 15.67-19.437 8.182 6.677 13.408 16.84 13.408 28.224C36.411-16.302 20.109 0 0 0" style="fill:#ba9bc9;fill-opacity:1;fill-rule:nonzero;stroke:none" transform="translate(484.52 240)"/><path d="m0 0 80.535-85.655" style="fill:none;stroke:#ba9bc9;stroke-width:1;stroke-linecap:butt;stroke-linejoin:miter;stroke-miterlimit:10;stroke-dasharray:none;stroke-opacity:1" transform="translate(223.484 361.405)"/><path d="m0 0-23.126-13.403" style="fill:none;stroke:#ba9bc9;stroke-width:1;stroke-linecap:butt;stroke-linejoin:miter;stroke-miterlimit:10;stroke-dasharray:none;stroke-opacity:1" transform="translate(166.49 364.501)"/><path d="m0 0 29.153-160.785" style="fill:none;stroke:#ba9bc9;stroke-width:1;stroke-linecap:butt;stroke-linejoin:miter;stroke-miterlimit:10;stroke-dasharray:none;stroke-opacity:1" transform="translate(109.067 265.405)"/><path d="m0 0 48.147-46.822" style="fill:none;stroke:#ba9bc9;stroke-width:1;stroke-linecap:butt;stroke-linejoin:miter;stroke-miterlimit:10;stroke-dasharray:none;stroke-opacity:1" transform="translate(75.497 140.84)"/><path d="m0 0 17.191-36.127" style="fill:none;stroke:#ba9bc9;stroke-width:1;stroke-linecap:butt;stroke-linejoin:miter;stroke-miterlimit:10;stroke-dasharray:none;stroke-opacity:1" transform="translate(196.489 196.497)"/><path d="m0 0 76.492 13.759" style="fill:none;stroke:#ba9bc9;stroke-width:1;stroke-linecap:butt;stroke-linejoin:miter;stroke-miterlimit:10;stroke-dasharray:none;stroke-opacity:1" transform="translate(213.68 231.834)"/><path d="m0 0 24.221-12.996" style="fill:none;stroke:#ba9bc9;stroke-width:1;stroke-linecap:butt;stroke-linejoin:miter;stroke-miterlimit:10;stroke-dasharray:none;stroke-opacity:1" transform="translate(138.22 275.75)"/><path d="m0 0-57.276-33.129" style="fill:none;stroke:#ba9bc9;stroke-width:1;stroke-linecap:butt;stroke-linejoin:miter;stroke-miterlimit:10;stroke-dasharray:none;stroke-opacity:1" transform="translate(109.067 42.117)"/><path d="m0 0-27.166 17.587" style="fill:none;stroke:#ba9bc9;stroke-width:1;stroke-linecap:butt;stroke-linejoin:miter;stroke-miterlimit:10;stroke-dasharray:none;stroke-opacity:1" transform="translate(40.087 351.098)"/><path d="m0 0-28.27 25.84" style="fill:none;stroke:#ba9bc9;stroke-width:1;stroke-linecap:butt;stroke-linejoin:miter;stroke-miterlimit:10;stroke-dasharray:none;stroke-opacity:1" transform="translate(166.49 449.601)"/><path d="m0 0 60.147-6.62" style="fill:none;stroke:#ba9bc9;stroke-width:1;stroke-linecap:butt;stroke-linejoin:miter;stroke-miterlimit:10;stroke-dasharray:none;stroke-opacity:1" transform="translate(230.024 409.841)"/><path d="M0 0v35.779" style="fill:none;stroke:#ba9bc9;stroke-width:1;stroke-linecap:butt;stroke-linejoin:miter;stroke-miterlimit:10;stroke-dasharray:none;stroke-opacity:1" transform="translate(343.497 439.663)"/><path d="m0 0 69.864 17.227" style="fill:none;stroke:#ba9bc9;stroke-width:1;stroke-linecap:butt;stroke-linejoin:miter;stroke-miterlimit:10;stroke-dasharray:none;stroke-opacity:1" transform="translate(399.644 397.92)"/><path d="m0 0 102.33 108" style="fill:none;stroke:#ba9bc9;stroke-width:1;stroke-linecap:butt;stroke-linejoin:miter;stroke-miterlimit:10;stroke-dasharray:none;stroke-opacity:1" transform="translate(367.178 265.405)"/><path d="M0 0v-124.564" style="fill:none;stroke:#ba9bc9;stroke-width:1;stroke-linecap:butt;stroke-linejoin:miter;stroke-miterlimit:10;stroke-dasharray:none;stroke-opacity:1" transform="translate(494.393 373.405)"/><path d="m0 0 49.474-43.287" style="fill:none;stroke:#ba9bc9;stroke-width:1;stroke-linecap:butt;stroke-linejoin:miter;stroke-miterlimit:10;stroke-dasharray:none;stroke-opacity:1" transform="translate(525.753 377.6)"/><path d="m0 0 52.126 22.969" style="fill:none;stroke:#ba9bc9;stroke-width:1;stroke-linecap:butt;stroke-linejoin:miter;stroke-miterlimit:10;stroke-dasharray:none;stroke-opacity:1" transform="translate(525.751 434.583)"/><path d="M0 0a3.368 3.368 0 1 0-6.736 0A3.368 3.368 0 0 0 0 0" style="fill:#ba9bc9;fill-opacity:1;fill-rule:nonzero;stroke:none" transform="translate(497.76 246.603)"/><path d="M0 0v37.104" style="fill:none;stroke:#ba9bc9;stroke-width:1;stroke-linecap:butt;stroke-linejoin:miter;stroke-miterlimit:10;stroke-dasharray:none;stroke-opacity:1" transform="translate(349.929 293.233)"/><path d="M0 0a3.368 3.368 0 1 0-6.736 0A3.368 3.368 0 0 0 0 0" style="fill:#ba9bc9;fill-opacity:1;fill-rule:nonzero;stroke:none" transform="translate(353.297 330.337)"/><path d="M0 0a3.368 3.368 0 1 0-6.736 0A3.368 3.368 0 0 0 0 0" style="fill:#ba9bc9;fill-opacity:1;fill-rule:nonzero;stroke:none" transform="translate(353.297 293.233)"/><path d="m0 0-79.565 24.215" style="fill:none;stroke:#ba9bc9;stroke-width:1;stroke-linecap:butt;stroke-linejoin:miter;stroke-miterlimit:10;stroke-dasharray:none;stroke-opacity:1" transform="translate(443.374 214.718)"/><path d="M0 0a3.368 3.368 0 1 0-1.976-6.44A3.368 3.368 0 0 0 0 0" style="fill:#ba9bc9;fill-opacity:1;fill-rule:nonzero;stroke:none" transform="translate(364.797 242.153)"/><path d="M0 0a3.368 3.368 0 1 0-1.976-6.44A3.368 3.368 0 0 0 0 0" style="fill:#ba9bc9;fill-opacity:1;fill-rule:nonzero;stroke:none" transform="translate(444.362 217.938)"/><path d="M0 0a3.368 3.368 0 1 0-6.736 0A3.368 3.368 0 0 0 0 0" style="fill:#ba9bc9;fill-opacity:1;fill-rule:nonzero;stroke:none" transform="translate(370.546 265.405)"/><path d="M0 0a3.368 3.368 0 1 0-6.736 0A3.368 3.368 0 0 0 0 0" style="fill:#ba9bc9;fill-opacity:1;fill-rule:nonzero;stroke:none" transform="translate(472.876 373.405)"/><path d="M0 0a3.368 3.368 0 1 0-6.736 0A3.368 3.368 0 0 0 0 0" style="fill:#ba9bc9;fill-opacity:1;fill-rule:nonzero;stroke:none" transform="translate(578.595 334.313)"/><path d="M0 0a3.368 3.368 0 1 0-6.736 0A3.368 3.368 0 0 0 0 0" style="fill:#ba9bc9;fill-opacity:1;fill-rule:nonzero;stroke:none" transform="translate(497.76 370.037)"/><path d="M0 0a3.368 3.368 0 1 0-6.736 0A3.368 3.368 0 0 0 0 0" style="fill:#ba9bc9;fill-opacity:1;fill-rule:nonzero;stroke:none" transform="translate(529.121 377.6)"/><path d="M0 0a3.368 3.368 0 1 0-6.736 0A3.368 3.368 0 0 0 0 0" style="fill:#ba9bc9;fill-opacity:1;fill-rule:nonzero;stroke:none" transform="translate(529.12 434.583)"/><path d="M0 0a3.368 3.368 0 1 0-6.736 0A3.368 3.368 0 0 0 0 0" style="fill:#ba9bc9;fill-opacity:1;fill-rule:nonzero;stroke:none" transform="translate(581.245 457.552)"/><path d="M0 0a3.368 3.368 0 1 0-6.736 0A3.368 3.368 0 0 0 0 0" style="fill:#ba9bc9;fill-opacity:1;fill-rule:nonzero;stroke:none" transform="translate(472.876 415.147)"/><path d="M0 0a3.368 3.368 0 1 0-6.736 0A3.368 3.368 0 0 0 0 0" style="fill:#ba9bc9;fill-opacity:1;fill-rule:nonzero;stroke:none" transform="translate(403.012 397.92)"/><path d="M0 0a3.368 3.368 0 1 0-6.736 0A3.368 3.368 0 0 0 0 0" style="fill:#ba9bc9;fill-opacity:1;fill-rule:nonzero;stroke:none" transform="translate(346.865 439.663)"/><path d="M0 0a3.368 3.368 0 1 0-6.736 0A3.368 3.368 0 0 0 0 0" style="fill:#ba9bc9;fill-opacity:1;fill-rule:nonzero;stroke:none" transform="translate(346.39 475.442)"/><path d="M0 0a3.368 3.368 0 1 0-6.736 0A3.368 3.368 0 0 0 0 0" style="fill:#ba9bc9;fill-opacity:1;fill-rule:nonzero;stroke:none" transform="translate(233.393 409.841)"/><path d="M0 0a3.368 3.368 0 1 0-6.736 0A3.368 3.368 0 0 0 0 0" style="fill:#ba9bc9;fill-opacity:1;fill-rule:nonzero;stroke:none" transform="translate(293.54 403.22)"/><path d="M0 0a3.368 3.368 0 1 0-6.736 0A3.368 3.368 0 0 0 0 0" style="fill:#ba9bc9;fill-opacity:1;fill-rule:nonzero;stroke:none" transform="translate(169.859 449.601)"/><path d="M0 0a3.368 3.368 0 1 0-6.736 0A3.368 3.368 0 0 0 0 0" style="fill:#ba9bc9;fill-opacity:1;fill-rule:nonzero;stroke:none" transform="translate(141.589 475.442)"/><path d="M0 0a3.368 3.368 0 1 0-6.736 0A3.368 3.368 0 0 0 0 0" style="fill:#ba9bc9;fill-opacity:1;fill-rule:nonzero;stroke:none" transform="translate(169.859 364.501)"/><path d="M0 0a3.368 3.368 0 1 0-6.736 0A3.368 3.368 0 0 0 0 0" style="fill:#ba9bc9;fill-opacity:1;fill-rule:nonzero;stroke:none" transform="translate(307.387 275.75)"/><path d="M0 0a3.368 3.368 0 1 0-6.736 0A3.368 3.368 0 0 0 0 0" style="fill:#ba9bc9;fill-opacity:1;fill-rule:nonzero;stroke:none" transform="translate(226.852 361.405)"/><path d="M0 0a3.368 3.368 0 1 0-6.736 0A3.368 3.368 0 0 0 0 0" style="fill:#ba9bc9;fill-opacity:1;fill-rule:nonzero;stroke:none" transform="translate(146.733 351.098)"/><path d="M0 0a3.368 3.368 0 1 0-6.736 0A3.368 3.368 0 0 0 0 0" style="fill:#ba9bc9;fill-opacity:1;fill-rule:nonzero;stroke:none" transform="translate(112.436 265.405)"/><path d="M0 0a3.368 3.368 0 1 0-6.736 0A3.368 3.368 0 0 0 0 0" style="fill:#ba9bc9;fill-opacity:1;fill-rule:nonzero;stroke:none" transform="translate(293.54 245.594)"/><path d="M0 0a3.368 3.368 0 1 0-6.736 0A3.368 3.368 0 0 0 0 0" style="fill:#ba9bc9;fill-opacity:1;fill-rule:nonzero;stroke:none" transform="translate(217.048 231.834)"/><path d="M0 0a3.368 3.368 0 1 0-6.736 0A3.368 3.368 0 0 0 0 0" style="fill:#ba9bc9;fill-opacity:1;fill-rule:nonzero;stroke:none" transform="translate(165.81 262.755)"/><path d="M0 0a3.368 3.368 0 1 0-6.736 0A3.368 3.368 0 0 0 0 0" style="fill:#ba9bc9;fill-opacity:1;fill-rule:nonzero;stroke:none" transform="translate(141.589 275.75)"/><path d="M0 0a3.368 3.368 0 1 0-6.736 0A3.368 3.368 0 0 0 0 0" style="fill:#ba9bc9;fill-opacity:1;fill-rule:nonzero;stroke:none" transform="translate(43.455 351.098)"/><path d="M0 0a3.368 3.368 0 1 0-6.736 0A3.368 3.368 0 0 0 0 0" style="fill:#ba9bc9;fill-opacity:1;fill-rule:nonzero;stroke:none" transform="translate(16.288 368.685)"/><path d="M0 0a3.368 3.368 0 1 0-6.736 0A3.368 3.368 0 0 0 0 0" style="fill:#ba9bc9;fill-opacity:1;fill-rule:nonzero;stroke:none" transform="translate(199.857 196.497)"/><path d="M0 0a3.368 3.368 0 1 0-6.736 0A3.368 3.368 0 0 0 0 0" style="fill:#ba9bc9;fill-opacity:1;fill-rule:nonzero;stroke:none" transform="translate(217.048 160.37)"/><path d="M0 0a3.368 3.368 0 1 0-6.736 0A3.368 3.368 0 0 0 0 0" style="fill:#ba9bc9;fill-opacity:1;fill-rule:nonzero;stroke:none" transform="translate(141.589 104.62)"/><path d="M0 0a3.368 3.368 0 1 0-6.736 0A3.368 3.368 0 0 0 0 0" style="fill:#ba9bc9;fill-opacity:1;fill-rule:nonzero;stroke:none" transform="translate(112.436 42.117)"/><path d="M0 0a3.368 3.368 0 1 0-6.736 0A3.368 3.368 0 0 0 0 0" style="fill:#ba9bc9;fill-opacity:1;fill-rule:nonzero;stroke:none" transform="translate(55.16 8.988)"/><path d="M0 0a3.368 3.368 0 1 0-6.736 0A3.368 3.368 0 0 0 0 0" style="fill:#ba9bc9;fill-opacity:1;fill-rule:nonzero;stroke:none" transform="translate(78.865 140.84)"/><path d="M0 0a3.368 3.368 0 1 0-6.736 0A3.368 3.368 0 0 0 0 0" style="fill:#ba9bc9;fill-opacity:1;fill-rule:nonzero;stroke:none" transform="translate(127.012 94.018)"/><path d="M0 0a3.368 3.368 0 1 0-6.736 0A3.368 3.368 0 0 0 0 0" style="fill:#ba9bc9;fill-opacity:1;fill-rule:nonzero;stroke:none" transform="translate(245.319 63.982)"/><path d="M0 0a3.368 3.368 0 1 0-6.736 0A3.368 3.368 0 0 0 0 0" style="fill:#ba9bc9;fill-opacity:1;fill-rule:nonzero;stroke:none" transform="translate(179.724 42.117)"/><path d="m0 0-51.681-23.978" style="fill:none;stroke:#ba9bc9;stroke-width:1;stroke-linecap:butt;stroke-linejoin:miter;stroke-miterlimit:10;stroke-dasharray:none;stroke-opacity:1" transform="translate(584.503 228.466)"/><path d="M0 0v-63.166" style="fill:none;stroke:#ba9bc9;stroke-width:1;stroke-linecap:butt;stroke-linejoin:miter;stroke-miterlimit:10;stroke-dasharray:none;stroke-opacity:1" transform="translate(596.475 231.834)"/><path d="m0 0 17.215 27.575" style="fill:none;stroke:#ba9bc9;stroke-width:1;stroke-linecap:butt;stroke-linejoin:miter;stroke-miterlimit:10;stroke-dasharray:none;stroke-opacity:1" transform="translate(290.172 147.79)"/><path d="m0 0 95.625-9.949" style="fill:none;stroke:#ba9bc9;stroke-width:1;stroke-linecap:butt;stroke-linejoin:miter;stroke-miterlimit:10;stroke-dasharray:none;stroke-opacity:1" transform="translate(300.65 99.128)"/><path d="m0 0-2.936-18.11" style="fill:none;stroke:#ba9bc9;stroke-width:1;stroke-linecap:butt;stroke-linejoin:miter;stroke-miterlimit:10;stroke-dasharray:none;stroke-opacity:1" transform="translate(484.52 168.669)"/><path d="m0 0 22.969 8.363" style="fill:none;stroke:#ba9bc9;stroke-width:1;stroke-linecap:butt;stroke-linejoin:miter;stroke-miterlimit:10;stroke-dasharray:none;stroke-opacity:1" transform="translate(532.822 117.017)"/><path d="m0 0 65.595 21.865" style="fill:none;stroke:#ba9bc9;stroke-width:1;stroke-linecap:butt;stroke-linejoin:miter;stroke-miterlimit:10;stroke-dasharray:none;stroke-opacity:1" transform="translate(176.356 42.117)"/><path d="m0 0 26.42-54.994" style="fill:none;stroke:#ba9bc9;stroke-width:1;stroke-linecap:butt;stroke-linejoin:miter;stroke-miterlimit:10;stroke-dasharray:none;stroke-opacity:1" transform="translate(263.752 63.982)"/><path d="M0 0a3.368 3.368 0 1 0-6.736 0A3.368 3.368 0 0 0 0 0" style="fill:#ba9bc9;fill-opacity:1;fill-rule:nonzero;stroke:none" transform="translate(310.755 175.365)"/><path d="M0 0a3.368 3.368 0 1 0-6.736 0A3.368 3.368 0 0 0 0 0" style="fill:#ba9bc9;fill-opacity:1;fill-rule:nonzero;stroke:none" transform="translate(293.54 8.988)"/><path d="M0 0a3.368 3.368 0 1 0-6.736 0A3.368 3.368 0 0 0 0 0" style="fill:#ba9bc9;fill-opacity:1;fill-rule:nonzero;stroke:none" transform="translate(267.12 63.982)"/><path d="M0 0a3.368 3.368 0 1 0-6.736 0A3.368 3.368 0 0 0 0 0" style="fill:#ba9bc9;fill-opacity:1;fill-rule:nonzero;stroke:none" transform="translate(293.54 147.908)"/><path d="M0 0a3.368 3.368 0 1 0-6.736 0A3.368 3.368 0 0 0 0 0" style="fill:#ba9bc9;fill-opacity:1;fill-rule:nonzero;stroke:none" transform="translate(304.019 99.128)"/><path d="M0 0a3.368 3.368 0 1 0-6.736 0A3.368 3.368 0 0 0 0 0" style="fill:#ba9bc9;fill-opacity:1;fill-rule:nonzero;stroke:none" transform="translate(399.644 89.178)"/><path d="M0 0a3.368 3.368 0 1 0-6.736 0A3.368 3.368 0 0 0 0 0" style="fill:#ba9bc9;fill-opacity:1;fill-rule:nonzero;stroke:none" transform="translate(599.843 168.669)"/><path d="M0 0a3.368 3.368 0 1 0-6.736 0A3.368 3.368 0 0 0 0 0" style="fill:#ba9bc9;fill-opacity:1;fill-rule:nonzero;stroke:none" transform="translate(599.843 231.834)"/><path d="M0 0a3.368 3.368 0 1 0-6.736 0A3.368 3.368 0 0 0 0 0" style="fill:#ba9bc9;fill-opacity:1;fill-rule:nonzero;stroke:none" transform="translate(558.356 125.38)"/><path d="M0 0a3.368 3.368 0 1 0-6.736 0A3.368 3.368 0 0 0 0 0" style="fill:#ba9bc9;fill-opacity:1;fill-rule:nonzero;stroke:none" transform="translate(536.19 117.017)"/><path d="M0 0a3.368 3.368 0 1 0-6.736 0A3.368 3.368 0 0 0 0 0" style="fill:#ba9bc9;fill-opacity:1;fill-rule:nonzero;stroke:none" transform="translate(587.871 228.466)"/><path d="M0 0a3.368 3.368 0 1 0-6.736 0A3.368 3.368 0 0 0 0 0" style="fill:#ba9bc9;fill-opacity:1;fill-rule:nonzero;stroke:none" transform="translate(536.19 204.488)"/><path d="M0 0a3.368 3.368 0 1 0-6.736 0A3.368 3.368 0 0 0 0 0" style="fill:#ba9bc9;fill-opacity:1;fill-rule:nonzero;stroke:none" transform="translate(484.95 150.558)"/><path d="M0 0a3.368 3.368 0 1 0-6.736 0A3.368 3.368 0 0 0 0 0" style="fill:#ba9bc9;fill-opacity:1;fill-rule:nonzero;stroke:none" transform="translate(487.887 168.669)"/></g><g clip-path="url(#b)" transform="matrix(1.33333 0 0 -1.33333 0 640)"><path d="M0 0c.41-.53.85-.79 1.54-.79 3.28 0 3.28-.02 3.28 3.25 0 .24-.01.48.01.72.1.97.75 1.47 1.69 1.26 4.92-1.13 8.24-3.98 9.52-8.97.11-.41.28-.74.53-1.08 3.69-4.82 5.77-10.29 6.5-16.28.93-7.62-.22-14.98-2.69-22.2-2.51-7.37-3.48-14.98-2.81-22.75.55-6.39 2.57-12.29 6.27-17.57.12-.16.22-.34.34-.54-5.4-1.91-10.32-4.63-14.91-7.94-3.4-2.45-6.57-5.16-9.36-8.29-.34-.38-.54-.6-1-.09-7.44 8.12-16.7 13.39-26.92 17.13-.87.32-1.04.68-.82 1.53 2.69 10.75 7.63 20.28 15.03 28.58 5.2 5.83 9.19 12.42 11.27 20.04.57 2.09.56 2.06-1.6 1.82-1.7-.19-3.42-.15-5.13-.12-3.37.06-6.71-.07-9.83-1.58-.68-.33-1.36-.67-1.91-1.19-.49-.46-.97-.54-1.58-.26-4.08 1.84-6.97 4.86-8.84 8.9-.35.75-.08 1.18.65 1.39 4.08 1.2 6.89 3.99 9.04 7.48 3.46 5.62 8.03 10.11 13.59 13.61.89.56.95.97.51 1.9-4.04 8.49-12.19 26.7-12.19 26.7S-3.95 5.08 0 0" style="fill:#ba9bc9;fill-opacity:1;fill-rule:nonzero;stroke:none" transform="translate(325.749 284.048)"/><path d="M0 0c13.61-.11 25.48-4.92 36.03-13.32 2.87-2.29 5.55-4.78 7.91-7.6.44-.52.61-.4.97.01A62.545 62.545 0 0 0 64.08-6.17C78.24.89 92.8 1.51 107.69-3.59c2.01-.69 3.97-1.48 5.91-2.34.64-.29.89-.54.53-1.28-.67-1.35-1.24-2.74-1.81-4.13-.27-.67-.6-.7-1.24-.44-5.54 2.27-11.28 3.8-17.24 4.33-8.66.77-17.07-.4-25.13-3.71-9.15-3.75-16.98-9.38-23.5-16.81-.58-.66-.85-.8-1.52-.05-8.95 10.15-19.87 17.09-33.19 19.9C.27-5.96-9.75-7.08-19.55-10.57c-.9-.32-1.83-.59-2.67-1.04-.81-.43-1.14-.14-1.43.57-.57 1.39-1.15 2.78-1.78 4.14-.32.68-.18.98.52 1.28 3.65 1.57 7.36 2.93 11.22 3.88C-9.2-.62-4.64.02 0 0" style="fill:#ba9bc9;fill-opacity:1;fill-rule:nonzero;stroke:none" transform="translate(280.649 199.818)"/><path d="M0 0c-2.28 4.66-3.41 9.31-3.75 14.16-.57 8.17.86 16.04 3.42 23.79 2.91 8.83 3.5 17.81.69 26.83-1.04 3.32-2.6 6.39-4.69 9.18-.68.91-.64 2.14-1.2 3.13-.21.37.16.45.46.38.71-.17 1.34-.5 1.91-.95 3.1-2.39 4.85-5.7 6.19-9.26 1.69-4.45 2.45-9.09 2.87-13.81.61-6.84.37-13.68-.26-20.5-.94-10.16-2.75-20.18-5-30.12C.46 1.99.27 1.14 0 0" style="fill:#ba9bc9;fill-opacity:1;fill-rule:nonzero;stroke:none" transform="translate(349.089 204.488)"/></g></svg>