<svg xml:space="preserve" width="853.333" height="640" xmlns="http://www.w3.org/2000/svg"><defs><clipPath clipPathUnits="userSpaceOnUse" id="a"><path d="M0 480h640V0H0Z"/></clipPath></defs><path d="M185.653 178.423h-49.472v49.472h49.472zm-38.278 110.23 10.884-10.314 15.957 16.838 4.653-4.409-20.367-21.491-.044.041-4.609 4.368-10.884 10.315zm0 79.068 10.884-10.315 15.957 16.839 4.653-4.41-20.367-21.491-.044.042-4.609 4.368-10.884 10.314zm56.533 18.31h120.58v-19.807h-120.58zm26.426-207.608h-26.426v19.807h26.426v9.859h-26.426v19.807h26.426v29.595h-26.426v19.807h26.426v9.858h-26.426v19.807h26.426v29.595h-26.426v19.807h26.426v7.509h127.657v46.009H102.678V154.571h127.656z" style="fill:#ba9bc9;fill-opacity:1;fill-rule:nonzero;stroke:none" transform="matrix(1.33333 0 0 -1.33333 0 640)"/><path d="M0 0v-236.429h-234.773v-18.884H20.54V0Z" style="fill:#ba9bc9;fill-opacity:1;fill-rule:nonzero;stroke:none" transform="matrix(1.33333 0 0 -1.33333 654.22 186.834)"/><path d="M0 0v66.258L-66.258 0Z" style="fill:#8242b5;fill-opacity:1;fill-rule:nonzero;stroke:none" transform="matrix(1.33333 0 0 -1.33333 647.53 495.251)"/><path d="M0 0v-236.43h-234.773v-18.883H20.54V0Z" style="fill:#ba9bc9;fill-opacity:1;fill-rule:nonzero;stroke:none" transform="matrix(1.33333 0 0 -1.33333 689.043 219.726)"/><g clip-path="url(#a)" transform="matrix(1.33333 0 0 -1.33333 0 640)"><path d="M0 0c-3.803-3.021-6.484-5.678-8.047-7.969-1.562-2.293-2.344-5.131-2.344-8.515v-2.735h-26.25v6.875c0 9.531 3.151 17.004 9.454 22.422 4.113 3.488 6.757 5.885 7.929 7.188 1.172 1.3 2.004 2.55 2.5 3.75.494 1.197.742 2.603.742 4.218 0 1.979-.873 3.645-2.617 5-1.746 1.354-3.998 2.032-6.758 2.032-8.386 0-17.187-3.36-26.406-10.079v30.704c3.385 1.925 7.955 3.593 13.711 5C-32.332 59.297-27.162 60-22.578 60c12.76 0 22.512-2.514 29.258-7.539 6.744-5.027 10.117-12.332 10.117-21.914C16.797 18.984 11.197 8.801 0 0m-9.023-52.891c-3.36-2.968-7.879-4.453-13.555-4.453-5.469 0-9.922 1.524-13.36 4.571-3.437 3.046-5.156 6.808-5.156 11.289 0 4.582 1.68 8.293 5.039 11.132 3.36 2.838 7.852 4.258 13.477 4.258 5.572 0 10.064-1.42 13.476-4.258 3.411-2.839 5.118-6.55 5.118-11.132 0-4.637-1.68-8.438-5.039-11.407m-140.471 186.555v-255.313H39.562v66.258h66.257v189.055z" style="fill:#8242b5;fill-opacity:1;fill-rule:nonzero;stroke:none" transform="translate(379.828 230.21)"/></g><path d="m0 0-.044.042-4.609 4.367-10.884 10.315 4.41 4.653L-.243 9.062 15.714 25.9l4.653-4.409Zm-22.321-11.786h49.472v49.472h-49.472z" style="fill:#8242b5;fill-opacity:1;fill-rule:nonzero;stroke:none" transform="matrix(1.33333 0 0 -1.33333 211.336 175.54)"/><path d="m0 0-.044.042-4.609 4.367-10.884 10.315 4.41 4.653L-.243 9.062 15.714 25.9l4.653-4.409Zm-22.321-11.786h49.472v49.472h-49.472z" style="fill:#8242b5;fill-opacity:1;fill-rule:nonzero;stroke:none" transform="matrix(1.33333 0 0 -1.33333 211.336 280.964)"/></svg>