<svg xml:space="preserve" width="853.333" height="640" xmlns="http://www.w3.org/2000/svg"><defs><clipPath clipPathUnits="userSpaceOnUse" id="a"><path d="M0 480h640V0H0Z"/></clipPath><clipPath clipPathUnits="userSpaceOnUse" id="b"><path d="M510.533 346.807h40.884V311.36h-40.884z"/></clipPath><clipPath clipPathUnits="userSpaceOnUse" id="c"><path d="M479.082 406.555h40.884v-35.446h-40.884z"/></clipPath><clipPath clipPathUnits="userSpaceOnUse" id="d"><path d="M91.313 168h35.425v-35.02H91.313Z"/></clipPath><clipPath clipPathUnits="userSpaceOnUse" id="e"><path d="M122.764 108.464h35.425v-35.02h-35.425z"/></clipPath></defs><path d="M0 0h640v480H0Z" style="fill:#fff;fill-opacity:1;fill-rule:nonzero;stroke:none" transform="matrix(1.33333 0 0 -1.33333 0 640)"/><g clip-path="url(#a)" transform="matrix(1.33333 0 0 -1.33333 0 640)"><path d="m0 0-3.523-3.399-3.4 3.523C-12.395 5.796-21.429 5.957-27.1.485c-5.672-5.472-5.834-14.505-.362-20.177l3.4-3.524 9.908-10.269 9.908-10.269 10.269 9.908 10.27 9.908 3.523 3.399c5.672 5.472 5.833 14.506.361 20.178C14.705 5.31 5.672 5.472 0 0" style="fill:#ba9bc9;fill-opacity:1;fill-rule:nonzero;stroke:none" transform="translate(503.166 282.572)"/><g clip-path="url(#b)" opacity=".7"><path d="m0 0-2.589-2.498L-5.087.091c-4.021 4.168-10.659 4.286-14.826.266-4.168-4.021-4.286-10.659-.266-14.827l2.498-2.589 7.281-7.545 7.28-7.546 7.546 7.28 7.546 7.28 2.589 2.498c4.167 4.021 4.286 10.659.265 14.826v.001C10.805 3.902 4.167 4.021 0 0" style="fill:#ba9bc9;fill-opacity:1;fill-rule:nonzero;stroke:none" transform="translate(533.651 343.51)"/></g><g clip-path="url(#c)" opacity=".4"><path d="m0 0-2.589-2.498L-5.087.091c-4.021 4.168-10.659 4.286-14.826.266-4.168-4.021-4.286-10.659-.266-14.827l2.498-2.589 7.281-7.545 7.28-7.546 7.546 7.28 7.546 7.28 2.589 2.498c4.167 4.021 4.286 10.659.265 14.826v.001C10.805 3.902 4.167 4.021 0 0" style="fill:#ba9bc9;fill-opacity:1;fill-rule:nonzero;stroke:none" transform="translate(502.2 403.26)"/></g><path d="m0 0-63.528 46.327-11.09-69.34c-1.05-6.705 5.922-11.79 11.986-8.74z" style="fill:#8242b5;fill-opacity:1;fill-rule:nonzero;stroke:none" transform="translate(280.53 132.668)"/><path d="m0 0-49.133 35.83a8.908 8.908 0 0 1-12.446-1.948l-70.484-96.654-57.481-78.822-5.71-7.83 63.527-46.328 5.711 7.831 57.48 78.822L1.949-12.446A8.909 8.909 0 0 1 0 0" style="fill:#8242b5;fill-opacity:1;fill-rule:nonzero;stroke:none" transform="translate(420.426 339.622)"/><path d="M0 0c-.531 0-1.007.289-1.298.733a11.632 11.632 0 0 1-9.754 5.285A11.633 11.633 0 0 1-20.807.733C-21.098.289-21.574 0-22.105 0c-1.19 0-1.938 1.321-1.292 2.321 2.614 4.051 7.165 6.734 12.345 6.734 5.179 0 9.73-2.683 12.344-6.734C1.938 1.321 1.19 0 0 0m-20.715 19.877a2.209 2.209 0 1 0 0-4.418 2.209 2.209 0 0 0 0 4.418m19.325 0a2.209 2.209 0 1 0 0-4.418 2.209 2.209 0 0 0 0 4.418m-9.662 17.235c-13.793 0-24.974-11.181-24.974-24.974 0-13.792 11.181-24.973 24.974-24.973 13.792 0 24.973 11.181 24.973 24.973 0 13.793-11.181 24.974-24.973 24.974" style="fill:#ba9bc9;fill-opacity:1;fill-rule:nonzero;stroke:none" transform="translate(151.529 204.71)"/><g clip-path="url(#d)" opacity=".7"><path d="M0 0c-.377 0-.715.205-.921.52a8.257 8.257 0 0 1-6.923 3.751A8.255 8.255 0 0 1-14.766.52a1.11 1.11 0 0 0-.922-.52c-.844 0-1.375.938-.917 1.647a10.41 10.41 0 0 0 8.761 4.779A10.41 10.41 0 0 0 .917 1.647C1.375.938.845 0 0 0m-14.701 14.107a1.567 1.567 0 1 0 0-3.134 1.567 1.567 0 0 0 0 3.134m13.715 0a1.568 1.568 0 1 0-.002-3.136 1.568 1.568 0 0 0 .002 3.136m-6.858 12.231c-9.716 0-17.597-7.821-17.712-17.51.115-9.689 7.996-17.51 17.712-17.51 9.717 0 17.597 7.821 17.713 17.51-.116 9.689-7.997 17.51-17.713 17.51" style="fill:#ba9bc9;fill-opacity:1;fill-rule:nonzero;stroke:none" transform="translate(116.869 141.662)"/></g><g clip-path="url(#e)" opacity=".4"><path d="M0 0c-.377 0-.715.205-.921.52a8.257 8.257 0 0 1-6.923 3.751A8.255 8.255 0 0 1-14.766.52a1.11 1.11 0 0 0-.922-.52c-.844 0-1.375.938-.917 1.647a10.41 10.41 0 0 0 8.761 4.779A10.41 10.41 0 0 0 .917 1.647C1.375.938.845 0 0 0m-14.701 14.107a1.567 1.567 0 1 0 0-3.134 1.567 1.567 0 0 0 0 3.134m13.715 0a1.568 1.568 0 1 0-.002-3.136 1.568 1.568 0 0 0 .002 3.136m-6.858 12.231c-9.716 0-17.597-7.821-17.712-17.51.115-9.689 7.996-17.51 17.712-17.51 9.717 0 17.597 7.821 17.713 17.51-.116 9.689-7.997 17.51-17.713 17.51" style="fill:#ba9bc9;fill-opacity:1;fill-rule:nonzero;stroke:none" transform="translate(148.32 82.127)"/></g><path d="M0 0h-159.246l-32.223-16.336H0A8.168 8.168 0 0 1 0 0" style="fill:#ba9bc9;fill-opacity:1;fill-rule:nonzero;stroke:none" transform="translate(415.917 111.091)"/><path d="M0 0a1589.565 1589.565 0 0 0-44.804-.569c-6.64.012-13.803-.617-20.346.707-7.59 1.536-11.189 7.295-12.245 14.592-.886 6.127-.344 12.38-.363 18.544-.024 7.505-.689 15.219 3.125 22.019 7.289 12.997 22.579 15.613 36.064 17.426 1.409.189 1.973 1.9 1.746 3.075-2.381 12.315-5.049 25.566-1.574 37.945 2.709 9.649 10.491 19.865 21.48 19.121l-2.5 2.5c-.29-11.401-.328-22.855 1.443-34.152 1.72-10.971 5.651-19.607 11.621-28.793 1.525-2.347.792-4.754.614-7.586a303.131 303.131 0 0 1-.435-29.296c.437-12.969 1.74-25.882 3.763-38.698.501-3.169 5.32-1.823 4.822 1.33a304.701 304.701 0 0 0-3.614 38.319 303.167 303.167 0 0 0 .464 28.345c.139 2.203 1.112 5.714.447 7.83-.596 1.893-2.731 3.479-3.849 5.086a45.697 45.697 0 0 0-3.912 6.857c-2.304 4.957-3.747 10.305-4.721 15.671-2.094 11.544-1.94 23.403-1.643 35.087.036 1.417-1.178 2.411-2.5 2.5-11.658.789-20.703-8.53-24.846-18.631-5.822-14.195-2.686-30.258.119-44.764l1.746 3.075c-14.69-1.974-30.507-5.347-38.698-19.092-4.12-6.913-4.281-14.6-4.193-22.434.082-7.3-.576-14.709.458-21.962.824-5.775 2.95-11.484 7.704-15.148 5.524-4.257 12.744-4.344 19.403-4.419C-36.818-5.723-18.401-5.487 0-5c3.211.085 3.224 5.085 0 5" style="fill:#ba9bc9;fill-opacity:1;fill-rule:nonzero;stroke:none" transform="translate(523.517 78.715)"/><path d="M0 0a4.749 4.749 0 0 1-4.749 4.749h-100.733c-2.313 0-4.239-2.222-4.394-5.096a417.317 417.317 0 0 1-.473-33.195 415.418 415.418 0 0 1 2.398-35.214c.301-2.714 2.171-4.724 4.371-4.719l20.299.049h.007l2.165.087h76.36A4.749 4.749 0 0 1 0-68.59z" style="fill:#ba9bc9;fill-opacity:1;fill-rule:nonzero;stroke:none" transform="translate(640 147.046)"/><path d="M0 0a4.749 4.749 0 0 1-4.749 4.749h-100.733c-2.313 0-4.239-2.222-4.394-5.096a417.317 417.317 0 0 1-.473-33.195 415.418 415.418 0 0 1 2.398-35.214c.301-2.714 2.171-4.724 4.371-4.719l20.299.049h.007l2.165.087h76.36A4.749 4.749 0 0 1 0-68.59z" style="fill:none;stroke:#ba9bc9;stroke-width:.5;stroke-linecap:butt;stroke-linejoin:miter;stroke-miterlimit:10;stroke-dasharray:none;stroke-opacity:1" transform="translate(640 147.046)"/><path d="M0 0c14.931.395 29.867.595 44.804.569 6.64-.012 13.803.617 20.346-.707 7.59-1.536 11.189-7.295 12.245-14.592.886-6.127.344-12.38.363-18.544.024-7.505.689-15.219-3.125-22.019-7.289-12.997-22.579-15.613-36.064-17.426-1.409-.189-1.973-1.9-1.746-3.075 2.381-12.315 5.049-25.566 1.574-37.945-2.709-9.649-10.491-19.865-21.48-19.121l2.5-2.5c.29 11.401.328 22.855-1.443 34.152-1.72 10.971-5.651 19.607-11.621 28.793-1.525 2.347-.792 4.754-.614 7.586a303.131 303.131 0 0 1 .435 29.296C5.737-22.564 4.434-9.651 2.411 3.165c-.501 3.169-5.32 1.823-4.822-1.33a304.701 304.701 0 0 0 3.614-38.319 303.167 303.167 0 0 0-.464-28.345C.6-67.032-.373-70.543.292-72.659c.596-1.893 2.731-3.479 3.849-5.086a45.697 45.697 0 0 0 3.912-6.857c2.304-4.957 3.747-10.305 4.721-15.671 2.094-11.544 1.94-23.403 1.643-35.087-.036-1.417 1.178-2.411 2.5-2.5 11.658-.789 20.703 8.53 24.846 18.631 5.822 14.195 2.686 30.258-.119 44.764l-1.746-3.075c14.69 1.974 30.507 5.347 38.698 19.092 4.12 6.913 4.281 14.6 4.193 22.434-.082 7.3.576 14.709-.458 21.962-.824 5.775-2.95 11.484-7.704 15.148-5.524 4.257-12.744 4.344-19.403 4.419C36.818 5.723 18.401 5.487 0 5c-3.211-.085-3.224-5.085 0-5" style="fill:#ba9bc9;fill-opacity:1;fill-rule:nonzero;stroke:none" transform="translate(116.483 400.115)"/><path d="M0 0a4.749 4.749 0 0 1 4.749-4.749h100.733c2.313 0 4.239 2.222 4.394 5.096.546 10.085.779 21.204.473 33.195a415.418 415.418 0 0 1-2.398 35.214c-.301 2.714-2.171 4.724-4.371 4.719l-20.299-.049h-.007l-2.165-.087H4.749A4.749 4.749 0 0 1 0 68.59Z" style="fill:#ba9bc9;fill-opacity:1;fill-rule:nonzero;stroke:none" transform="translate(0 331.784)"/><path d="M0 0a4.749 4.749 0 0 1 4.749-4.749h100.733c2.313 0 4.239 2.222 4.394 5.096.546 10.085.779 21.204.473 33.195a415.418 415.418 0 0 1-2.398 35.214c-.301 2.714-2.171 4.724-4.371 4.719l-20.299-.049h-.007l-2.165-.087H4.749A4.749 4.749 0 0 1 0 68.59Z" style="fill:none;stroke:#ba9bc9;stroke-width:.5;stroke-linecap:butt;stroke-linejoin:miter;stroke-miterlimit:10;stroke-dasharray:none;stroke-opacity:1" transform="translate(0 331.784)"/></g></svg>