<svg width="640pt" height="640" viewBox="0 0 640 480" version="1.2" xmlns="http://www.w3.org/2000/svg"><path style="stroke:none;fill-rule:nonzero;fill:#ba9bc9;fill-opacity:1" d="M185.652 301.578H136.18v-49.473h49.472Zm-38.277-110.23 10.883 10.312 15.957-16.836 4.652 4.406-20.363 21.493-.047-.04-4.61-4.37L142.966 196Zm0-79.07 10.883 10.316 15.957-16.84 4.652 4.41-20.363 21.492-.047-.043-4.61-4.367-10.882-10.312Zm56.531-18.31h120.582v19.81H203.906Zm26.43 207.61h-26.43V281.77h26.43v-9.86h-26.43v-19.805h26.43v-29.597h-26.43v-19.805h26.43v-9.86h-26.43v-19.808h26.43v-29.594h-26.43v-19.804h26.43v-7.512h127.656V70.117H102.68V325.43h127.656Zm260.328-161.453v236.43h-234.77v18.882h255.313V140.125Zm0 0"/><path style="stroke:none;fill-rule:nonzero;fill:#8242b5;fill-opacity:1" d="M485.648 371.438V305.18l-66.257 66.257Zm0 0"/><path style="stroke:none;fill-rule:nonzero;fill:#ba9bc9;fill-opacity:1" d="M516.781 164.793v236.43H282.008v18.882H537.32V164.793Zm0 0"/><path style="stroke:none;fill-rule:nonzero;fill:#8242b5;fill-opacity:1" d="M379.828 249.79c-3.805 3.023-6.484 5.679-8.047 7.968-1.562 2.293-2.344 5.133-2.344 8.515v2.735h-26.25v-6.875c0-9.531 3.153-17.004 9.454-22.422 4.113-3.488 6.757-5.883 7.93-7.188 1.171-1.3 2.003-2.55 2.5-3.75.491-1.195.741-2.601.741-4.218 0-1.977-.875-3.645-2.617-5-1.746-1.352-4-2.032-6.757-2.032-8.387 0-17.188 3.36-26.407 10.079v-30.704c3.387-1.925 7.953-3.593 13.711-5 5.754-1.406 10.926-2.109 15.508-2.109 12.762 0 22.512 2.516 29.258 7.54 6.746 5.026 10.117 12.331 10.117 21.913 0 11.563-5.602 21.746-16.797 30.547m-9.023 52.89c-3.36 2.97-7.88 4.454-13.555 4.454-5.469 0-9.922-1.524-13.36-4.57-3.437-3.047-5.156-6.81-5.156-11.29 0-4.582 1.68-8.293 5.04-11.132 3.359-2.836 7.851-4.258 13.476-4.258 5.57 0 10.063 1.422 13.477 4.258 3.41 2.84 5.117 6.55 5.117 11.132 0 4.637-1.68 8.438-5.04 11.407M230.337 116.125v255.313H419.39V305.18h66.257V116.125Zm-71.833 15.531-.047-.043-4.61-4.367-10.882-10.312 4.41-4.657 10.883 10.317 15.957-16.84 4.652 4.41Zm-22.324 11.785h49.472V93.97H136.18Zm22.324 67.282-.047-.043-4.61-4.368L142.966 196l4.41-4.652 10.883 10.312 15.957-16.836 4.652 4.406Zm-22.324 11.785h49.472v-49.473H136.18Zm0 0"/></svg>