<svg width="640pt" height="640" viewBox="0 0 640 480" version="1.2" xmlns="http://www.w3.org/2000/svg"><path style="fill:none;stroke-width:3;stroke-linecap:butt;stroke-linejoin:miter;stroke:#ba9bc9;stroke-opacity:1;stroke-miterlimit:10" d="M0-.002a382.89 382.89 0 0 1-85.184 11.489A383.28 383.28 0 0 1-186.777-.002v213.793a416.762 416.762 0 0 0 93.64 10.602A416.718 416.718 0 0 0 0 213.791Zm0 0" transform="matrix(1 0 0 -1 320 419.155)"/><path style="fill:none;stroke-width:3;stroke-linecap:butt;stroke-linejoin:miter;stroke:#ba9bc9;stroke-opacity:1;stroke-miterlimit:10" d="M-.002-.002a382.856 382.856 0 0 1-85.183 11.489A383.264 383.264 0 0 1-186.779-.002v213.793a416.771 416.771 0 0 0 93.644 10.602A416.68 416.68 0 0 0-.002 213.791Zm0 0" transform="matrix(1 0 0 -1 506.78 419.155)"/><path style="stroke:none;fill-rule:nonzero;fill:#ba9bc9;fill-opacity:1" d="M192.41 206.93a416.747 416.747 0 0 0-44.172 6.023v45.277a417.709 417.709 0 0 1 44.172-6.027Zm35.528-1.63c-9.18-.003-18.02.298-26.504.833v9.953a418.034 418.034 0 0 1 26.504-.832 416.711 416.711 0 0 1 77.738 7.371v-9.953c-21.77-4.149-48-7.352-77.738-7.371m0 18.226c-9.18-.007-18.02.297-26.504.832v9.953a418.034 418.034 0 0 1 26.504-.832 416.711 416.711 0 0 1 77.738 7.372v-9.954a416.71 416.71 0 0 0-77.738-7.37m0 18.226c-9.18-.008-18.02.297-26.504.832v9.953c8.484-.535 17.324-.84 26.504-.832a416.38 416.38 0 0 1 77.738 7.371v-9.953c-21.77-4.152-48-7.355-77.738-7.371m-22.266 71.706c-.531 0-1.008-.288-1.297-.73a11.63 11.63 0 0 0-9.754-5.285 11.637 11.637 0 0 0-9.758 5.285c-.289.442-.765.73-1.297.73-1.187 0-1.937-1.32-1.293-2.32 2.618-4.05 7.168-6.734 12.348-6.734 5.18 0 9.73 2.684 12.344 6.735.644 1-.102 2.32-1.293 2.32m-20.715-19.875a2.21 2.21 0 0 1 2.211 2.207 2.208 2.208 0 1 1-4.418 0c0-1.219.988-2.207 2.207-2.207m19.324 0a2.208 2.208 0 1 1 0 4.418 2.208 2.208 0 0 1-2.207-2.211c0-1.219.988-2.207 2.207-2.207m-9.66-17.234c-13.793 0-24.976 11.18-24.976 24.972 0 13.793 11.183 24.973 24.976 24.973 13.79 0 24.973-11.18 24.973-24.973s-11.184-24.972-24.973-24.972m73.984 54.336-3.52 3.398-3.401-3.524c-5.473-5.671-14.504-5.832-20.176-.359-5.672 5.469-5.836 14.504-.363 20.176l3.402 3.523 9.906 10.27 9.91 10.27 10.266-9.91 10.273-9.907 3.52-3.398c5.672-5.473 5.836-14.508.363-20.18-5.473-5.672-14.504-5.832-20.18-.36m230.551 29.36-28.437-14.145.281 28.368c.035 2.738 3.156 4.293 5.367 2.668Zm41.688-91.891-21.996-10.937a3.593 3.593 0 0 0-4.82 1.617l-21.524 43.266-17.547 35.28-1.742 3.509 28.433 14.144 1.747-3.508 17.546-35.28 21.52-43.267a3.599 3.599 0 0 0-1.617-4.824m-73.981 98.004a415.48 415.48 0 0 0-42.402-2.203 416.572 416.572 0 0 0-93.645 10.602v8.66a416.825 416.825 0 0 1 93.645-10.598c15.082.008 29.246.844 42.402 2.2Zm32.293 20.55a416.593 416.593 0 0 0-74.695-6.804 416.771 416.771 0 0 0-93.645 10.602v8.664a416.544 416.544 0 0 1 168.34-3.8ZM295.637 151.95c-15.024 6.702-28.348 19.452-38.782 36.394A494.453 494.453 0 0 1 320 198.617a494.798 494.798 0 0 1 63.145-10.273c-10.43-16.942-23.758-29.692-38.782-36.395 15.028-8.508 25.176-24.625 25.176-43.125 0-27.36-22.18-49.539-49.539-49.539-27.36 0-49.54 22.18-49.54 49.54 0 18.5 10.15 34.616 25.177 43.124"/></svg>