<svg xml:space="preserve" width="853.333" height="640" xmlns="http://www.w3.org/2000/svg"><defs><clipPath clipPathUnits="userSpaceOnUse" id="a"><path d="M0 480h640V0H0Z"/></clipPath></defs><path d="M0 0h640v480H0Z" style="fill:#fff;fill-opacity:1;fill-rule:nonzero;stroke:none" transform="matrix(1.33333 0 0 -1.33333 0 640)"/><path d="M32.872 373.497h69.135v69.952H32.872Zm0-13.52h118.673v7.077H32.872Zm0-15.383h118.673v7.077H32.872Zm0-15.382h118.673v7.077H32.872Zm76.212 75.993h42.461v7.077h-42.461zm0-15.583h42.461v7.077h-42.461zm0-15.584h42.461v7.077h-42.461zm0 62.334h42.461v7.077h-42.461zm0-15.583h42.461v7.077h-42.461zm75.447-47.292h69.135v69.952h-69.135zm0-13.52h118.673v7.077H184.531Zm0-15.383h118.673v7.077H184.531Zm0-15.382h118.673v7.077H184.531Zm76.212 75.993h42.461v7.077h-42.461zm0-15.583h42.461v7.077h-42.461zm0-15.584h42.461v7.077h-42.461zm0 62.334h42.461v7.077h-42.461zm0-15.583h42.461v7.077h-42.461zm75.447-47.292h69.135v69.952H336.19Zm0-13.52h118.673v7.077H336.19Zm0-15.383h118.673v7.077H336.19Zm0-15.382h118.673v7.077H336.19Zm76.212 75.993h42.461v7.077h-42.461zm0-15.583h42.461v7.077h-42.461zm0-15.584h42.461v7.077h-42.461zm0 62.334h42.461v7.077h-42.461zm0-15.583h42.461v7.077h-42.461zm75.447-47.292h69.135v69.952h-69.135zm0-13.52h118.673v7.077H487.849Zm0-15.383h118.673v7.077H487.849Zm0-15.382h118.673v7.077H487.849Zm76.212 75.993h42.461v7.077h-42.461zm0-15.583h42.461v7.077h-42.461zm0-15.584h42.461v7.077h-42.461zm0 62.334h42.461v7.077h-42.461zm0-15.583h42.461v7.077h-42.461zM33.478 227.167h69.135v69.952H33.478Zm0-13.521h118.673v7.077H33.478Zm0-15.382h118.673v7.077H33.478Zm0-15.383h118.673v7.077H33.478Zm76.212 75.993h42.461v7.077H109.69Zm0-15.583h42.461v7.077H109.69Zm0-15.584h42.461v7.077H109.69Zm0 62.335h42.461v7.077H109.69Zm0-15.584h42.461v7.077H109.69Zm75.447-47.291h69.135v69.952h-69.135zm0-13.521H303.81v7.077H185.137Zm0-15.382H303.81v7.077H185.137Zm0-15.383H303.81v7.077H185.137Zm76.212 75.993h42.461v7.077h-42.461zm0-15.583h42.461v7.077h-42.461zm0-15.584h42.461v7.077h-42.461zm0 62.335h42.461v7.077h-42.461zm0-15.584h42.461v7.077h-42.461zm75.447-47.291h69.135v69.952h-69.135zm0-13.521h118.673v7.077H336.796Zm0-15.382h118.673v7.077H336.796Zm0-15.383h118.673v7.077H336.796Zm76.212 75.993h42.461v7.077h-42.461zm0-15.583h42.461v7.077h-42.461zm0-15.584h42.461v7.077h-42.461zm0 62.335h42.461v7.077h-42.461zm0-15.584h42.461v7.077h-42.461zm75.447-47.291h69.135v69.952h-69.135zm0-13.521h118.673v7.077H488.455Zm0-15.382h118.673v7.077H488.455Zm0-15.383h118.673v7.077H488.455Zm76.212 75.993h42.461v7.077h-42.461zm0-15.583h42.461v7.077h-42.461zm0-15.584h42.461v7.077h-42.461zm0 62.335h42.461v7.077h-42.461zm0-15.584h42.461v7.077h-42.461zM33.478 80.836h69.135v69.952H33.478Zm0-13.521h118.673v7.077H33.478Zm0-15.382h118.673v7.077H33.478Zm0-15.382h118.673v7.077H33.478Zm76.212 75.993h42.461v7.077H109.69Zm0-15.584h42.461v7.077H109.69Zm0-15.583h42.461v7.077H109.69Zm0 62.334h42.461v7.077H109.69Zm0-15.584h42.461v7.077H109.69Zm75.447-47.291h69.135v69.952h-69.135zm0-13.521H303.81v7.077H185.137Zm0-15.382H303.81v7.077H185.137Zm0-15.382H303.81v7.077H185.137Zm76.212 75.993h42.461v7.077h-42.461zm0-15.584h42.461v7.077h-42.461zm0-15.583h42.461v7.077h-42.461zm0 62.334h42.461v7.077h-42.461zm0-15.584h42.461v7.077h-42.461zm75.447-47.291h69.135v69.952h-69.135zm0-13.521h118.673v7.077H336.796Zm0-15.382h118.673v7.077H336.796Zm0-15.382h118.673v7.077H336.796Zm76.212 75.993h42.461v7.077h-42.461zm0-15.584h42.461v7.077h-42.461zm0-15.583h42.461v7.077h-42.461zm0 62.334h42.461v7.077h-42.461zm0-15.584h42.461v7.077h-42.461zm75.447-47.291h69.135v69.952h-69.135zm0-13.521h118.673v7.077H488.455Zm0-15.382h118.673v7.077H488.455Zm0-15.382h118.673v7.077H488.455Zm76.212 75.993h42.461v7.077h-42.461zm0-15.584h42.461v7.077h-42.461zm0-15.583h42.461v7.077h-42.461zm0 62.334h42.461v7.077h-42.461zm0-15.584h42.461v7.077h-42.461z" style="fill:#ba9bc9;fill-opacity:1;fill-rule:nonzero;stroke:none" transform="matrix(1.33333 0 0 -1.33333 0 640)"/><g clip-path="url(#a)" transform="matrix(1.33333 0 0 -1.33333 0 640)"><path d="M0 0c66.075-45.445 82.799-135.849 37.354-201.924-45.445-66.074-135.849-82.798-201.924-37.353-66.074 45.444-82.798 135.848-37.354 201.923C-156.479 28.721-66.075 45.445 0 0" style="fill:#8242b5;fill-opacity:1;fill-rule:nonzero;stroke:none" transform="translate(325.161 397.577)"/><path d="m0 0-20.731-30.142c-4.782-6.953-14.295-8.712-21.247-3.93l-128.595 88.444c-6.953 4.782-8.712 14.295-3.93 21.248l20.73 30.141c4.782 6.953 14.295 8.713 21.248 3.931L-3.931 21.248C3.022 16.466 4.782 6.953 0 0" style="fill:#8242b5;fill-opacity:1;fill-rule:nonzero;stroke:none" transform="translate(540.256 95.608)"/><path d="M0 0c0-56.19-45.551-101.741-101.741-101.741-56.189 0-101.74 45.551-101.74 101.741s45.551 101.741 101.74 101.741C-45.551 101.741 0 56.19 0 0" style="fill:#fff;fill-opacity:1;fill-rule:nonzero;stroke:none" transform="translate(344.533 277.997)"/><path d="m0 0 .779-.871C.792-.885.813-.864.8-.85L.021.021C.008.036-.013.014 0 0" style="fill:#fff;fill-opacity:1;fill-rule:nonzero;stroke:none" transform="translate(314.13 292.397)"/><path d="M0 0c.019 0 .019.03 0 .03S-.019 0 0 0" style="fill:#fff;fill-opacity:1;fill-rule:nonzero;stroke:none" transform="translate(349.18 241.87)"/><path d="M0 0a1414.9 1414.9 0 0 0-38.87-.508c-6.224.007-12.973-.618-19.106.621-6.612 1.337-9.747 6.35-10.691 12.65-.781 5.218-.354 10.546-.339 15.799.02 6.633-.737 13.541 2.4 19.653 6.165 12.008 20.206 14.411 32.314 16.041 1.41.189 1.973 1.9 1.746 3.075-2.118 10.966-4.514 22.811-1.356 33.827 2.425 8.458 9.224 17.271 18.829 16.673l-2.5 2.5c-.256-10.152-.297-20.356 1.279-30.416 1.502-9.588 4.9-17.261 10.042-25.35 2.343-3.687.665-9.9.506-14.293a272.746 272.746 0 0 1-.027-18.885c.383-11.58 1.56-23.109 3.362-34.552.499-3.169 5.318-1.823 4.822 1.33a271.8 271.8 0 0 0-3.214 34.21 271.06 271.06 0 0 0 .057 17.897c.095 2.609.229 5.216.399 7.821.123 1.889.914 4.913.223 6.743-.672 1.782-2.635 3.254-3.699 4.84a40.77 40.77 0 0 0-3.165 5.673c-2.093 4.542-3.385 9.46-4.234 14.376-1.741 10.083-1.608 20.414-1.351 30.606.036 1.412-1.177 2.418-2.5 2.5-10.269.64-18.296-7.281-22.128-16.173-5.537-12.846-2.716-27.452-.166-40.656l1.746 3.075c-13.3-1.79-27.877-4.953-34.965-17.694-3.327-5.979-3.532-12.525-3.457-19.206.075-6.67-.534-13.468.438-20.093.77-5.247 2.752-10.433 7.14-13.699 4.961-3.692 11.339-3.772 17.261-3.844C-32.805-5.658-16.394-5.433 0-5c3.211.085 3.224 5.085 0 5" style="fill:#8242b5;fill-opacity:1;fill-rule:nonzero;stroke:none" transform="translate(270.051 229.589)"/><path d="M0 0a270.888 270.888 0 0 1 3.273-33.887l29.286.055C43.45-19.585 49.932-1.788 49.932 17.53c0 5.106-.477 10.099-1.344 14.956H.865A270.846 270.846 0 0 1 0 0" style="fill:#8242b5;fill-opacity:1;fill-rule:nonzero;stroke:none" transform="translate(277.613 260.467)"/><path d="M0 0a270.888 270.888 0 0 1 3.273-33.887l29.286.055C43.45-19.585 49.932-1.788 49.932 17.53c0 5.106-.477 10.099-1.344 14.956H.865A270.846 270.846 0 0 1 0 0Z" style="fill:none;stroke:#8242b5;stroke-width:.5;stroke-linecap:butt;stroke-linejoin:miter;stroke-miterlimit:10;stroke-dasharray:none;stroke-opacity:1" transform="translate(277.613 260.467)"/></g></svg>