<svg xml:space="preserve" width="853.333" height="640" xmlns="http://www.w3.org/2000/svg"><path d="M0 0h640v480H0Z" style="fill:#fff;fill-opacity:1;fill-rule:nonzero;stroke:none" transform="matrix(1.33333 0 0 -1.33333 0 640)"/><path d="M357.991 154.571H102.678v255.313h255.313z" style="fill:#ba9bc9;fill-opacity:1;fill-rule:nonzero;stroke:none" transform="matrix(1.33333 0 0 -1.33333 0 640)"/><path d="M185.653 336.558h-49.472v49.472h49.472z" style="fill:#8242b5;fill-opacity:1;fill-rule:nonzero;stroke:none" transform="matrix(1.33333 0 0 -1.33333 0 640)"/><path d="M185.653 178.423h-49.472v49.472h49.472zm138.835 0h-120.58v19.807h120.58zm0 29.666h-120.58v19.807h120.58zm0 49.402h-120.58v19.807h120.58zm0 29.665h-120.58v19.807h120.58zm0 49.402h-120.58v19.807h120.58zm0 29.666h-120.58v19.807h120.58z" style="fill:#fff;fill-opacity:1;fill-rule:nonzero;stroke:none" transform="matrix(1.33333 0 0 -1.33333 0 640)"/><path d="m0 0-10.884 10.315-4.409-4.653L-4.409-4.653.2-9.02l.043-.042L20.61 12.429l-4.653 4.409Z" style="fill:#fff;fill-opacity:1;fill-rule:nonzero;stroke:none" transform="matrix(1.33333 0 0 -1.33333 211.012 163.458)"/><path d="M185.653 257.491h-49.472v49.472h49.472z" style="fill:#8242b5;fill-opacity:1;fill-rule:nonzero;stroke:none" transform="matrix(1.33333 0 0 -1.33333 0 640)"/><path d="m0 0-10.884 10.315-4.409-4.653L-4.409-4.653.2-9.02l.043-.042L20.61 12.429l-4.653 4.409Z" style="fill:#fff;fill-opacity:1;fill-rule:nonzero;stroke:none" transform="matrix(1.33333 0 0 -1.33333 211.012 268.882)"/><path d="M0 0v-236.429h-234.773v-18.884H20.54V0Z" style="fill:#ba9bc9;fill-opacity:1;fill-rule:nonzero;stroke:none" transform="matrix(1.33333 0 0 -1.33333 654.22 186.834)"/><path d="M485.647 108.561H230.334v255.313h255.313z" style="fill:#8242b5;fill-opacity:1;fill-rule:nonzero;stroke:none" transform="matrix(1.33333 0 0 -1.33333 0 640)"/><path d="M0 0h-66.258v-66.258Z" style="fill:#fff;fill-opacity:1;fill-rule:nonzero;stroke:none" transform="matrix(1.33333 0 0 -1.33333 647.53 406.908)"/><path d="M0 0v-236.43h-234.773v-18.883H20.54V0Z" style="fill:#ba9bc9;fill-opacity:1;fill-rule:nonzero;stroke:none" transform="matrix(1.33333 0 0 -1.33333 689.043 219.726)"/><text transform="translate(434.354 406.908) scale(1.33333)" style="font-variant:normal;font-weight:900;font-stretch:normal;font-size:160px;font-family:'Segoe UI Black';-inkscape-font-specification:SegoeUIBlack;writing-mode:lr-tb;fill:#fff;fill-opacity:1;fill-rule:nonzero;stroke:none"><tspan x="0" y="0">?</tspan></text></svg>